{
.appVersion = "895";
copyright = "Copyright © 2016 by Mateusz Machalski. All rights reserved.";
date = "2016-08-12 15:54:21 +0000";
designer = "Mateusz Machalski";
designerURL = www.machalski.wtf;
familyName = "Nocturne Serif";
featurePrefixes = (
{
automatic = 1;
code = "languagesystem DFLT dflt;\012languagesystem latn dflt;\012languagesystem latn ROM;\012languagesystem latn MOL;\012languagesystem latn KAZ;\012languagesystem latn TAT;\012languagesystem latn TRK;\012languagesystem latn CRT;\012languagesystem latn AZE;\012";
name = Languagesystems;
}
);
features = (
{
automatic = 1;
code = "feature ccmp;\012feature locl;\012feature numr;\012feature dnom;\012feature frac;\012feature lnum;\012feature onum;\012feature c2sc;\012feature smcp;\012";
name = aalt;
},
{
automatic = 1;
code = "lookup ccmp_latn_1 {\012	script latn;\012	@CombiningTopAccents = [acutecomb brevecomb caroncomb circumflexcomb commaturnedabovecomb dieresiscomb dotaccentcomb gravecomb hungarumlautcomb macroncomb ringcomb tildecomb];\012	@CombiningNonTopAccents = [cedillacomb ogonekcomb slashlongcomb strokelongcomb strokeshortcomb];\012	sub [i]' @CombiningTopAccents by [idotless];\012	sub [i]' @CombiningNonTopAccents @CombiningTopAccents by [idotless];\012} ccmp_latn_1;\012";
name = ccmp;
},
{
automatic = 1;
code = "script latn;\012language ROM;\012sub Scedilla by Scommaaccent;\012sub scedilla by scommaaccent;\012sub Tcedilla by Tcommaaccent;\012sub tcedilla by tcommaaccent;\012language MOL;\012sub Scedilla by Scommaaccent;\012sub scedilla by scommaaccent;\012sub Tcedilla by Tcommaaccent;\012sub tcedilla by tcommaaccent;\012language KAZ;\012sub i by idotaccent;\012language TAT;\012sub i by idotaccent;\012language TRK;\012sub i by idotaccent;\012language CRT;\012sub i by idotaccent;\012language AZE;\012sub i by idotaccent;\012";
name = locl;
},
{
code = "\012";
name = dlig;
},
{

glyphs = (
{
glyphname = A;
lastChange = "2016-10-25 09:24:27 +0000";
layers = (
{
anchors = (
{
name = bottom;
position = "{358, 0}";
},
{
name = ogonek;
position = "{612, 0}";
},
{
name = top;
position = "{348, 700}";
}
);
components = (
{
name = com_skos_szer;
transform = "{-1, 0, 0, 1, 728, 0}";
},
{
name = szeryf;
transform = "{1, 0, 0, 1, 433, 0}";
},
{
name = szeryf_long;
transform = "{1, 0, 0, 1, -65, 0}";
}
);
layerId = "0F8BB9BB-4444-4167-ACAA-B06A747D7052";
paths = (
{
closed = 1;
nodes = (
"125 0 LINE",
"125 60 LINE",
"326 541 LINE",
"350 730 LINE",
"347 730 LINE",
"35 0 LINE"
);
},
{
closed = 1;
nodes = (
"666 0 LINE",
"353 730 LINE",
"350 730 LINE",
"326 541 LINE",
"524 60 LINE",
"524 0 LINE"
);
},
{
closed = 1;
nodes = (
"497 265 LINE",
"497 315 LINE",
"181 315 LINE",
"181 265 LINE"
);
}
);
width = 707;
},
{
anchors = (
{
name = bottom;
position = "{396, 0}";
},
{
name = ogonek;
position = "{524, 0}";
},
{
name = top;
position = "{386, 700}";
}
);
components = (
{
name = com_skos_szer;
transform = "{-1, 0, 0, 1, 831, 0}";
},
{
name = szeryf;
transform = "{1, 0, 0, 1, 395, 0}";
},
{
name = szeryf_long;
transform = "{1, 0, 0, 1, -65, 0}";
}
);
guideLines = (
{
angle = -63.4942;
position = "{91, 254}";
}
);
layerId = "F548E3CC-813E-497B-8EED-D24596D10F9A";
paths = (
{
closed = 1;
nodes = (
"124 0 LINE",
"124 90 LINE",
"294 429 LINE",
"391 760 LINE",
"388 760 LINE",
"10 0 LINE"
);
},
{
closed = 1;
nodes = (
"786 0 LINE",
"394 760 LINE",
"391 760 LINE",
"294 429 LINE",
"475 60 LINE",
"475 0 LINE"
);
},
{
closed = 1;
nodes = (
"448 175 LINE",
"448 235 LINE",
"142 235 LINE",
"142 175 LINE"
);
}
);
width = 776;
},
{
associatedMasterId = "0F8BB9BB-4444-4167-ACAA-B06A747D7052";
components = (
{
name = szeryf;
transform = "{-1, 0, 0, 1, 758, 0}";
},
{
name = szeryf;
transform = "{1, 0, 0, 1, 463, 0}";
},
{
name = szeryf;
transform = "{1, 0, 0, 1, -11, 0}";
},
{
name = szeryf_long;
transform = "{1, 0, 0, 1, -46, 0}";
}
);
layerId = "F81104AE-102E-44C0-A55D-5A8A05F3E98C";
name = "Regular Jun 18 16, 15:19";
paths = (
{
closed = 1;
nodes = (
"144 0 LINE",
"144 60 LINE",
"350 540 LINE",
"370 730 LINE",
"367 730 LINE",
"80 60 LINE",
"80 0 LINE"
);
},
{
closed = 1;
nodes = (
"373 730 LINE",
"370 730 LINE",
"350 540 LINE",
"554 60 LINE",
"554 0 LINE",
"695 0 LINE"
);
},
{
closed = 1;
nodes = (
"201 265 LINE",
"517 265 LINE",
"517 315 LINE",
"201 315 LINE"
);
}
);
width = 736;
},
{
associatedMasterId = "0F8BB9BB-4444-4167-ACAA-B06A747D7052";
components = (
{
name = szeryf;
transform = "{-1, 0, 0, 1, 718, 0}";
},
{
name = szeryf;
transform = "{1, 0, 0, 1, 423, 0}";
},
{
name = szeryf_long;
transform = "{1, 0, 0, 1, -86, 0}";
}
);
layerId = "F1CBD554-D938-4E4B-8BF4-5EE1D82E1171";
name = "Regular Jun 18 16, 15:53";
paths = (
{
closed = 1;
nodes = (
"104 0 LINE",
"104 60 LINE",
"310 540 LINE",
"330 730 LINE",
"327 730 LINE",
"15 0 LINE"
);
},
{
closed = 1;
nodes = (
"333 730 LINE",
"330 730 LINE",
"310 540 LINE",
"514 60 LINE",
"514 0 LINE",
"655 0 LINE"
);
},
{
closed = 1;
nodes = (
"161 265 LINE",
"477 265 LINE",
"477 315 LINE",
"161 315 LINE"
);
}
);
width = 696;
},
{
anchors = (
{
name = bottom;
position = "{368, 0}";
},
{
name = ogonek;
position = "{609, 0}";
},
{
name = top;
position = "{358, 700}";
}
);
components = (
{
name = com_skos_szer;
transform = "{-1, 0, 0, 1, 810, 0}";
},
{
name = szeryf;
transform = "{1, 0, 0, 1, 424, 0}";
},
{
name = szeryf_long;
transform = "{1, 0, 0, 1, -98, 0}";
}
);
layerId = "D94A17C2-4593-4D11-9DD5-BACEC39F5EAE";
paths = (
{
closed = 1;
nodes = (
"87 0 LINE",
"87 15 LINE",
"356 685 LINE",
"356 730 LINE",
"353 730 LINE",
"60 0 LINE"
);
},
{
closed = 1;
nodes = (
"637 0 LINE",
"359 730 LINE",
"356 730 LINE",
"356 685 LINE",
"609 15 LINE",
"609 0 LINE"
);
},
{
closed = 1;
nodes = (
"508 285 LINE",
"508 303 LINE",
"190 303 LINE",
"190 285 LINE"
);
}
);
width = 715;
}
);
leftKerningGroup = A;
rightKerningGroup = A;
unicode = 0041;
},
{
glyphname = Aogonek;
lastChange = "2016-10-11 12:20:32 +0000";
layers = (
{
anchors = (
{
name = _ogonek;
position = "{609, 0}";
},
{
name = bottom;
position = "{368, 0}";
},
{
name = ogonek;
position = "{609, 0}";
},
{
name = top;
position = "{358, 700}";
}
);
components = (
{
name = com_skos_szer;
transform = "{-1, 0, 0, 1, 810, 0}";
},
{
name = szeryf_long;
transform = "{1, 0, 0, 1, -98, 0}";
}
);
layerId = "D94A17C2-4593-4D11-9DD5-BACEC39F5EAE";
paths = (
{
closed = 1;
nodes = (
"637 0 LINE",
"359 730 LINE",
"356 730 LINE",
"356 685 LINE",
"610 13 LINE",
"615 0 LINE"
);
},
{
closed = 1;
nodes = (
"612 -240 OFFCURVE",
"636 -218 OFFCURVE",
"659 -193 CURVE",
"654 -188 LINE",
"628 -210 OFFCURVE",
"602 -223 OFFCURVE",
"577 -223 CURVE SMOOTH",
"535 -223 OFFCURVE",
"507 -187 OFFCURVE",
"507 -144 CURVE SMOOTH",
"507 -98 OFFCURVE",
"540 -50 OFFCURVE",
"615 0 CURVE",
"610 13 LINE",
"544 -27 OFFCURVE",
"489 -87 OFFCURVE",
"489 -147 CURVE SMOOTH",
"489 -194 OFFCURVE",
"522 -240 OFFCURVE",
"575 -240 CURVE SMOOTH"
);
},
{
closed = 1;
nodes = (
"87 0 LINE",
"87 15 LINE",
"356 685 LINE",
"356 730 LINE",
"353 730 LINE",
"60 0 LINE"
);
},
{
closed = 1;
nodes = (
"508 285 LINE",
"508 303 LINE",
"190 303 LINE",
"190 285 LINE"
);
}
);
width = 715;
},
{
anchors = (
{
name = _ogonek;
position = "{542, 0}";
},
{
name = bottom;
position = "{358, 0}";
},
{
name = ogonek;
position = "{612, 0}";
},
{
name = top;
position = "{348, 700}";
}
);
components = (
{
name = com_skos_szer;
transform = "{-1, 0, 0, 1, 728, 0}";
},
{
name = szeryf_long;
transform = "{1, 0, 0, 1, -67, 0}";
}
);
layerId = "0F8BB9BB-4444-4167-ACAA-B06A747D7052";
paths = (
{
closed = 1;
nodes = (
"666 0 LINE",
"353 730 LINE",
"350 730 LINE",
"330 540 LINE",
"541 43 LINE",
"544 0 LINE"
);
},
{
closed = 1;
nodes = (
"551 -250 OFFCURVE",
"583 -207 OFFCURVE",
"595 -167 CURVE",
"590 -162 LINE",
"567 -178 OFFCURVE",
"548 -185 OFFCURVE",
"525 -185 CURVE SMOOTH",
"491 -185 OFFCURVE",
"470 -170 OFFCURVE",
"470 -122 CURVE SMOOTH",
"470 -83 OFFCURVE",
"484 -38 OFFCURVE",
"544 0 CURVE",
"541 43 LINE",
"423 -21 OFFCURVE",
"395 -94 OFFCURVE",
"395 -147 CURVE SMOOTH",
"395 -207 OFFCURVE",
"430 -250 OFFCURVE",
"491 -250 CURVE SMOOTH"
);
},
{
closed = 1;
nodes = (
"123 0 LINE",
"123 60 LINE",
"330 540 LINE",
"350 730 LINE",
"347 730 LINE",
"35 0 LINE"
);
},
{
closed = 1;
nodes = (
"497 265 LINE",
"497 315 LINE",
"181 315 LINE",
"181 265 LINE"
);
}
);
width = 727;
},
{
anchors = (
{
name = _ogonek;
position = "{524, 0}";
},
{
name = bottom;
position = "{396, 0}";
},
{
name = ogonek;
position = "{524, 0}";
},
{
name = top;
position = "{386, 700}";
}
);
components = (
{
name = com_skos_szer;
transform = "{-1, 0, 0, 1, 831, 0}";
},
{
name = szeryf_long;
transform = "{1, 0, 0, 1, -65, 0}";
}
);
layerId = "F548E3CC-813E-497B-8EED-D24596D10F9A";
paths = (
{
closed = 1;
nodes = (
"786 0 LINE",
"394 760 LINE",
"391 760 LINE",
"294 429 LINE",
"488 36 LINE",
"524 0 LINE"
);
},
{
closed = 1;
nodes = (
"512 -250 OFFCURVE",
"568 -214 OFFCURVE",
"592 -131 CURVE",
"587 -126 LINE",
"570 -140 OFFCURVE",
"552 -145 OFFCURVE",
"535 -145 CURVE SMOOTH",
"509 -145 OFFCURVE",
"487 -134 OFFCURVE",
"487 -89 CURVE SMOOTH",
"487 -60 OFFCURVE",
"496 -31 OFFCURVE",
"524 0 CURVE",
"488 36 LINE",
"379 -14 OFFCURVE",
"342 -86 OFFCURVE",
"342 -147 CURVE SMOOTH",
"342 -204 OFFCURVE",
"388 -250 OFFCURVE",
"454 -250 CURVE SMOOTH"
);
},
{
closed = 1;
nodes = (
"124 0 LINE",
"124 90 LINE",
"294 429 LINE",
"391 760 LINE",
"388 760 LINE",
"10 0 LINE"
);
},
{
closed = 1;
nodes = (
"448 175 LINE",
"448 235 LINE",
"142 235 LINE",
"142 175 LINE"
);
}
);
width = 806;
}
);
leftKerningGroup = A;
rightKerningGroup = A;
unicode = 0104;
},
{
glyphname = AE;
lastChange = "2016-09-22 14:21:10 +0000";
layers = (
{
components = (
{
name = szeryf_pion_E;
transform = "{1, 0, 0, 1, 820, 33}";
},
{
name = szeryf_pion_E;
transform = "{1, 0, 0, -1, 850, 668}";
},
{
name = szeryf_long;
transform = "{1, 0, 0, 1, -92, 0}";
},
{
name = szeryf_long;
transform = "{-1, 0, 0, -1, 685, 700}";
}
);
layerId = "D94A17C2-4593-4D11-9DD5-BACEC39F5EAE";
paths = (
{
closed = 1;
nodes = (
"920 0 LINE",
"920 18 LINE",
"520 18 LINE",
"520 0 LINE"
);
},
{
closed = 1;
nodes = (
"520 0 LINE",
"520 700 LINE",
"500 700 LINE",
"500 0 LINE"
);
},
{
closed = 1;
nodes = (
"890 682 LINE",
"890 700 LINE",
"520 700 LINE",
"520 682 LINE"
);
},
{
closed = 1;
nodes = (
"511 373 LINE",
"511 355 LINE",
"792 355 LINE",
"807 268 LINE",
"807 460 LINE",
"792 373 LINE"
);
},
{
closed = 1;
nodes = (
"93 0 LINE",
"93 15 LINE",
"500 665 LINE",
"500 700 LINE",
"60 0 LINE"
);
},
{
closed = 1;
nodes = (
"508 285 LINE",
"508 303 LINE",
"252 303 LINE",
"252 285 LINE"
);
}
);
width = 975;
},
{
components = (
{
name = szeryf_pion_E;
transform = "{1, 0, 0, 1, 755, 0}";
},
{
name = szeryf_pion_E;
transform = "{1, 0, 0, -1, 785, 700}";
},
{
name = szeryf_long;
transform = "{1, 0, 0, 1, -43, 0}";
},
{
name = szeryf_long;
transform = "{-1, 0, 0, -1, 661, 700}";
}
);
layerId = "0F8BB9BB-4444-4167-ACAA-B06A747D7052";
paths = (
{
closed = 1;
nodes = (
"932 0 LINE",
"932 50 LINE",
"572 50 LINE",
"572 0 LINE"
);
},
{
closed = 1;
nodes = (
"572 0 LINE",
"572 700 LINE",
"472 700 LINE",
"472 0 LINE"
);
},
{
closed = 1;
nodes = (
"902 650 LINE",
"902 700 LINE",
"572 700 LINE",
"572 650 LINE"
);
},
{
closed = 1;
nodes = (
"563 385 LINE",
"563 335 LINE",
"751 335 LINE",
"819 245 LINE",
"819 475 LINE",
"751 385 LINE"
);
},
{
closed = 1;
nodes = (
"147 0 LINE",
"147 60 LINE",
"473 591 LINE",
"473 700 LINE",
"35 0 LINE"
);
},
{
closed = 1;
nodes = (
"527 265 LINE",
"527 315 LINE",
"251 315 LINE",
"251 265 LINE"
);
}
);
width = 977;
},
{
components = (
{
name = szeryf_pion_E;
transform = "{1, 0, 0, 1, 840, -10}";
},
{
name = szeryf_pion_E;
transform = "{1, 0, 0, -1, 870, 710}";
},
{
name = szeryf_long;
transform = "{1, 0, 0, 1, -45, 0}";
},
{
name = szeryf_long;
transform = "{-1, 0, 0, -1, 637, 700}";
}
);
layerId = "F548E3CC-813E-497B-8EED-D24596D10F9A";
paths = (
{
closed = 1;
nodes = (
"1008 0 LINE",
"1008 60 LINE",
"708 60 LINE",
"708 0 LINE"
);
},
{
closed = 1;
nodes = (
"708 0 LINE",
"708 700 LINE",
"448 700 LINE",
"448 0 LINE"
);
},
{
closed = 1;
nodes = (
"978 640 LINE",
"978 700 LINE",
"708 700 LINE",
"708 640 LINE"
);
},
{
closed = 1;
nodes = (
"699 380 LINE",
"699 320 LINE",
"794 320 LINE",
"895 216 LINE",
"895 494 LINE",
"794 380 LINE"
);
},
{
closed = 1;
nodes = (
"144 0 LINE",
"144 90 LINE",
"448 556 LINE",
"448 670 LINE",
"10 0 LINE"
);
},
{
closed = 1;
nodes = (
"448 235 LINE",
"448 295 LINE",
"222 295 LINE",
"222 235 LINE"
);
}
);
width = 1038;
},
{
anchors = (
{
name = bottom;
position = "{368, 0}";
},
{
name = ogonek;
position = "{609, 0}";
},
{
name = top;
position = "{358, 700}";
},
{
name = topleft;
position = "{735, 700}";
}
);
associatedMasterId = "D94A17C2-4593-4D11-9DD5-BACEC39F5EAE";
components = (
{
name = szeryf_long;
transform = "{1, 0, 0, 1, -92, 0}";
},
{
name = szeryf;
transform = "{1, 0, 0, 1, 315, 0}";
},
{
name = szeryf_pion_E;
transform = "{1, 0, 0, 1, 820, 33}";
},
{
name = szeryf_pion_E;
transform = "{1, 0, 0, -1, 850, 668}";
},
{
name = szeryf_long;
transform = "{-1, 0, 0, -1, 685, 700}";
}
);
layerId = "792BD7AD-3348-4D95-9FC9-EF640E3E8884";
name = "Light Jul 29 16, 16:44";
paths = (
{
closed = 1;
nodes = (
"93 0 LINE",
"93 15 LINE",
"500 665 LINE",
"500 700 LINE",
"60 0 LINE"
);
},
{
closed = 1;
nodes = (
"508 285 LINE",
"508 303 LINE",
"252 303 LINE",
"252 285 LINE"
);
},
{
closed = 1;
nodes = (
"920 0 LINE",
"920 18 LINE",
"520 18 LINE",
"520 0 LINE"
);
},
{
closed = 1;
nodes = (
"520 0 LINE",
"520 700 LINE",
"500 700 LINE",
"500 0 LINE"
);
},
{
closed = 1;
nodes = (
"807 355 LINE",
"807 373 LINE",
"511 373 LINE",
"511 355 LINE"
);
},
{
closed = 1;
nodes = (
"807 355 LINE",
"792 355 LINE",
"807 268 LINE"
);
},
{
closed = 1;
nodes = (
"807 373 LINE",
"807 460 LINE",
"792 373 LINE"
);
},
{
closed = 1;
nodes = (
"890 682 LINE",
"890 700 LINE",
"520 700 LINE",
"520 682 LINE"
);
}
);
width = 955;
},
{
anchors = (
{
name = bottom;
position = "{388, 0}";
},
{
name = ogonek;
position = "{642, 0}";
},
{
name = top;
position = "{378, 700}";
},
{
name = topleft;
position = "{777, 700}";
}
);
associatedMasterId = "0F8BB9BB-4444-4167-ACAA-B06A747D7052";
components = (
{
name = szeryf_long;
transform = "{1, 0, 0, 1, -43, 0}";
},
{
name = szeryf;
transform = "{1, 0, 0, 1, 381, 0}";
},
{
name = szeryf_pion_E;
transform = "{1, 0, 0, 1, 755, 0}";
},
{
name = szeryf_pion_E;
transform = "{1, 0, 0, -1, 785, 700}";
},
{
name = szeryf_long;
transform = "{-1, 0, 0, -1, 661, 700}";
}
);
layerId = "A940532E-9FC2-4099-A15B-A6E0612811F6";
name = "Regular Jul 29 16, 16:44";
paths = (
{
closed = 1;
nodes = (
"147 0 LINE",
"147 60 LINE",
"473 591 LINE",
"473 700 LINE",
"35 0 LINE"
);
},
{
closed = 1;
nodes = (
"527 265 LINE",
"527 315 LINE",
"251 315 LINE",
"251 265 LINE"
);
},
{
closed = 1;
nodes = (
"932 0 LINE",
"932 50 LINE",
"572 50 LINE",
"572 0 LINE"
);
},
{
closed = 1;
nodes = (
"572 0 LINE",
"572 700 LINE",
"472 700 LINE",
"472 0 LINE"
);
},
{
closed = 1;
nodes = (
"819 335 LINE",
"819 385 LINE",
"563 385 LINE",
"563 335 LINE"
);
},
{
closed = 1;
nodes = (
"819 335 LINE",
"751 335 LINE",
"819 245 LINE"
);
},
{
closed = 1;
nodes = (
"819 385 LINE",
"819 475 LINE",
"751 385 LINE"
);
},
{
closed = 1;
nodes = (
"902 650 LINE",
"902 700 LINE",
"572 700 LINE",
"572 650 LINE"
);
}
);
width = 987;
},
{
anchors = (
{
name = bottom;
position = "{396, 0}";
},
{
name = ogonek;
position = "{524, 0}";
},
{
name = top;
position = "{386, 700}";
}
);
associatedMasterId = "F548E3CC-813E-497B-8EED-D24596D10F9A";
components = (
{
name = szeryf_long;
transform = "{1, 0, 0, 1, -45, 0}";
},
{
name = szeryf;
transform = "{1, 0, 0, 1, 368, 0}";
},
{
name = szeryf_pion_E;
transform = "{1, 0, 0, 1, 840, -10}";
},
{
name = szeryf_pion_E;
transform = "{1, 0, 0, -1, 870, 710}";
},
{
name = szeryf_long;
transform = "{-1, 0, 0, -1, 637, 700}";
}
);
layerId = "F93AC423-0F4F-433B-A3F3-9D4A83F1B39B";
name = "Bold Jul 29 16, 16:44";
paths = (
{
closed = 1;
nodes = (
"144 0 LINE",
"144 90 LINE",
"448 556 LINE",
"448 670 LINE",
"10 0 LINE"
);
},
{
closed = 1;
nodes = (
"448 235 LINE",
"448 295 LINE",
"222 295 LINE",
"222 235 LINE"
);
},
{
closed = 1;
nodes = (
"1008 0 LINE",
"1008 60 LINE",
"708 60 LINE",
"708 0 LINE"
);
},
{
closed = 1;
nodes = (
"708 0 LINE",
"708 700 LINE",
"448 700 LINE",
"448 0 LINE"
);
},
{
closed = 1;
nodes = (
"895 320 LINE",
"794 320 LINE",
"895 216 LINE"
);
},
{
closed = 1;
nodes = (
"895 320 LINE",
"895 380 LINE",
"699 380 LINE",
"699 320 LINE"
);
},
{
closed = 1;
nodes = (
"895 380 LINE",
"895 494 LINE",
"794 380 LINE"
);
},
{
closed = 1;
nodes = (
"978 640 LINE",
"978 700 LINE",
"708 700 LINE",
"708 640 LINE"
);
}
);
width = 1058;
}
);
leftKerningGroup = A;
leftMetricsKey = "=A";
rightMetricsKey = "=E";
unicode = 00C6;
},
{
glyphname = B;
lastChange = "2016-10-25 08:23:05 +0000";
layers = (
{
anchors = (
{
name = bottom;
position = "{333, 0}";
},
{
name = top;
position = "{333, 700}";
}
);
components = (
{
name = szeryf;
transform = "{1, 0, 0, 1, 24, 0}";
},
{
name = szeryf;
transform = "{1, 0, 0, -1, 24, 700}";
}
);
layerId = "0F8BB9BB-4444-4167-ACAA-B06A747D7052";
paths = (
{
closed = 1;
nodes = (
"215 700 LINE",
"215 650 LINE",
"332 650 LINE",
"332 700 LINE"
);
},
{
closed = 1;
nodes = (
"115 0 LINE",
"215 0 LINE",
"215 700 LINE",
"115 700 LINE"
);
},
{
closed = 1;
nodes = (
"590 633 OFFCURVE",
"491 700 OFFCURVE",
"332 700 CURVE",
"332 650 LINE",
"441 650 OFFCURVE",
"485 591 OFFCURVE",
"485 515 CURVE",
"590 521 LINE"
);
},
{
closed = 1;
nodes = (
"485 515 LINE",
"485 444 OFFCURVE",
"441 385 OFFCURVE",
"332 385 CURVE",
"352 345 LINE",
"491 345 OFFCURVE",
"590 414 OFFCURVE",
"590 521 CURVE"
);
},
{
closed = 1;
nodes = (
"205 385 LINE",
"205 335 LINE",
"367 335 LINE",
"367 385 LINE"
);
},
{
closed = 1;
nodes = (
"630 321 OFFCURVE",
"516 375 OFFCURVE",
"357 375 CURVE",
"337 335 LINE",
"466 335 OFFCURVE",
"520 279 OFFCURVE",
"520 190 CURVE",
"630 196 LINE"
);
},
{
closed = 1;
nodes = (
"337 50 LINE",
"215 50 LINE",
"215 0 LINE",
"337 0 LINE"
);
},
{
closed = 1;
nodes = (
"520 190 LINE",
"520 106 OFFCURVE",
"466 50 OFFCURVE",
"337 50 CURVE",
"337 0 LINE",
"516 0 OFFCURVE",
"630 76 OFFCURVE",
"630 196 CURVE"
);
}
);
width = 675;
},
{
anchors = (
{
name = bottom;
position = "{390, 0}";
},
{
name = top;
position = "{390, 700}";
}
);
components = (
{
name = szeryf;
transform = "{1, 0, 0, 1, -15, 0}";
},
{
name = szeryf;
transform = "{1, 0, 0, -1, -15, 700}";
}
);
layerId = "F548E3CC-813E-497B-8EED-D24596D10F9A";
paths = (
{
closed = 1;
nodes = (
"325 700 LINE",
"325 640 LINE",
"382 640 LINE",
"472 700 LINE"
);
},
{
closed = 1;
nodes = (
"65 0 LINE",
"325 0 LINE",
"325 700 LINE",
"65 700 LINE"
);
},
{
closed = 1;
nodes = (
"730 632 OFFCURVE",
"631 700 OFFCURVE",
"472 700 CURVE",
"382 640 LINE",
"451 640 OFFCURVE",
"480 581 OFFCURVE",
"480 515 CURVE",
"730 530 LINE"
);
},
{
closed = 1;
nodes = (
"480 515 LINE",
"480 444 OFFCURVE",
"451 385 OFFCURVE",
"382 385 CURVE",
"442 340 LINE",
"631 340 OFFCURVE",
"730 408 OFFCURVE",
"730 530 CURVE"
);
},
{
closed = 1;
nodes = (
"325 385 LINE",
"325 325 LINE",
"442 325 LINE",
"442 385 LINE"
);
},
{
closed = 1;
nodes = (
"760 315 OFFCURVE",
"651 370 OFFCURVE",
"442 370 CURVE",
"372 325 LINE",
"461 325 OFFCURVE",
"500 269 OFFCURVE",
"500 190 CURVE",
"760 195 LINE"
);
},
{
closed = 1;
nodes = (
"372 60 LINE",
"325 60 LINE",
"325 0 LINE",
"472 0 LINE"
);
},
{
closed = 1;
nodes = (
"500 190 LINE",
"500 116 OFFCURVE",
"461 60 OFFCURVE",
"372 60 CURVE",
"472 0 LINE",
"651 0 OFFCURVE",
"760 75 OFFCURVE",
"760 195 CURVE"
);
}
);
width = 780;
},
{
anchors = (
{
name = bottom;
position = "{313, 0}";
},
{
name = top;
position = "{313, 700}";
}
);
components = (
{
name = szeryf;
transform = "{1, 0, 0, 1, -70, 0}";
},
{
name = szeryf;
transform = "{1, 0, 0, -1, -70, 700}";
}
);
layerId = "D94A17C2-4593-4D11-9DD5-BACEC39F5EAE";
paths = (
{
closed = 1;
nodes = (
"135 700 LINE",
"135 682 LINE",
"312 682 LINE",
"322 700 LINE"
);
},
{
closed = 1;
nodes = (
"115 0 LINE",
"135 0 LINE",
"135 700 LINE",
"115 700 LINE"
);
},
{
closed = 1;
nodes = (
"550 627 OFFCURVE",
"471 700 OFFCURVE",
"322 700 CURVE",
"312 682 LINE",
"461 682 OFFCURVE",
"530 617 OFFCURVE",
"530 525 CURVE",
"550 525 LINE"
);
},
{
closed = 1;
nodes = (
"530 525 LINE",
"530 433 OFFCURVE",
"461 367 OFFCURVE",
"312 367 CURVE",
"332 357 LINE",
"471 357 OFFCURVE",
"550 423 OFFCURVE",
"550 525 CURVE"
);
},
{
closed = 1;
nodes = (
"135 367 LINE",
"135 350 LINE",
"342 350 LINE",
"342 367 LINE"
);
},
{
closed = 1;
nodes = (
"580 305 OFFCURVE",
"471 362 OFFCURVE",
"332 362 CURVE",
"312 350 LINE",
"461 350 OFFCURVE",
"560 295 OFFCURVE",
"560 185 CURVE",
"580 185 LINE"
);
},
{
closed = 1;
nodes = (
"312 18 LINE",
"135 18 LINE",
"135 0 LINE",
"322 0 LINE"
);
},
{
closed = 1;
nodes = (
"560 185 LINE",
"560 75 OFFCURVE",
"481 18 OFFCURVE",
"312 18 CURVE",
"322 0 LINE",
"491 0 OFFCURVE",
"580 65 OFFCURVE",
"580 185 CURVE"
);
}
);
width = 635;
}
);
leftMetricsKey = "=H";
rightKerningGroup = O;
rightMetricsKey = "=o";
unicode = 0042;
},
{
glyphname = C;
lastChange = "2016-10-11 12:49:19 +0000";
layers = (
{
anchors = (
{
name = bottom;
position = "{415, 0}";
},
{
name = top;
position = "{415, 700}";
}
);
components = (
{
name = szer_pion_C;
transform = "{1.1, 0, 0, 1.1, 488, -65}";
}
);
guideLines = (
{
angle = 23.6294;
position = "{650, 710}";
}
);
layerId = "0F8BB9BB-4444-4167-ACAA-B06A747D7052";
paths = (
{
closed = 1;
nodes = (
"496 660 OFFCURVE",
"570 643 OFFCURVE",
"650 587 CURVE",
"650 659 LINE",
"584 694 OFFCURVE",
"501 710 OFFCURVE",
"433 710 CURVE SMOOTH",
"232 710 OFFCURVE",
"50 574 OFFCURVE",
"50 346 CURVE SMOOTH",
"50 125 OFFCURVE",
"221 -10 OFFCURVE",
"397 -10 CURVE SMOOTH",
"492 -10 OFFCURVE",
"607 29 OFFCURVE",
"670 173 CURVE",
"665 178 LINE",
"585 98 OFFCURVE",
"493 70 OFFCURVE",
"417 70 CURVE SMOOTH",
"257 70 OFFCURVE",
"155 194 OFFCURVE",
"155 370 CURVE SMOOTH",
"155 559 OFFCURVE",
"272 660 OFFCURVE",
"431 660 CURVE SMOOTH"
);
},
{
closed = 1;
nodes = (
"650 710 LINE",
"520 650 LINE",
"650 650 LINE"
);
}
);
width = 710;
},
{
anchors = (
{
name = bottom;
position = "{413, 0}";
},
{
name = top;
position = "{413, 700}";
}
);
components = (
{
name = szer_pion_C;
transform = "{1.1, 0, 0, 1.1, 498, -66}";
}
);
guideLines = (
{
angle = 23.6294;
position = "{110, 455}";
}
);
layerId = "F548E3CC-813E-497B-8EED-D24596D10F9A";
paths = (
{
closed = 1;
nodes = (
"526 650 OFFCURVE",
"590 633 OFFCURVE",
"670 577 CURVE",
"670 659 LINE",
"606 694 OFFCURVE",
"520 710 OFFCURVE",
"446 710 CURVE SMOOTH",
"232 710 OFFCURVE",
"25 578 OFFCURVE",
"25 337 CURVE SMOOTH",
"25 132 OFFCURVE",
"191 -10 OFFCURVE",
"385 -10 CURVE SMOOTH",
"532 -10 OFFCURVE",
"646 66 OFFCURVE",
"700 218 CURVE",
"695 223 LINE",
"622 171 OFFCURVE",
"555 160 OFFCURVE",
"505 160 CURVE SMOOTH",
"391 160 OFFCURVE",
"300 228 OFFCURVE",
"300 396 CURVE SMOOTH",
"300 559 OFFCURVE",
"377 650 OFFCURVE",
"481 650 CURVE SMOOTH"
);
},
{
closed = 1;
nodes = (
"670 700 LINE",
"536 649 LINE",
"670 649 LINE"
);
}
);
width = 715;
},
{
anchors = (
{
name = bottom;
position = "{400, 0}";
},
{
name = top;
position = "{400, 700}";
}
);
components = (
{
name = szer_pion_C;
transform = "{1, 0, 0, 1, 548, 1}";
}
);
layerId = "D94A17C2-4593-4D11-9DD5-BACEC39F5EAE";
paths = (
{
closed = 1;
nodes = (
"470 687 OFFCURVE",
"550 675 OFFCURVE",
"620 634 CURVE",
"620 654 LINE",
"554 689 OFFCURVE",
"480 705 OFFCURVE",
"412 705 CURVE SMOOTH",
"212 705 OFFCURVE",
"60 570 OFFCURVE",
"60 348 CURVE SMOOTH",
"60 126 OFFCURVE",
"212 -5 OFFCURVE",
"390 -5 CURVE SMOOTH",
"481 -5 OFFCURVE",
"579 31 OFFCURVE",
"645 121 CURVE",
"640 126 LINE",
"572 48 OFFCURVE",
"476 15 OFFCURVE",
"391 15 CURVE SMOOTH",
"222 15 OFFCURVE",
"80 142 OFFCURVE",
"80 349 CURVE SMOOTH",
"80 555 OFFCURVE",
"221 687 OFFCURVE",
"413 687 CURVE SMOOTH"
);
},
{
closed = 1;
nodes = (
"620 709 LINE",
"598 651 LINE",
"620 651 LINE"
);
}
);
width = 695;
},
{
associatedMasterId = "F548E3CC-813E-497B-8EED-D24596D10F9A";
components = (
{
name = szeryf;
transform = "{0, 6.1154, -2.3577, 0, 664, 170}";
},
{
name = szeryf;
transform = "{0, -6.1154, -2.3577, 0, 664, 530}";
}
);
layerId = "37120EF8-841E-4C53-A3BE-63E20BFD1EE6";
name = "Bold Jul 2 16, 16:36";
paths = (
{
closed = 1;
nodes = (
"300 350 LINE",
"300 561 OFFCURVE",
"379 649 OFFCURVE",
"488 649 CURVE SMOOTH",
"541 649 OFFCURVE",
"584 633 OFFCURVE",
"664 577 CURVE",
"664 659 LINE",
"598 694 OFFCURVE",
"515 710 OFFCURVE",
"433 710 CURVE SMOOTH",
"224 710 OFFCURVE",
"30 597 OFFCURVE",
"30 340 CURVE"
);
},
{
closed = 1;
nodes = (
"515 -10 OFFCURVE",
"598 6 OFFCURVE",
"664 41 CURVE",
"664 123 LINE",
"584 67 OFFCURVE",
"541 51 OFFCURVE",
"488 51 CURVE SMOOTH",
"379 51 OFFCURVE",
"300 159 OFFCURVE",
"300 350 CURVE",
"30 340 LINE",
"30 103 OFFCURVE",
"224 -10 OFFCURVE",
"433 -10 CURVE SMOOTH"
);
}
);
width = 694;
},
{
anchors = (
{
name = bottom;
position = "{428, 0}";
},
{
name = top;
position = "{428, 700}";
}
);
associatedMasterId = "F548E3CC-813E-497B-8EED-D24596D10F9A";
components = (
{
name = szer_pion_C;
transform = "{1.1, 0, 0, 1.1, 513, -66}";
}
);
layerId = "46FC8FC7-E729-48ED-AECC-1EB23E7B49D8";
name = "Bold Jul 24 16, 16:42";
paths = (
{
closed = 1;
nodes = (
"549 650 OFFCURVE",
"605 633 OFFCURVE",
"685 577 CURVE",
"685 659 LINE",
"621 694 OFFCURVE",
"535 710 OFFCURVE",
"458 710 CURVE SMOOTH",
"237 710 OFFCURVE",
"30 576 OFFCURVE",
"30 340 CURVE SMOOTH",
"30 122 OFFCURVE",
"207 -10 OFFCURVE",
"402 -10 CURVE SMOOTH",
"543 -10 OFFCURVE",
"658 59 OFFCURVE",
"715 218 CURVE",
"710 223 LINE",
"637 171 OFFCURVE",
"571 160 OFFCURVE",
"519 160 CURVE SMOOTH",
"399 160 OFFCURVE",
"290 219 OFFCURVE",
"290 393 CURVE SMOOTH",
"290 551 OFFCURVE",
"381 650 OFFCURVE",
"500 650 CURVE SMOOTH"
);
},
{
closed = 1;
nodes = (
"685 700 LINE",
"565 649 LINE",
"685 649 LINE"
);
}
);
width = 745;
},
{
anchors = (
{
name = bottom;
position = "{428, 0}";
},
{
name = top;
position = "{428, 700}";
}
);
associatedMasterId = "F548E3CC-813E-497B-8EED-D24596D10F9A";
components = (
{
name = szer_pion_C;
transform = "{1, 0, 0, 1, 529, -1}";
},
{
name = szer_pion_C;
transform = "{1, 0, 0, -1, 529, 701}";
}
);
layerId = "84AE4D9B-2CF4-44AF-B326-83920D2F9021";
name = OLD;
paths = (
{
closed = 1;
nodes = (
"542 650 OFFCURVE",
"605 633 OFFCURVE",
"685 577 CURVE",
"685 659 LINE",
"621 694 OFFCURVE",
"536 710 OFFCURVE",
"456 710 CURVE SMOOTH",
"238 710 OFFCURVE",
"30 591 OFFCURVE",
"30 340 CURVE SMOOTH",
"30 88 OFFCURVE",
"240 -10 OFFCURVE",
"453 -10 CURVE SMOOTH",
"539 -10 OFFCURVE",
"621 6 OFFCURVE",
"685 41 CURVE",
"685 133 LINE",
"610 80 OFFCURVE",
"553 60 OFFCURVE",
"494 60 CURVE SMOOTH",
"378 60 OFFCURVE",
"300 173 OFFCURVE",
"300 374 CURVE SMOOTH",
"300 577 OFFCURVE",
"389 650 OFFCURVE",
"492 650 CURVE SMOOTH"
);
},
{
closed = 1;
nodes = (
"685 700 LINE",
"565 649 LINE",
"685 649 LINE"
);
}
);
width = 715;
}
);
leftKerningGroup = O;
leftMetricsKey = "=O";
rightKerningGroup = S;
unicode = 0043;
},
{
glyphname = D;
lastChange = "2016-10-10 21:31:07 +0000";
layers = (
{
anchors = (
{
name = bottom;
position = "{370, 0}";
},
{
name = center;
position = "{390, 370}";
},
{
name = top;
position = "{370, 700}";
}
);
components = (
{
name = szeryf;
transform = "{1, 0, 0, 1, 24, 0}";
},
{
name = szeryf;
transform = "{1, 0, 0, -1, 24, 700}";
}
);
layerId = "0F8BB9BB-4444-4167-ACAA-B06A747D7052";
paths = (
{
closed = 1;
nodes = (
"115 0 LINE",
"215 0 LINE",
"215 700 LINE",
"115 700 LINE"
);
},
{
closed = 1;
nodes = (
"215 700 LINE",
"215 650 LINE",
"367 650 LINE SMOOTH",
"516 650 OFFCURVE",
"615 556 OFFCURVE",
"615 355 CURVE",
"725 365 LINE",
"725 602 OFFCURVE",
"556 700 OFFCURVE",
"377 700 CURVE SMOOTH"
);
},
{
closed = 1;
nodes = (
"615 164 OFFCURVE",
"516 50 OFFCURVE",
"367 50 CURVE SMOOTH",
"215 50 LINE",
"215 0 LINE",
"377 0 LINE SMOOTH",
"556 0 OFFCURVE",
"725 138 OFFCURVE",
"725 365 CURVE",
"615 355 LINE"
);
}
);
width = 775;
},
{
anchors = (
{
name = bottom;
position = "{428, 0}";
},
{
name = center;
position = "{428, 365}";
},
{
name = top;
position = "{428, 700}";
}
);
components = (
{
name = szeryf;
transform = "{1, 0, 0, 1, -15, 0}";
},
{
name = szeryf;
transform = "{1, 0, 0, -1, -15, 700}";
}
);
layerId = "F548E3CC-813E-497B-8EED-D24596D10F9A";
paths = (
{
closed = 1;
nodes = (
"65 0 LINE",
"325 0 LINE",
"325 700 LINE",
"65 700 LINE"
);
},
{
closed = 1;
nodes = (
"325 700 LINE",
"325 640 LINE",
"397 640 LINE SMOOTH",
"496 640 OFFCURVE",
"555 551 OFFCURVE",
"555 350 CURVE",
"825 370 LINE",
"825 607 OFFCURVE",
"646 700 OFFCURVE",
"427 700 CURVE SMOOTH"
);
},
{
closed = 1;
nodes = (
"555 159 OFFCURVE",
"496 60 OFFCURVE",
"397 60 CURVE SMOOTH",
"325 60 LINE",
"325 0 LINE",
"427 0 LINE SMOOTH",
"646 0 OFFCURVE",
"825 143 OFFCURVE",
"825 370 CURVE",
"555 350 LINE"
);
}
);
width = 850;
},
{
anchors = (
{
name = bottom;
position = "{350, 0}";
},
{
name = center;
position = "{370, 372}";
},
{
name = top;
position = "{350, 700}";
}
);
components = (
{
name = szeryf;
transform = "{1, 0, 0, 1, -70, 0}";
},
{
name = szeryf;
transform = "{1, 0, 0, -1, -70, 700}";
}
);
layerId = "D94A17C2-4593-4D11-9DD5-BACEC39F5EAE";
paths = (
{
closed = 1;
nodes = (
"115 0 LINE",
"135 0 LINE",
"135 700 LINE",
"115 700 LINE"
);
},
{
closed = 1;
nodes = (
"135 700 LINE",
"135 682 LINE",
"347 682 LINE SMOOTH",
"516 682 OFFCURVE",
"655 577 OFFCURVE",
"655 350 CURVE",
"675 352 LINE",
"675 589 OFFCURVE",
"526 700 OFFCURVE",
"347 700 CURVE SMOOTH"
);
},
{
closed = 1;
nodes = (
"655 133 OFFCURVE",
"516 20 OFFCURVE",
"347 20 CURVE SMOOTH",
"135 20 LINE",
"135 0 LINE",
"347 0 LINE SMOOTH",
"526 0 OFFCURVE",
"675 125 OFFCURVE",
"675 352 CURVE",
"655 350 LINE"
);
}
);
width = 735;
}
);
leftMetricsKey = "=H";
rightKerningGroup = O;
rightMetricsKey = "=O";
unicode = 0044;
},
{
glyphname = E;
lastChange = "2016-10-10 18:45:16 +0000";
layers = (
{
anchors = (
{
name = bottom;
position = "{310, 0}";
},
{
name = ogonek;
position = "{575, 0}";
},
{
name = top;
position = "{310, 700}";
},
{
name = topleft;
position = "{20, 700}";
}
);
components = (
{
name = szeryf;
transform = "{1, 0, 0, 1, 24, 0}";
},
{
name = szeryf;
transform = "{1, 0, 0, -1, 24, 700}";
},
{
name = szeryf_pion_E;
transform = "{1, 0, 0, 1, 398, 0}";
},
{
name = szeryf_pion_E;
transform = "{1, 0, 0, -1, 428, 700}";
}
);
guideLines = (
{
angle = 90;
position = "{525, 540}";
},
{
angle = 233.0591;
position = "{392, 395}";
}
);
layerId = "0F8BB9BB-4444-4167-ACAA-B06A747D7052";
paths = (
{
closed = 1;
nodes = (
"215 700 LINE",
"215 650 LINE",
"545 650 LINE",
"545 700 LINE"
);
},
{
closed = 1;
nodes = (
"115 0 LINE",
"215 0 LINE",
"215 700 LINE",
"115 700 LINE"
);
},
{
closed = 1;
nodes = (
"215 0 LINE",
"575 0 LINE",
"575 50 LINE",
"215 50 LINE"
);
},
{
closed = 1;
nodes = (
"206 385 LINE",
"206 335 LINE",
"394 335 LINE",
"462 245 LINE",
"462 475 LINE",
"394 385 LINE"
);
}
);
width = 620;
},
{
anchors = (
{
name = bottom;
position = "{338, 0}";
},
{
name = ogonek;
position = "{615, 0}";
},
{
name = top;
position = "{338, 700}";
},
{
name = topleft;
position = "{20, 700}";
}
);
components = (
{
name = szeryf;
transform = "{1, 0, 0, 1, -15, 0}";
},
{
name = szeryf;
transform = "{1, 0, 0, -1, -15, 700}";
},
{
name = szeryf_pion_E;
transform = "{1, 0, 0, 1, 457, -10}";
},
{
name = szeryf_pion_E;
transform = "{1, 0, 0, -1, 477, 710}";
}
);
guideLines = (
{
angle = 59.6013;
position = "{476, 432}";
}
);
layerId = "F548E3CC-813E-497B-8EED-D24596D10F9A";
paths = (
{
closed = 1;
nodes = (
"325 700 LINE",
"325 640 LINE",
"595 640 LINE",
"595 700 LINE"
);
},
{
closed = 1;
nodes = (
"65 0 LINE",
"325 0 LINE",
"325 700 LINE",
"65 700 LINE"
);
},
{
closed = 1;
nodes = (
"325 0 LINE",
"615 0 LINE",
"615 60 LINE",
"325 60 LINE"
);
},
{
closed = 1;
nodes = (
"316 390 LINE",
"316 330 LINE",
"411 330 LINE",
"512 236 LINE",
"512 494 LINE",
"411 390 LINE"
);
}
);
width = 645;
},
{
anchors = (
{
name = bottom;
position = "{290, 0}";
},
{
name = ogonek;
position = "{535, 0}";
},
{
name = top;
position = "{290, 700}";
},
{
name = topleft;
position = "{20, 700}";
}
);
components = (
{
name = szeryf;
transform = "{1, 0, 0, 1, -70, 0}";
},
{
name = szeryf;
transform = "{1, 0, 0, -1, -70, 700}";
},
{
name = szeryf_pion_E;
transform = "{1, 0, 0, 1, 435, 33}";
},
{
name = szeryf_pion_E;
transform = "{1, 0, 0, -1, 465, 668}";
}
);
guideLines = (
{
angle = 80.2996;
position = "{414, 413}";
}
);
layerId = "D94A17C2-4593-4D11-9DD5-BACEC39F5EAE";
paths = (
{
closed = 1;
nodes = (
"135 700 LINE",
"135 682 LINE",
"505 682 LINE",
"505 700 LINE"
);
},
{
closed = 1;
nodes = (
"115 0 LINE",
"135 0 LINE",
"135 700 LINE",
"115 700 LINE"
);
},
{
closed = 1;
nodes = (
"135 0 LINE",
"535 0 LINE",
"535 18 LINE",
"135 18 LINE"
);
},
{
closed = 1;
nodes = (
"126 373 LINE",
"126 355 LINE",
"407 355 LINE",
"422 268 LINE",
"422 460 LINE",
"407 373 LINE"
);
}
);
width = 590;
},
{
associatedMasterId = "0F8BB9BB-4444-4167-ACAA-B06A747D7052";
components = (
{
name = szeryf;
transform = "{1, 0, 0, 1, 34, 0}";
},
{
name = szeryf;
transform = "{1, 0, 0, -1, 34, 700}";
},
{
name = szeryf_pion_E;
transform = "{1, 0, 0, 1, 408, 0}";
},
{
name = szeryf_pion_E;
transform = "{1, 0, 0, -1, 428, 700}";
}
);
guideLines = (
{
angle = 90;
position = "{545, 540}";
}
);
layerId = "7E6C73B0-A95A-4D35-8348-A7D724E4B780";
name = "Regular Jul 2 16, 16:57";
paths = (
{
closed = 1;
nodes = (
"225 700 LINE",
"225 650 LINE",
"555 650 LINE",
"555 700 LINE"
);
},
{
closed = 1;
nodes = (
"125 0 LINE",
"225 0 LINE",
"225 700 LINE",
"125 700 LINE"
);
},
{
closed = 1;
nodes = (
"225 0 LINE",
"575 0 LINE",
"575 50 LINE",
"225 50 LINE"
);
},
{
closed = 1;
nodes = (
"225 345 LINE",
"472 305 LINE",
"472 415 LINE",
"225 375 LINE"
);
}
);
width = 640;
}
);
leftMetricsKey = "=H";
unicode = 0045;
},
{
glyphname = F;
lastChange = "2016-10-10 18:45:16 +0000";
layers = (
{
anchors = (
{
name = bottom;
position = "{280, 0}";
},
{
name = top;
position = "{280, 700}";
}
);
components = (
{
name = szeryf;
transform = "{1, 0, 0, 1, 24, 0}";
},
{
name = szeryf;
transform = "{1, 0, 0, -1, 24, 700}";
},
{
name = szeryf_pion_E;
transform = "{1, 0, 0, 1, 388, 0}";
},
{
name = szeryf_long;
transform = "{1, 0, 0, 1, 26, 0}";
}
);
guideLines = (
{
angle = 52.9269;
position = "{458, 410}";
}
);
layerId = "0F8BB9BB-4444-4167-ACAA-B06A747D7052";
paths = (
{
closed = 1;
nodes = (
"215 700 LINE",
"215 650 LINE",
"535 650 LINE",
"535 700 LINE"
);
},
{
closed = 1;
nodes = (
"115 0 LINE",
"215 0 LINE",
"215 700 LINE",
"115 700 LINE"
);
},
{
closed = 1;
nodes = (
"206 355 LINE",
"206 305 LINE",
"426 305 LINE",
"502 205 LINE",
"502 455 LINE",
"426 355 LINE"
);
}
);
width = 565;
},
{
anchors = (
{
name = bottom;
position = "{308, 0}";
},
{
name = top;
position = "{308, 700}";
}
);
components = (
{
name = szeryf;
transform = "{1, 0, 0, 1, -15, 0}";
},
{
name = szeryf;
transform = "{1, 0, 0, -1, -15, 700}";
},
{
name = szeryf_pion_E;
transform = "{1, 0, 0, 1, 447, -10}";
},
{
name = szeryf_long;
transform = "{1, 0, 0, 1, 136, 0}";
}
);
guideLines = (
{
angle = 59.6067;
position = "{512, 412}";
}
);
layerId = "F548E3CC-813E-497B-8EED-D24596D10F9A";
paths = (
{
closed = 1;
nodes = (
"325 700 LINE",
"325 640 LINE",
"585 640 LINE",
"585 700 LINE"
);
},
{
closed = 1;
nodes = (
"65 0 LINE",
"325 0 LINE",
"325 700 LINE",
"65 700 LINE"
);
},
{
closed = 1;
nodes = (
"316 350 LINE",
"316 290 LINE",
"446 290 LINE",
"542 186 LINE",
"542 454 LINE",
"446 350 LINE"
);
}
);
width = 600;
},
{
anchors = (
{
name = bottom;
position = "{260, 0}";
},
{
name = top;
position = "{260, 700}";
}
);
components = (
{
name = szeryf;
transform = "{1, 0, 0, 1, -70, 0}";
},
{
name = szeryf;
transform = "{1, 0, 0, -1, -70, 700}";
},
{
name = szeryf_pion_E;
transform = "{1, 0, 0, 1, 425, 33}";
},
{
name = szeryf_long;
transform = "{1, 0, 0, 1, -50, 0}";
}
);
guideLines = (
{
angle = 80.2996;
position = "{462, 440}";
}
);
layerId = "D94A17C2-4593-4D11-9DD5-BACEC39F5EAE";
paths = (
{
closed = 1;
nodes = (
"135 700 LINE",
"135 682 LINE",
"495 682 LINE",
"495 700 LINE"
);
},
{
closed = 1;
nodes = (
"115 0 LINE",
"135 0 LINE",
"135 700 LINE",
"115 700 LINE"
);
},
{
closed = 1;
nodes = (
"126 343 LINE",
"126 325 LINE",
"447 325 LINE",
"462 238 LINE",
"462 430 LINE",
"447 343 LINE"
);
}
);
width = 535;
}
);
leftMetricsKey = "=E";
rightKerningGroup = P;
rightMetricsKey = "=E-15";
unicode = 0046;
},
{
glyphname = G;
lastChange = "2016-10-11 12:54:12 +0000";
layers = (
{
anchors = (
{
name = bottom;
position = "{405, 0}";
},
{
name = top;
position = "{405, 700}";
}
);
components = (
{
name = szer_pion_C;
transform = "{1, 0, 0, 1, 503, 0}";
}
);
guideLines = (
{
angle = 153.435;
position = "{580, 242}";
},
{
angle = 153.435;
position = "{670, 0}";
}
);
layerId = "0F8BB9BB-4444-4167-ACAA-B06A747D7052";
paths = (
{
closed = 1;
nodes = (
"504 -10 OFFCURVE",
"597 8 OFFCURVE",
"670 61 CURVE",
"670 123 LINE",
"586 64 OFFCURVE",
"485 50 OFFCURVE",
"432 50 CURVE SMOOTH",
"269 50 OFFCURVE",
"160 185 OFFCURVE",
"160 372 CURVE SMOOTH",
"160 561 OFFCURVE",
"272 660 OFFCURVE",
"431 660 CURVE SMOOTH",
"497 660 OFFCURVE",
"570 643 OFFCURVE",
"650 587 CURVE",
"650 659 LINE",
"584 694 OFFCURVE",
"500 710 OFFCURVE",
"430 710 CURVE SMOOTH",
"232 710 OFFCURVE",
"50 582 OFFCURVE",
"50 343 CURVE SMOOTH",
"50 117 OFFCURVE",
"213 -10 OFFCURVE",
"424 -10 CURVE SMOOTH"
);
},
{
closed = 1;
nodes = (
"670 330 LINE",
"404 330 LINE",
"580 242 LINE",
"580 43 LINE",
"583 43 LINE",
"670 0 LINE"
);
},
{
closed = 1;
nodes = (
"650 710 LINE",
"532 650 LINE",
"650 650 LINE"
);
}
);
width = 725;
},
{
anchors = (
{
name = bottom;
position = "{418, 0}";
},
{
name = top;
position = "{418, 700}";
}
);
components = (
{
name = szer_pion_C;
transform = "{1, 0, 0, 1, 553, -1}";
}
);
guideLines = (
{
angle = 120.3276;
position = "{709, 435}";
},
{
angle = 146.1818;
position = "{520, 262}";
}
);
layerId = "F548E3CC-813E-497B-8EED-D24596D10F9A";
paths = (
{
closed = 1;
nodes = (
"518 -10 OFFCURVE",
"613 6 OFFCURVE",
"679 41 CURVE",
"679 173 LINE",
"604 120 OFFCURVE",
"547 100 OFFCURVE",
"497 100 CURVE SMOOTH",
"381 100 OFFCURVE",
"295 205 OFFCURVE",
"295 382 CURVE SMOOTH",
"295 558 OFFCURVE",
"380 650 OFFCURVE",
"506 650 CURVE SMOOTH",
"547 650 OFFCURVE",
"631 640 OFFCURVE",
"709 557 CURVE",
"709 659 LINE",
"643 694 OFFCURVE",
"537 710 OFFCURVE",
"456 710 CURVE SMOOTH",
"236 710 OFFCURVE",
"25 591 OFFCURVE",
"25 341 CURVE SMOOTH",
"25 116 OFFCURVE",
"197 -10 OFFCURVE",
"434 -10 CURVE SMOOTH"
);
},
{
closed = 1;
nodes = (
"740 350 LINE",
"389 350 LINE",
"520 262 LINE",
"520 52 LINE",
"637 59 LINE",
"740 -10 LINE"
);
},
{
closed = 1;
nodes = (
"709 710 LINE",
"588 649 LINE",
"709 649 LINE"
);
}
);
width = 790;
},
{
anchors = (
{
name = bottom;
position = "{393, 0}";
},
{
name = top;
position = "{393, 700}";
}
);
components = (
{
name = szer_pion_C;
transform = "{1, 0, 0, 1, 558, 1}";
}
);
layerId = "D94A17C2-4593-4D11-9DD5-BACEC39F5EAE";
paths = (
{
closed = 1;
nodes = (
"470 -5 OFFCURVE",
"554 11 OFFCURVE",
"620 46 CURVE",
"620 66 LINE",
"550 25 OFFCURVE",
"460 13 OFFCURVE",
"403 13 CURVE SMOOTH",
"211 13 OFFCURVE",
"80 145 OFFCURVE",
"80 347 CURVE SMOOTH",
"80 556 OFFCURVE",
"221 687 OFFCURVE",
"412 687 CURVE SMOOTH",
"470 687 OFFCURVE",
"560 675 OFFCURVE",
"630 634 CURVE",
"630 654 LINE",
"564 689 OFFCURVE",
"480 705 OFFCURVE",
"411 705 CURVE SMOOTH",
"212 705 OFFCURVE",
"60 571 OFFCURVE",
"60 346 CURVE SMOOTH",
"60 128 OFFCURVE",
"202 -5 OFFCURVE",
"401 -5 CURVE SMOOTH"
);
},
{
closed = 1;
nodes = (
"630 330 LINE",
"414 330 LINE",
"610 310 LINE",
"610 38 LINE",
"613 38 LINE",
"630 -10 LINE"
);
},
{
closed = 1;
nodes = (
"630 709 LINE",
"608 651 LINE",
"630 651 LINE"
);
}
);
width = 685;
},
{
associatedMasterId = "D94A17C2-4593-4D11-9DD5-BACEC39F5EAE";
components = (
{
name = szeryf;
transform = "{0, 1.7714, -1.7714, 0, 620, 331}";
}
);
layerId = "452BB93E-95E4-4A1A-9E7D-DC22623058FE";
name = "Light Jun 27 16, 19:45";
paths = (
{
closed = 1;
nodes = (
"80 346 LINE",
"80 548 OFFCURVE",
"223 692 OFFCURVE",
"409 692 CURVE SMOOTH",
"471 692 OFFCURVE",
"550 680 OFFCURVE",
"620 639 CURVE",
"620 659 LINE",
"554 694 OFFCURVE",
"481 710 OFFCURVE",
"409 710 CURVE SMOOTH",
"213 710 OFFCURVE",
"60 562 OFFCURVE",
"60 345 CURVE"
);
},
{
closed = 1;
nodes = (
"481 -10 OFFCURVE",
"554 6 OFFCURVE",
"620 41 CURVE",
"620 61 LINE",
"550 20 OFFCURVE",
"471 8 OFFCURVE",
"409 8 CURVE SMOOTH",
"223 8 OFFCURVE",
"80 144 OFFCURVE",
"80 346 CURVE",
"60 345 LINE",
"60 128 OFFCURVE",
"213 -10 OFFCURVE",
"409 -10 CURVE SMOOTH"
);
},
{
closed = 1;
nodes = (
"610 330 LINE",
"484 330 LINE",
"610 315 LINE"
);
},
{
closed = 1;
nodes = (
"630 330 LINE",
"610 330 LINE",
"610 40 LINE",
"613 40 LINE",
"630 0 LINE"
);
}
);
width = 675;
},
{
associatedMasterId = "0F8BB9BB-4444-4167-ACAA-B06A747D7052";
components = (
{
name = szeryf_pion_E;
transform = "{1, 0, 0, 1, 552, -14}";
}
);
guideLines = (
{
angle = 143.1301;
position = "{640, 0}";
},
{
angle = 153.435;
position = "{570, 242}";
}
);
layerId = "14ABC15C-22CD-4B90-BC12-51BE0A728A8C";
name = "Regular Jun 27 16, 19:45";
paths = (
{
closed = 1;
nodes = (
"160 350 LINE",
"160 542 OFFCURVE",
"262 659 OFFCURVE",
"433 659 CURVE SMOOTH",
"496 659 OFFCURVE",
"560 643 OFFCURVE",
"640 587 CURVE",
"640 659 LINE",
"574 694 OFFCURVE",
"501 710 OFFCURVE",
"429 710 CURVE SMOOTH",
"223 710 OFFCURVE",
"50 567 OFFCURVE",
"50 340 CURVE"
);
},
{
closed = 1;
nodes = (
"506 -10 OFFCURVE",
"587 8 OFFCURVE",
"660 61 CURVE",
"660 113 LINE",
"576 54 OFFCURVE",
"490 41 OFFCURVE",
"433 41 CURVE SMOOTH",
"261 41 OFFCURVE",
"160 159 OFFCURVE",
"160 350 CURVE",
"50 340 LINE",
"50 113 OFFCURVE",
"223 -10 OFFCURVE",
"430 -10 CURVE SMOOTH"
);
},
{
closed = 1;
nodes = (
"570 330 LINE",
"394 330 LINE",
"570 242 LINE"
);
},
{
closed = 1;
nodes = (
"660 330 LINE",
"570 330 LINE",
"570 50 LINE",
"573 50 LINE",
"660 0 LINE"
);
}
);
width = 705;
},
{
associatedMasterId = "F548E3CC-813E-497B-8EED-D24596D10F9A";
components = (
{
name = szeryf;
transform = "{0, 4.5946, -1.7714, 0, 684, 291}";
}
);
layerId = "23BBE004-C995-4965-BCAD-A0A439373F68";
name = "Bold Jun 27 16, 19:45";
paths = (
{
closed = 1;
nodes = (
"300 350 LINE",
"300 561 OFFCURVE",
"379 649 OFFCURVE",
"488 649 CURVE SMOOTH",
"541 649 OFFCURVE",
"604 633 OFFCURVE",
"684 577 CURVE",
"684 659 LINE",
"618 694 OFFCURVE",
"515 710 OFFCURVE",
"433 710 CURVE SMOOTH",
"224 710 OFFCURVE",
"30 597 OFFCURVE",
"30 340 CURVE"
);
},
{
closed = 1;
nodes = (
"515 -10 OFFCURVE",
"598 6 OFFCURVE",
"664 41 CURVE",
"664 123 LINE",
"584 67 OFFCURVE",
"541 51 OFFCURVE",
"488 51 CURVE SMOOTH",
"379 51 OFFCURVE",
"300 159 OFFCURVE",
"300 350 CURVE",
"30 340 LINE",
"30 103 OFFCURVE",
"224 -10 OFFCURVE",
"433 -10 CURVE SMOOTH"
);
},
{
closed = 1;
nodes = (
"505 330 LINE",
"429 330 LINE",
"505 242 LINE"
);
},
{
closed = 1;
nodes = (
"725 330 LINE",
"505 330 LINE",
"505 50 LINE",
"508 50 LINE",
"725 0 LINE"
);
}
);
width = 704;
},
{
anchors = (
{
name = bottom;
position = "{423, 0}";
},
{
name = top;
position = "{423, 700}";
}
);
associatedMasterId = "F548E3CC-813E-497B-8EED-D24596D10F9A";
components = (
{
name = szer_pion_C;
transform = "{1, 0, 0, 1, 558, -1}";
}
);
guideLines = (
{
angle = 120.3276;
position = "{714, 435}";
},
{
angle = -30.2735;
position = "{381, 356}";
}
);
layerId = "1BE5E88C-7B8D-4682-AFC3-2A7A81D5E5BB";
name = "Bold Jul 24 16, 16:57";
paths = (
{
closed = 1;
nodes = (
"523 -10 OFFCURVE",
"618 6 OFFCURVE",
"684 41 CURVE",
"684 143 LINE",
"609 90 OFFCURVE",
"551 80 OFFCURVE",
"504 80 CURVE SMOOTH",
"386 80 OFFCURVE",
"300 184 OFFCURVE",
"300 380 CURVE SMOOTH",
"300 591 OFFCURVE",
"400 650 OFFCURVE",
"515 650 CURVE SMOOTH",
"558 650 OFFCURVE",
"636 642 OFFCURVE",
"714 557 CURVE",
"714 659 LINE",
"648 694 OFFCURVE",
"543 710 OFFCURVE",
"460 710 CURVE SMOOTH",
"232 710 OFFCURVE",
"30 591 OFFCURVE",
"30 341 CURVE SMOOTH",
"30 97 OFFCURVE",
"222 -10 OFFCURVE",
"439 -10 CURVE SMOOTH"
);
},
{
closed = 1;
nodes = (
"745 350 LINE",
"391 350 LINE",
"525 272 LINE",
"525 52 LINE",
"642 49 LINE",
"745 -10 LINE"
);
},
{
closed = 1;
nodes = (
"714 710 LINE",
"593 649 LINE",
"714 649 LINE"
);
}
);
width = 805;
}
);
leftKerningGroup = O;
leftMetricsKey = "=O";
rightMetricsKey = "=H+20";
unicode = 0047;
},
{
glyphname = H;
lastChange = "2016-10-10 18:45:03 +0000";
layers = (
{
anchors = (
{
name = bottom;
position = "{395, 0}";
},
{
name = center;
position = "{395, 350}";
},
{
name = ogonek;
position = "{185, 0}";
},
{
name = top;
position = "{395, 700}";
},
{
name = topleft;
position = "{-20, 700}";
}
);
components = (
{
name = szeryf;
transform = "{1, 0, 0, 1, 24, 0}";
},
{
name = szeryf;
transform = "{-1, 0, 0, 1, 306, 0}";
},
{
name = szeryf;
transform = "{1, 0, 0, -1, 24, 700}";
},
{
name = szeryf;
transform = "{-1, 0, 0, -1, 306, 700}";
},
{
alignment = -1;
name = szeryf;
transform = "{1, 0, 0, 1, 524, 0}";
},
{
alignment = -1;
name = szeryf;
transform = "{-1, 0, 0, 1, 806, 0}";
},
{
alignment = -1;
name = szeryf;
transform = "{1, 0, 0, -1, 524, 700}";
},
{
alignment = -1;
name = szeryf;
transform = "{-1, 0, 0, -1, 806, 700}";
}
);
layerId = "0F8BB9BB-4444-4167-ACAA-B06A747D7052";
paths = (
{
closed = 1;
nodes = (
"186 345 LINE",
"642 345 LINE",
"642 395 LINE",
"186 395 LINE"
);
},
{
closed = 1;
nodes = (
"115 0 LINE",
"215 0 LINE",
"215 700 LINE",
"115 700 LINE"
);
},
{
closed = 1;
nodes = (
"615 0 LINE",
"715 0 LINE",
"715 700 LINE",
"615 700 LINE"
);
}
);
width = 830;
},
{
anchors = (
{
name = bottom;
position = "{435, 0}";
},
{
name = center;
position = "{435, 350}";
},
{
name = ogonek;
position = "{245, 0}";
},
{
name = top;
position = "{435, 700}";
},
{
name = topleft;
position = "{-5, 700}";
}
);
components = (
{
name = szeryf;
transform = "{1, 0, 0, 1, -15, 0}";
},
{
name = szeryf;
transform = "{-1, 0, 0, 1, 405, 0}";
},
{
name = szeryf;
transform = "{1, 0, 0, -1, -15, 700}";
},
{
name = szeryf;
transform = "{-1, 0, 0, -1, 405, 700}";
},
{
alignment = -1;
name = szeryf;
transform = "{1, 0, 0, 1, 495, 0}";
},
{
alignment = -1;
name = szeryf;
transform = "{-1, 0, 0, 1, 915, 0}";
},
{
alignment = -1;
name = szeryf;
transform = "{1, 0, 0, -1, 495, 700}";
},
{
alignment = -1;
name = szeryf;
transform = "{-1, 0, 0, -1, 915, 700}";
}
);
layerId = "F548E3CC-813E-497B-8EED-D24596D10F9A";
paths = (
{
closed = 1;
nodes = (
"236 335 LINE",
"682 335 LINE",
"682 395 LINE",
"236 395 LINE"
);
},
{
closed = 1;
nodes = (
"65 0 LINE",
"325 0 LINE",
"325 700 LINE",
"65 700 LINE"
);
},
{
closed = 1;
nodes = (
"575 0 LINE",
"835 0 LINE",
"835 700 LINE",
"575 700 LINE"
);
}
);
width = 900;
},
{
anchors = (
{
name = bottom;
position = "{383, 0}";
},
{
name = center;
position = "{383, 350}";
},
{
name = ogonek;
position = "{135, 0}";
},
{
name = top;
position = "{383, 700}";
},
{
name = topleft;
position = "{-20, 700}";
}
);
components = (
{
name = szeryf;
transform = "{1, 0, 0, 1, -70, 0}";
},
{
name = szeryf;
transform = "{-1, 0, 0, 1, 320, 0}";
},
{
name = szeryf;
transform = "{1, 0, 0, -1, -70, 700}";
},
{
name = szeryf;
transform = "{-1, 0, 0, -1, 320, 700}";
},
{
alignment = -1;
name = szeryf;
transform = "{1, 0, 0, 1, 445, 0}";
},
{
alignment = -1;
name = szeryf;
transform = "{-1, 0, 0, 1, 835, 0}";
},
{
alignment = -1;
name = szeryf;
transform = "{1, 0, 0, -1, 445, 700}";
},
{
alignment = -1;
name = szeryf;
transform = "{-1, 0, 0, -1, 835, 700}";
}
);
layerId = "D94A17C2-4593-4D11-9DD5-BACEC39F5EAE";
paths = (
{
closed = 1;
nodes = (
"125 367 LINE",
"640 367 LINE",
"640 385 LINE",
"125 385 LINE"
);
},
{
closed = 1;
nodes = (
"115 0 LINE",
"135 0 LINE",
"135 700 LINE",
"115 700 LINE"
);
},
{
closed = 1;
nodes = (
"630 0 LINE",
"650 0 LINE",
"650 700 LINE",
"630 700 LINE"
);
}
);
width = 765;
}
);
unicode = 0048;
},
{
glyphname = Hbar;
lastChange = "2016-07-27 08:55:39 +0000";
layers = (
{
components = (
{
name = H;
transform = "{1, 0, 0, 1, -10, 0}";
}
);
layerId = "D94A17C2-4593-4D11-9DD5-BACEC39F5EAE";
paths = (
{
closed = 1;
nodes = (
"10 527 LINE",
"735 527 LINE",
"735 545 LINE",
"10 545 LINE"
);
}
);
width = 745;
},
{
components = (
{
name = H;
}
);
layerId = "0F8BB9BB-4444-4167-ACAA-B06A747D7052";
paths = (
{
closed = 1;
nodes = (
"30 505 LINE",
"800 505 LINE",
"800 555 LINE",
"30 555 LINE"
);
}
);
width = 830;
},
{
components = (
{
name = H;
}
);
layerId = "F548E3CC-813E-497B-8EED-D24596D10F9A";
paths = (
{
closed = 1;
nodes = (
"0 505 LINE",
"900 505 LINE",
"900 565 LINE",
"0 565 LINE"
);
}
);
width = 900;
}
);
unicode = 0126;
},
{
glyphname = I;
lastChange = "2016-10-10 18:45:16 +0000";
layers = (
{
anchors = (
{
name = bottom;
position = "{170, 0}";
},
{
name = ogonek;
position = "{190, 0}";
},
{
name = top;
position = "{170, 700}";
},
{
name = topleft;
position = "{15, 700}";
}
);
components = (
{
name = szeryf;
transform = "{1, 0, 0, 1, 29, 0}";
},
{
name = szeryf;
transform = "{-1, 0, 0, 1, 311, 0}";
},
{
name = szeryf;
transform = "{1, 0, 0, -1, 29, 700}";
},
{
name = szeryf;
transform = "{-1, 0, 0, -1, 311, 700}";
}
);
layerId = "0F8BB9BB-4444-4167-ACAA-B06A747D7052";
paths = (
{
closed = 1;
nodes = (
"120 0 LINE",
"220 0 LINE",
"220 700 LINE",
"120 700 LINE"
);
}
);
width = 340;
},
{
anchors = (
{
name = bottom;
position = "{200, 0}";
},
{
name = ogonek;
position = "{250, 0}";
},
{
name = top;
position = "{200, 700}";
},
{
name = topleft;
position = "{15, 700}";
}
);
components = (
{
name = szeryf;
transform = "{1, 0, 0, 1, -10, 0}";
},
{
name = szeryf;
transform = "{-1, 0, 0, 1, 410, 0}";
},
{
name = szeryf;
transform = "{1, 0, 0, -1, -10, 700}";
},
{
name = szeryf;
transform = "{-1, 0, 0, -1, 410, 700}";
}
);
layerId = "F548E3CC-813E-497B-8EED-D24596D10F9A";
paths = (
{
closed = 1;
nodes = (
"70 0 LINE",
"330 0 LINE",
"330 700 LINE",
"70 700 LINE"
);
}
);
width = 400;
},
{
anchors = (
{
name = bottom;
position = "{130, 0}";
},
{
name = ogonek;
position = "{140, 0}";
},
{
name = top;
position = "{130, 700}";
},
{
name = topleft;
position = "{15, 700}";
}
);
components = (
{
name = szeryf;
transform = "{1, 0, 0, 1, -65, 0}";
},
{
name = szeryf;
transform = "{-1, 0, 0, 1, 325, 0}";
},
{
name = szeryf;
transform = "{1, 0, 0, -1, -65, 700}";
},
{
name = szeryf;
transform = "{-1, 0, 0, -1, 325, 700}";
}
);
layerId = "D94A17C2-4593-4D11-9DD5-BACEC39F5EAE";
paths = (
{
closed = 1;
nodes = (
"120 0 LINE",
"140 0 LINE",
"140 700 LINE",
"120 700 LINE"
);
}
);
width = 260;
}
);
leftMetricsKey = "=H+5";
rightMetricsKey = "=H+5";
unicode = 0049;
},
{
glyphname = J;
lastChange = "2016-10-10 18:45:16 +0000";
layers = (
{
anchors = (
{
name = bottom;
position = "{170, 0}";
},
{
name = top;
position = "{170, 700}";
}
);
components = (
{
name = szeryf;
transform = "{1, 0, 0, -1, 34, 700}";
},
{
name = szeryf;
transform = "{-1, 0, 0, -1, 316, 700}";
}
);
guideLines = (
{
angle = 90;
position = "{45, 700}";
}
);
layerId = "0F8BB9BB-4444-4167-ACAA-B06A747D7052";
paths = (
{
closed = 1;
nodes = (
"159 -197 OFFCURVE",
"224 -123 OFFCURVE",
"225 0 CURVE SMOOTH",
"225 700 LINE",
"125 700 LINE",
"125 10 LINE SMOOTH",
"125 -104 OFFCURVE",
"98 -167 OFFCURVE",
"45 -235 CURVE",
"50 -240 LINE"
);
}
);
width = 335;
},
{
anchors = (
{
name = bottom;
position = "{203, 0}";
},
{
name = top;
position = "{203, 700}";
}
);
components = (
{
name = szeryf;
transform = "{1, 0, 0, -1, 0, 700}";
},
{
name = szeryf;
transform = "{-1, 0, 0, -1, 420, 700}";
}
);
layerId = "F548E3CC-813E-497B-8EED-D24596D10F9A";
paths = (
{
closed = 1;
nodes = (
"234 -217 OFFCURVE",
"339 -123 OFFCURVE",
"340 90 CURVE SMOOTH",
"340 700 LINE",
"80 700 LINE",
"80 10 LINE SMOOTH",
"80 -104 OFFCURVE",
"53 -167 OFFCURVE",
"0 -235 CURVE",
"5 -240 LINE"
);
}
);
width = 400;
},
{
anchors = (
{
name = bottom;
position = "{130, 0}";
},
{
name = top;
position = "{130, 700}";
}
);
components = (
{
name = szeryf;
transform = "{1, 0, 0, -1, -60, 700}";
},
{
name = szeryf;
transform = "{-1, 0, 0, -1, 330, 700}";
}
);
layerId = "D94A17C2-4593-4D11-9DD5-BACEC39F5EAE";
paths = (
{
closed = 1;
nodes = (
"129 -177 OFFCURVE",
"144 -113 OFFCURVE",
"145 10 CURVE SMOOTH",
"145 700 LINE",
"125 700 LINE",
"125 10 LINE SMOOTH",
"125 -104 OFFCURVE",
"113 -167 OFFCURVE",
"55 -235 CURVE",
"60 -240 LINE"
);
}
);
width = 255;
}
);
rightKerningGroup = U;
rightMetricsKey = "=I-10";
unicode = 004A;
},
{
glyphname = K;
lastChange = "2016-10-25 09:22:09 +0000";
layers = (
{
anchors = (
{
name = bottom;
position = "{363, 0}";
},
{
name = top;
position = "{363, 700}";
}
);
components = (
{
name = szeryf;
transform = "{1, 0, 0, 1, 24, 0}";
},
{
name = szeryf;
transform = "{1, 0, 0, -1, 24, 700}";
},
{
name = szeryf;
transform = "{-1, 0, 0, 1, 306, 0}";
},
{
name = szeryf;
transform = "{-1, 0, 0, -1, 306, 700}";
}
);
guideLines = (
{
angle = 270;
position = "{706, -15}";
},
{
angle = 224.9077;
position = "{551, 545}";
}
);
layerId = "0F8BB9BB-4444-4167-ACAA-B06A747D7052";
paths = (
{
closed = 1;
nodes = (
"215 0 LINE",
"215 700 LINE",
"115 700 LINE",
"115 0 LINE"
);
},
{
closed = 1;
nodes = (
"745 0 LINE",
"596 54 OFFCURVE",
"537 160 OFFCURVE",
"380 385 CURVE",
"274 361 LINE",
"484 52 OFFCURVE",
"535 -25 OFFCURVE",
"745 -5 CURVE"
);
},
{
closed = 1;
nodes = (
"380 385 LINE",
"696 700 LINE",
"555 700 LINE",
"555 640 LINE",
"274 361 LINE"
);
},
{
closed = 1;
nodes = (
"449 700 LINE",
"555 640 LINE",
"555 700 LINE"
);
}
);
width = 720;
},
{
anchors = (
{
name = bottom;
position = "{423, 0}";
},
{
name = top;
position = "{423, 700}";
}
);
components = (
{
name = szeryf;
transform = "{1, 0, 0, 1, -15, 0}";
},
{
name = szeryf;
transform = "{1, 0, 0, -1, -15, 700}";
},
{
name = szeryf;
transform = "{-1, 0, 0, 1, 405, 0}";
},
{
name = szeryf;
transform = "{-1, 0, 0, -1, 405, 700}";
}
);
guideLines = (
{
angle = 223.5738;
position = "{683, 583}";
}
);
layerId = "F548E3CC-813E-497B-8EED-D24596D10F9A";
paths = (
{
closed = 1;
nodes = (
"325 0 LINE",
"325 700 LINE",
"65 700 LINE",
"65 0 LINE"
);
},
{
closed = 1;
nodes = (
"845 0 LINE",
"726 64 OFFCURVE",
"652 253 OFFCURVE",
"566 469 CURVE",
"344 351 LINE",
"454 -8 OFFCURVE",
"605 -25 OFFCURVE",
"845 -5 CURVE"
);
},
{
closed = 1;
nodes = (
"566 469 LINE",
"796 700 LINE",
"651 700 LINE",
"591 589 LINE",
"344 351 LINE"
);
},
{
closed = 1;
nodes = (
"536 700 LINE",
"591 589 LINE",
"651 700 LINE"
);
}
);
width = 805;
},
{
anchors = (
{
name = bottom;
position = "{340, 0}";
},
{
name = top;
position = "{340, 700}";
}
);
background = {
paths = (
{
closed = 1;
nodes = (
"616 0 LINE",
"490 -4 OFFCURVE",
"452 72 OFFCURVE",
"249 361 CURVE",
"224 361 LINE",
"445 52 OFFCURVE",
"476 -24 OFFCURVE",
"616 -10 CURVE"
);
},
{
closed = 1;
nodes = (
"135 0 LINE",
"135 700 LINE",
"115 700 LINE",
"115 0 LINE"
);
},
{
closed = 1;
nodes = (
"249 361 LINE",
"596 700 LINE",
"554 700 LINE",
"554 685 LINE",
"224 361 LINE"
);
}
);
};
components = (
{
name = szeryf;
transform = "{1, 0, 0, 1, -70, 0}";
},
{
name = szeryf;
transform = "{1, 0, 0, -1, -70, 700}";
},
{
name = szeryf;
transform = "{-1, 0, 0, 1, 320, 0}";
},
{
name = szeryf;
transform = "{-1, 0, 0, -1, 320, 700}";
}
);
layerId = "D94A17C2-4593-4D11-9DD5-BACEC39F5EAE";
paths = (
{
closed = 1;
nodes = (
"135 0 LINE",
"135 700 LINE",
"115 700 LINE",
"115 0 LINE"
);
},
{
closed = 1;
nodes = (
"655 0 LINE",
"529 -4 OFFCURVE",
"481 82 OFFCURVE",
"269 371 CURVE",
"244 371 LINE",
"474 62 OFFCURVE",
"515 -19 OFFCURVE",
"655 -5 CURVE"
);
},
{
closed = 1;
nodes = (
"269 371 LINE",
"606 700 LINE",
"564 700 LINE",
"564 685 LINE",
"244 371 LINE"
);
},
{
closed = 1;
nodes = (
"458 700 LINE",
"564 680 LINE",
"564 700 LINE"
);
}
);
width = 660;
},
{
associatedMasterId = "F548E3CC-813E-497B-8EED-D24596D10F9A";
components = (
{
name = szeryf;
transform = "{1, 0, 0, 1, -5, 0}";
},
{
name = szeryf;
transform = "{1, 0, 0, -1, -5, 700}";
},
{
name = szeryf;
transform = "{-1, 0, 0, 1, 415, 0}";
},
{
name = szeryf;
transform = "{-1, 0, 0, -1, 415, 700}";
}
);
layerId = "92F7B867-868A-4DC4-898E-CE7296E945F6";
name = "Bold Jul 7 16, 22:31";
paths = (
{
closed = 1;
nodes = (
"335 0 LINE",
"335 700 LINE",
"75 700 LINE",
"75 0 LINE"
);
}
);
width = 866;
},
{
associatedMasterId = "F548E3CC-813E-497B-8EED-D24596D10F9A";
components = (
{
name = szeryf;
transform = "{1, 0, 0, 1, -5, 0}";
},
{
name = szeryf;
transform = "{1, 0, 0, -1, -5, 700}";
},
{
name = szeryf;
transform = "{-1, 0, 0, 1, 415, 0}";
},
{
name = szeryf;
transform = "{-1, 0, 0, -1, 415, 700}";
},
{
name = szeryf_long;
transform = "{-1.331, 0, 0, -1, 872, 700}";
}
);
layerId = "75139EAF-BAD5-416F-9136-346522029C55";
name = "Bold Jul 7 16, 22:33";
paths = (
{
closed = 1;
nodes = (
"906 -10 LINE",
"777 54 OFFCURVE",
"699 217 OFFCURVE",
"593 443 CURVE",
"354 361 LINE",
"475 42 OFFCURVE",
"636 -40 OFFCURVE",
"906 -20 CURVE"
);
},
{
closed = 1;
nodes = (
"335 0 LINE",
"335 700 LINE",
"75 700 LINE",
"75 0 LINE"
);
},
{
closed = 1;
nodes = (
"593 443 LINE",
"846 700 LINE",
"620 700 LINE",
"620 610 LINE",
"354 361 LINE"
);
}
);
width = 866;
visible = 1;
}
);
leftMetricsKey = "=H";
rightKerningGroup = K;
rightMetricsKey = "=R";
unicode = 004B;
},
{
glyphname = L;
lastChange = "2016-10-10 18:45:16 +0000";
layers = (
{
anchors = (
{
name = bottom;
position = "{343, -10}";
},
{
name = center;
position = "{293, 350}";
},
{
name = top;
position = "{165, 700}";
},
{
name = topright;
position = "{565, 700}";
}
);
components = (
{
name = szeryf;
transform = "{1, 0, 0, 1, 24, 0}";
},
{
name = szeryf;
transform = "{1, 0, 0, -1, 24, 700}";
},
{
name = szeryf_pion_E;
transform = "{1, 0, 0, -1, 428, 700}";
},
{
name = szeryf;
transform = "{-1, 0, 0, -1, 306, 700}";
}
);
layerId = "0F8BB9BB-4444-4167-ACAA-B06A747D7052";
paths = (
{
closed = 1;
nodes = (
"115 0 LINE",
"215 0 LINE",
"215 700 LINE",
"115 700 LINE"
);
},
{
closed = 1;
nodes = (
"215 0 LINE",
"575 0 LINE",
"575 50 LINE",
"215 50 LINE"
);
}
);
width = 605;
},
{
anchors = (
{
name = bottom;
position = "{348, 0}";
},
{
name = center;
position = "{318, 350}";
},
{
name = top;
position = "{195, 700}";
},
{
name = topright;
position = "{615, 700}";
}
);
components = (
{
name = szeryf;
transform = "{1, 0, 0, 1, -15, 0}";
},
{
name = szeryf;
transform = "{1, 0, 0, -1, -15, 700}";
},
{
name = szeryf_pion_E;
transform = "{1.1, 0, 0, -1.1, 463, 775}";
},
{
name = szeryf;
transform = "{-1, 0, 0, -1, 404, 700}";
}
);
layerId = "F548E3CC-813E-497B-8EED-D24596D10F9A";
paths = (
{
closed = 1;
nodes = (
"65 0 LINE",
"325 0 LINE",
"325 700 LINE",
"65 700 LINE"
);
},
{
closed = 1;
nodes = (
"325 0 LINE",
"615 0 LINE",
"615 60 LINE",
"325 60 LINE"
);
}
);
width = 635;
},
{
anchors = (
{
name = bottom;
position = "{313, 0}";
},
{
name = center;
position = "{273, 350}";
},
{
name = top;
position = "{125, 700}";
},
{
name = topright;
position = "{525, 700}";
}
);
components = (
{
name = szeryf;
transform = "{1, 0, 0, 1, -70, 0}";
},
{
name = szeryf;
transform = "{1, 0, 0, -1, -70, 700}";
},
{
name = szeryf_pion_E;
transform = "{1, 0, 0, -1, 455, 668}";
},
{
name = szeryf;
transform = "{-1, 0, 0, -1, 320, 700}";
}
);
layerId = "D94A17C2-4593-4D11-9DD5-BACEC39F5EAE";
paths = (
{
closed = 1;
nodes = (
"115 0 LINE",
"135 0 LINE",
"135 700 LINE",
"115 700 LINE"
);
},
{
closed = 1;
nodes = (
"135 0 LINE",
"525 0 LINE",
"525 18 LINE",
"135 18 LINE"
);
}
);
width = 575;
}
);
leftMetricsKey = "=H";
rightKerningGroup = L;
unicode = 004C;
},
{
glyphname = Lslash;
lastChange = "2016-10-10 21:31:13 +0000";
layers = (
{
components = (
{
name = L;
transform = "{1, 0, 0, 1, 40, 0}";
}
);
layerId = "D94A17C2-4593-4D11-9DD5-BACEC39F5EAE";
paths = (
{
closed = 1;
nodes = (
"167 287 LINE",
"394 441 LINE",
"394 461 LINE",
"167 307 LINE"
);
},
{
closed = 1;
nodes = (
"167 307 LINE",
"40 221 LINE",
"40 201 LINE",
"167 287 LINE"
);
}
);
width = 615;
},
{
components = (
{
name = L;
transform = "{1, 0, 0, 1, 20, 0}";
}
);
layerId = "0F8BB9BB-4444-4167-ACAA-B06A747D7052";
paths = (
{
closed = 1;
nodes = (
"186 300 LINE",
"400 442 LINE",
"400 502 LINE",
"187 360 LINE"
);
},
{
closed = 1;
nodes = (
"187 365 LINE",
"30 261 LINE",
"30 201 LINE",
"186 305 LINE"
);
}
);
width = 625;
},
{
components = (
{
name = L;
transform = "{1, 0, 0, 1, 30, 0}";
}
);
layerId = "F548E3CC-813E-497B-8EED-D24596D10F9A";
paths = (
{
closed = 1;
nodes = (
"226 275 LINE",
"515 460 LINE",
"515 530 LINE",
"226 345 LINE"
);
},
{
closed = 1;
nodes = (
"226 365 LINE",
"15 230 LINE",
"15 160 LINE",
"226 295 LINE"
);
}
);
width = 665;
}
);
rightKerningGroup = L;
rightMetricsKey = "=L";
unicode = 0141;
},
{
glyphname = M;
lastChange = "2016-10-10 18:45:16 +0000";
layers = (
{
anchors = (
{
name = bottom;
position = "{465, 0}";
},
{
name = top;
position = "{465, 700}";
}
);
components = (
{
name = szeryf;
transform = "{1, 0, 0, 1, 24, 0}";
},
{
name = szeryf;
transform = "{-1, 0, 0, 1, 906, 0}";
},
{
name = szeryf;
transform = "{1, 0, 0, 1, 624, 0}";
},
{
name = szeryf;
transform = "{-1, 0, 0, -1, 905, 700}";
},
{
name = szeryf;
transform = "{1, 0, 0, -1, 24, 700}";
},
{
name = szeryf_long;
transform = "{1, 0, 0, 1, -9, 0}";
}
);
guideLines = (
{
angle = 56.6048;
position = "{448, 140}";
},
{
angle = 56.6048;
position = "{746, 700}";
}
);
layerId = "0F8BB9BB-4444-4167-ACAA-B06A747D7052";
paths = (
{
closed = 1;
nodes = (
"180 525 LINE",
"448 140 LINE",
"469 275 LINE",
"173 700 LINE"
);
},
{
closed = 1;
nodes = (
"115 0 LINE",
"180 0 LINE",
"180 525 LINE",
"173 700 LINE",
"115 700 LINE"
);
},
{
closed = 1;
nodes = (
"469 275 LINE",
"448 140 LINE",
"715 545 LINE",
"746 700 LINE"
);
},
{
closed = 1;
nodes = (
"746 700 LINE",
"715 545 LINE",
"715 0 LINE",
"815 0 LINE",
"815 700 LINE"
);
}
);
width = 930;
},
{
anchors = (
{
name = bottom;
position = "{458, 0}";
},
{
name = top;
position = "{458, 700}";
}
);
components = (
{
name = szeryf;
transform = "{1, 0, 0, 1, -15, 0}";
},
{
name = szeryf;
transform = "{-1, 0, 0, 1, 950, 0}";
},
{
name = szeryf;
transform = "{1, 0, 0, 1, 530, 0}";
},
{
name = szeryf;
transform = "{-1, 0, 0, -1, 950, 700}";
},
{
name = szeryf;
transform = "{1, 0, 0, -1, -15, 700}";
},
{
name = szeryf_long;
transform = "{1, 0, 0, 1, -54, 0}";
}
);
guideLines = (
{
angle = 238.3487;
position = "{498, 273}";
},
{
angle = 238.3487;
position = "{418, 273}";
}
);
layerId = "F548E3CC-813E-497B-8EED-D24596D10F9A";
paths = (
{
closed = 1;
nodes = (
"135 475 LINE",
"385 90 LINE",
"484 380 LINE",
"279 700 LINE"
);
},
{
closed = 1;
nodes = (
"65 0 LINE",
"135 0 LINE",
"135 475 LINE",
"279 700 LINE",
"65 700 LINE"
);
},
{
closed = 1;
nodes = (
"484 380 LINE",
"385 90 LINE",
"610 455 LINE",
"681 700 LINE"
);
},
{
closed = 1;
nodes = (
"681 700 LINE",
"610 455 LINE",
"610 0 LINE",
"870 0 LINE",
"870 700 LINE"
);
}
);
width = 935;
},
{
anchors = (
{
name = bottom;
position = "{443, 0}";
},
{
name = top;
position = "{443, 700}";
}
);
components = (
{
name = szeryf;
transform = "{1, 0, 0, 1, -70, 0}";
},
{
name = szeryf;
transform = "{-1, 0, 0, 1, 955, 0}";
},
{
name = szeryf;
transform = "{1, 0, 0, 1, 565, 0}";
},
{
name = szeryf;
transform = "{-1, 0, 0, -1, 955, 700}";
},
{
name = szeryf;
transform = "{1, 0, 0, -1, -70, 700}";
},
{
name = szeryf_long;
transform = "{1, 0, 0, 1, -50, 0}";
}
);
layerId = "D94A17C2-4593-4D11-9DD5-BACEC39F5EAE";
paths = (
{
closed = 1;
nodes = (
"135 650 LINE",
"438 140 LINE",
"438 176 LINE",
"128 700 LINE"
);
},
{
closed = 1;
nodes = (
"115 0 LINE",
"135 0 LINE",
"135 650 LINE",
"128 700 LINE",
"115 700 LINE"
);
},
{
closed = 1;
nodes = (
"438 176 LINE",
"438 140 LINE",
"750 650 LINE",
"759 700 LINE"
);
},
{
closed = 1;
nodes = (
"759 700 LINE",
"750 650 LINE",
"750 0 LINE",
"770 0 LINE",
"770 700 LINE"
);
}
);
width = 885;
}
);
leftMetricsKey = "=H";
rightMetricsKey = "=H";
unicode = 004D;
},
{
glyphname = N;
lastChange = "2016-10-10 18:45:16 +0000";
layers = (
{
anchors = (
{
name = bottom;
position = "{410, 0}";
},
{
name = top;
position = "{410, 700}";
}
);
components = (
{
name = szeryf;
transform = "{1, 0, 0, 1, 24, 0}";
},
{
name = szeryf_long;
transform = "{1, 0, 0, 1, -9, 0}";
},
{
name = szeryf_long;
transform = "{-1, 0, 0, -1, 829, 700}";
},
{
name = szeryf;
transform = "{-1, 0, 0, -1, 796, 700}";
},
{
name = szeryf;
transform = "{1, 0, 0, -1, 24, 700}";
}
);
guideLines = (
{
angle = 90;
position = "{55, 0}";
}
);
layerId = "0F8BB9BB-4444-4167-ACAA-B06A747D7052";
paths = (
{
closed = 1;
nodes = (
"640 180 LINE",
"173 700 LINE",
"180 545 LINE",
"699 -30 LINE"
);
},
{
closed = 1;
nodes = (
"180 0 LINE",
"180 545 LINE",
"173 700 LINE",
"115 700 LINE",
"115 0 LINE"
);
},
{
closed = 1;
nodes = (
"705 -30 LINE",
"705 700 LINE",
"640 700 LINE",
"640 180 LINE",
"699 -30 LINE"
);
}
);
width = 810;
},
{
anchors = (
{
name = bottom;
position = "{395, 0}";
},
{
name = top;
position = "{395, 700}";
}
);
components = (
{
name = szeryf;
transform = "{1, 0, 0, 1, -15, 0}";
},
{
name = szeryf_long;
transform = "{1, 0, 0, 1, -54, 0}";
},
{
name = szeryf_long;
transform = "{-1, 0, 0, -1, 834, 700}";
},
{
name = szeryf;
transform = "{-1, 0, 0, -1, 795, 700}";
},
{
name = szeryf;
transform = "{1, 0, 0, -1, -15, 700}";
}
);
guideLines = (
{
angle = -35.2176;
position = "{754, -40}";
}
);
layerId = "F548E3CC-813E-497B-8EED-D24596D10F9A";
paths = (
{
closed = 1;
nodes = (
"645 319 LINE",
"135 700 LINE",
"135 380 LINE",
"709 -50 LINE"
);
},
{
closed = 1;
nodes = (
"135 0 LINE",
"135 380 LINE",
"135 700 LINE",
"65 700 LINE",
"65 0 LINE"
);
},
{
closed = 1;
nodes = (
"715 -50 LINE",
"715 700 LINE",
"645 700 LINE",
"645 319 LINE",
"709 -50 LINE"
);
}
);
width = 770;
},
{
anchors = (
{
name = bottom;
position = "{390, 0}";
},
{
name = top;
position = "{390, 700}";
}
);
components = (
{
name = szeryf;
transform = "{1, 0, 0, 1, -70, 0}";
},
{
name = szeryf_long;
transform = "{1, 0, 0, 1, -50, 0}";
},
{
name = szeryf_long;
transform = "{-1, 0, 0, -1, 815, 700}";
},
{
name = szeryf;
transform = "{-1, 0, 0, -1, 835, 700}";
},
{
name = szeryf;
transform = "{1, 0, 0, -1, -70, 700}";
}
);
layerId = "D94A17C2-4593-4D11-9DD5-BACEC39F5EAE";
paths = (
{
closed = 1;
nodes = (
"630 20 LINE",
"128 700 LINE",
"135 657 LINE",
"644 -30 LINE"
);
},
{
closed = 1;
nodes = (
"135 0 LINE",
"135 657 LINE",
"128 700 LINE",
"115 700 LINE",
"115 0 LINE"
);
},
{
closed = 1;
nodes = (
"650 -30 LINE",
"650 700 LINE",
"630 700 LINE",
"630 20 LINE",
"644 -30 LINE"
);
}
);
width = 760;
}
);
leftMetricsKey = "=H";
rightKerningGroup = U;
unicode = 004E;
},
{
glyphname = Eng;
lastChange = "2016-10-10 18:45:16 +0000";
layers = (
{
anchors = (
{
name = bottom;
position = "{390, 0}";
},
{
name = top;
position = "{390, 700}";
}
);
components = (
{
name = szeryf;
transform = "{1, 0, 0, 1, -70, 0}";
},
{
name = szeryf_long;
transform = "{1, 0, 0, 1, -50, 0}";
},
{
name = szeryf_long;
transform = "{-1, 0, 0, -1, 815, 700}";
},
{
name = szeryf;
transform = "{-1, 0, 0, -1, 835, 700}";
},
{
name = szeryf;
transform = "{1, 0, 0, -1, -70, 700}";
}
);
layerId = "D94A17C2-4593-4D11-9DD5-BACEC39F5EAE";
paths = (
{
closed = 1;
nodes = (
"634 -177 OFFCURVE",
"650 -113 OFFCURVE",
"650 10 CURVE",
"630 10 LINE",
"630 -104 OFFCURVE",
"618 -167 OFFCURVE",
"560 -235 CURVE",
"565 -240 LINE"
);
},
{
closed = 1;
nodes = (
"630 20 LINE",
"128 700 LINE",
"135 657 LINE",
"644 -30 LINE"
);
},
{
closed = 1;
nodes = (
"135 0 LINE",
"135 657 LINE",
"128 700 LINE",
"115 700 LINE",
"115 0 LINE"
);
},
{
closed = 1;
nodes = (
"650 10 LINE",
"650 700 LINE",
"630 700 LINE",
"630 20 LINE",
"644 -30 LINE"
);
}
);
width = 760;
},
{
anchors = (
{
name = bottom;
position = "{410, 0}";
},
{
name = top;
position = "{410, 700}";
}
);
components = (
{
name = szeryf;
transform = "{1, 0, 0, 1, 24, 0}";
},
{
name = szeryf_long;
transform = "{1, 0, 0, 1, -9, 0}";
},
{
name = szeryf_long;
transform = "{-1, 0, 0, -1, 829, 700}";
},
{
name = szeryf;
transform = "{-1, 0, 0, -1, 796, 700}";
},
{
name = szeryf;
transform = "{1, 0, 0, -1, 24, 700}";
}
);
layerId = "0F8BB9BB-4444-4167-ACAA-B06A747D7052";
paths = (
{
closed = 1;
nodes = (
"639 -197 OFFCURVE",
"705 -123 OFFCURVE",
"705 20 CURVE",
"640 40 LINE",
"640 -104 OFFCURVE",
"598 -167 OFFCURVE",
"525 -235 CURVE",
"530 -240 LINE"
);
},
{
closed = 1;
nodes = (
"640 180 LINE",
"173 700 LINE",
"180 545 LINE",
"680 -9 LINE"
);
},
{
closed = 1;
nodes = (
"180 0 LINE",
"180 545 LINE",
"173 700 LINE",
"115 700 LINE",
"115 0 LINE"
);
},
{
closed = 1;
nodes = (
"705 20 LINE",
"705 700 LINE",
"640 700 LINE",
"640 180 LINE",
"680 -9 LINE"
);
}
);
width = 810;
},
{
anchors = (
{
name = bottom;
position = "{385, 0}";
},
{
name = top;
position = "{385, 700}";
}
);
components = (
{
name = szeryf;
transform = "{1, 0, 0, 1, -15, 0}";
},
{
name = szeryf_long;
transform = "{1, 0, 0, 1, -54, 0}";
},
{
name = szeryf_long;
transform = "{-1, 0, 0, -1, 834, 700}";
},
{
name = szeryf;
transform = "{-1, 0, 0, -1, 795, 700}";
},
{
name = szeryf;
transform = "{1, 0, 0, -1, -15, 700}";
}
);
layerId = "F548E3CC-813E-497B-8EED-D24596D10F9A";
paths = (
{
closed = 1;
nodes = (
"636 -217 OFFCURVE",
"715 -123 OFFCURVE",
"715 70 CURVE",
"642 90 LINE",
"642 -74 OFFCURVE",
"615 -167 OFFCURVE",
"492 -235 CURVE",
"497 -240 LINE"
);
},
{
closed = 1;
nodes = (
"645 319 LINE",
"135 700 LINE",
"135 380 LINE",
"641 0 LINE"
);
},
{
closed = 1;
nodes = (
"135 0 LINE",
"135 380 LINE",
"135 700 LINE",
"65 700 LINE",
"65 0 LINE"
);
},
{
closed = 1;
nodes = (
"715 70 LINE",
"715 700 LINE",
"645 700 LINE",
"645 319 LINE",
"641 0 LINE"
);
}
);
width = 770;
}
);
leftMetricsKey = "=N";
rightKerningGroup = U;
rightMetricsKey = "=N";
unicode = 014A;
},
{
glyphname = O;
lastChange = "2016-09-19 22:26:32 +0000";
layers = (
{
anchors = (
{
name = bottom;
position = "{400, 0}";
},
{
name = center;
position = "{400, 350}";
},
{
name = ogonek;
position = "{724, 10}";
},
{
name = top;
position = "{400, 700}";
},
{
name = topleft;
position = "{15, 700}";
},
{
name = topright;
position = "{785, 700}";
}
);
layerId = "0F8BB9BB-4444-4167-ACAA-B06A747D7052";
paths = (
{
closed = 1;
nodes = (
"219 710 OFFCURVE",
"50 574 OFFCURVE",
"50 347 CURVE SMOOTH",
"50 120 OFFCURVE",
"219 -10 OFFCURVE",
"398 -10 CURVE SMOOTH",
"581 -10 OFFCURVE",
"750 126 OFFCURVE",
"750 353 CURVE SMOOTH",
"750 580 OFFCURVE",
"581 710 OFFCURVE",
"402 710 CURVE SMOOTH"
);
},
{
closed = 1;
nodes = (
"275 40 OFFCURVE",
"160 166 OFFCURVE",
"160 373 CURVE SMOOTH",
"160 549 OFFCURVE",
"243 660 OFFCURVE",
"380 660 CURVE SMOOTH",
"525 660 OFFCURVE",
"640 534 OFFCURVE",
"640 327 CURVE SMOOTH",
"640 151 OFFCURVE",
"557 40 OFFCURVE",
"420 40 CURVE SMOOTH"
);
}
);
width = 800;
},
{
anchors = (
{
name = bottom;
position = "{415, 0}";
},
{
name = center;
position = "{415, 350}";
},
{
name = ogonek;
position = "{751, 10}";
},
{
name = top;
position = "{415, 700}";
},
{
name = topleft;
position = "{15, 700}";
},
{
name = topright;
position = "{815, 700}";
}
);
layerId = "F548E3CC-813E-497B-8EED-D24596D10F9A";
paths = (
{
closed = 1;
nodes = (
"216 710 OFFCURVE",
"25 594 OFFCURVE",
"25 347 CURVE SMOOTH",
"25 100 OFFCURVE",
"216 -10 OFFCURVE",
"412 -10 CURVE SMOOTH",
"614 -10 OFFCURVE",
"805 106 OFFCURVE",
"805 353 CURVE SMOOTH",
"805 600 OFFCURVE",
"614 710 OFFCURVE",
"418 710 CURVE SMOOTH"
);
},
{
closed = 1;
nodes = (
"347 50 OFFCURVE",
"295 125 OFFCURVE",
"295 361 CURVE SMOOTH",
"295 546 OFFCURVE",
"324 650 OFFCURVE",
"409 650 CURVE SMOOTH",
"483 650 OFFCURVE",
"535 575 OFFCURVE",
"535 339 CURVE SMOOTH",
"535 154 OFFCURVE",
"506 50 OFFCURVE",
"421 50 CURVE SMOOTH"
);
}
);
width = 830;
},
{
anchors = (
{
name = bottom;
position = "{385, 0}";
},
{
name = center;
position = "{385, 350}";
},
{
name = ogonek;
position = "{697, 10}";
},
{
name = top;
position = "{385, 700}";
},
{
name = topleft;
position = "{15, 700}";
},
{
name = topright;
position = "{755, 700}";
}
);
layerId = "D94A17C2-4593-4D11-9DD5-BACEC39F5EAE";
paths = (
{
closed = 1;
nodes = (
"199 705 OFFCURVE",
"60 561 OFFCURVE",
"60 349 CURVE SMOOTH",
"60 137 OFFCURVE",
"199 -5 OFFCURVE",
"385 -5 CURVE SMOOTH",
"571 -5 OFFCURVE",
"710 139 OFFCURVE",
"710 351 CURVE SMOOTH",
"710 563 OFFCURVE",
"571 705 OFFCURVE",
"385 705 CURVE SMOOTH"
);
},
{
closed = 1;
nodes = (
"210 13 OFFCURVE",
"80 148 OFFCURVE",
"80 350 CURVE SMOOTH",
"80 552 OFFCURVE",
"208 687 OFFCURVE",
"382 687 CURVE SMOOTH",
"560 687 OFFCURVE",
"690 552 OFFCURVE",
"690 350 CURVE SMOOTH",
"690 148 OFFCURVE",
"562 13 OFFCURVE",
"388 13 CURVE SMOOTH"
);
}
);
width = 770;
}
);
leftKerningGroup = O;
leftMetricsKey = "=o+5";
rightKerningGroup = O;
rightMetricsKey = "=o+5";
unicode = 004F;
},
{
glyphname = Oslash;
lastChange = "2016-08-05 20:49:57 +0000";
layers = (
{
components = (
{
name = O;
}
);
layerId = "D94A17C2-4593-4D11-9DD5-BACEC39F5EAE";
paths = (
{
closed = 1;
nodes = (
"140 -19 LINE",
"644 701 LINE",
"632 711 LINE",
"125 -9 LINE"
);
}
);
width = 770;
},
{
components = (
{
name = O;
}
);
layerId = "0F8BB9BB-4444-4167-ACAA-B06A747D7052";
paths = (
{
closed = 1;
nodes = (
"160 -18 LINE",
"653 686 LINE",
"621 710 LINE",
"127 5 LINE"
);
}
);
width = 800;
},
{
components = (
{
name = O;
}
);
layerId = "F548E3CC-813E-497B-8EED-D24596D10F9A";
paths = (
{
closed = 1;
nodes = (
"173 -53 LINE",
"705 708 LINE",
"659 743 LINE",
"124 -18 LINE"
);
}
);
width = 830;
}
);
leftKerningGroup = O;
leftMetricsKey = "=O";
rightKerningGroup = O;
rightMetricsKey = "=O";
unicode = 00D8;
},
{
glyphname = OE;
lastChange = "2016-09-22 14:21:10 +0000";
layers = (
{
anchors = (
{
name = bottom;
position = "{305, 0}";
},
{
name = center;
position = "{305, 372}";
},
{
name = top;
position = "{305, 700}";
}
);
components = (
{
name = szeryf_pion_E;
transform = "{1, 0, 0, 1, 860, 33}";
},
{
name = szeryf_pion_E;
transform = "{1, 0, 0, -1, 890, 668}";
}
);
layerId = "D94A17C2-4593-4D11-9DD5-BACEC39F5EAE";
paths = (
{
closed = 1;
nodes = (
"209 700 OFFCURVE",
"60 589 OFFCURVE",
"60 352 CURVE",
"80 350 LINE",
"80 577 OFFCURVE",
"219 682 OFFCURVE",
"388 682 CURVE SMOOTH",
"540 682 LINE",
"540 700 LINE",
"388 700 LINE SMOOTH"
);
},
{
closed = 1;
nodes = (
"60 352 LINE",
"60 125 OFFCURVE",
"209 0 OFFCURVE",
"388 0 CURVE SMOOTH",
"540 0 LINE",
"540 20 LINE",
"388 20 LINE SMOOTH",
"219 20 OFFCURVE",
"80 133 OFFCURVE",
"80 350 CURVE"
);
},
{
closed = 1;
nodes = (
"560 700 LINE",
"560 682 LINE",
"930 682 LINE",
"930 700 LINE"
);
},
{
closed = 1;
nodes = (
"540 0 LINE",
"560 0 LINE",
"560 700 LINE",
"540 700 LINE"
);
},
{
closed = 1;
nodes = (
"560 0 LINE",
"960 0 LINE",
"960 18 LINE",
"560 18 LINE"
);
},
{
closed = 1;
nodes = (
"551 355 LINE",
"847 355 LINE",
"847 373 LINE",
"551 373 LINE"
);
},
{
closed = 1;
nodes = (
"847 460 LINE",
"832 373 LINE",
"847 373 LINE"
);
},
{
closed = 1;
nodes = (
"832 355 LINE",
"847 268 LINE",
"847 355 LINE"
);
}
);
width = 1015;
},
{
anchors = (
{
name = bottom;
position = "{335, 0}";
},
{
name = center;
position = "{335, 370}";
},
{
name = top;
position = "{335, 700}";
}
);
components = (
{
name = szeryf_pion_E;
transform = "{1, 0, 0, 1, 793, 0}";
},
{
name = szeryf_pion_E;
transform = "{1, 0, 0, -1, 823, 700}";
}
);
layerId = "0F8BB9BB-4444-4167-ACAA-B06A747D7052";
paths = (
{
closed = 1;
nodes = (
"219 700 OFFCURVE",
"50 597 OFFCURVE",
"50 360 CURVE",
"160 350 LINE",
"160 551 OFFCURVE",
"259 650 OFFCURVE",
"408 650 CURVE SMOOTH",
"510 650 LINE",
"510 700 LINE",
"398 700 LINE SMOOTH"
);
},
{
closed = 1;
nodes = (
"50 360 LINE",
"50 133 OFFCURVE",
"219 0 OFFCURVE",
"398 0 CURVE SMOOTH",
"510 0 LINE",
"510 50 LINE",
"408 50 LINE SMOOTH",
"259 50 OFFCURVE",
"160 159 OFFCURVE",
"160 350 CURVE"
);
},
{
closed = 1;
nodes = (
"610 700 LINE",
"610 650 LINE",
"940 650 LINE",
"940 700 LINE"
);
},
{
closed = 1;
nodes = (
"510 0 LINE",
"610 0 LINE",
"610 700 LINE",
"510 700 LINE"
);
},
{
closed = 1;
nodes = (
"610 0 LINE",
"970 0 LINE",
"970 50 LINE",
"610 50 LINE"
);
},
{
closed = 1;
nodes = (
"601 335 LINE",
"857 335 LINE",
"857 385 LINE",
"601 385 LINE"
);
},
{
closed = 1;
nodes = (
"857 475 LINE",
"789 385 LINE",
"857 385 LINE"
);
},
{
closed = 1;
nodes = (
"789 335 LINE",
"857 245 LINE",
"857 335 LINE"
);
}
);
width = 1015;
},
{
anchors = (
{
name = bottom;
position = "{402, 0}";
},
{
name = center;
position = "{402, 365}";
},
{
name = top;
position = "{402, 700}";
}
);
components = (
{
name = szeryf_pion_E;
transform = "{1, 0, 0, 1, 897, -10}";
},
{
name = szeryf_pion_E;
transform = "{1, 0, 0, -1, 927, 710}";
}
);
layerId = "F548E3CC-813E-497B-8EED-D24596D10F9A";
paths = (
{
closed = 1;
nodes = (
"204 700 OFFCURVE",
"25 597 OFFCURVE",
"25 360 CURVE",
"295 350 LINE",
"295 551 OFFCURVE",
"354 640 OFFCURVE",
"453 640 CURVE SMOOTH",
"505 640 LINE",
"505 700 LINE",
"423 700 LINE SMOOTH"
);
},
{
closed = 1;
nodes = (
"25 360 LINE",
"25 133 OFFCURVE",
"204 0 OFFCURVE",
"423 0 CURVE SMOOTH",
"505 0 LINE",
"505 60 LINE",
"453 60 LINE SMOOTH",
"354 60 OFFCURVE",
"295 159 OFFCURVE",
"295 350 CURVE"
);
},
{
closed = 1;
nodes = (
"765 700 LINE",
"765 640 LINE",
"1035 640 LINE",
"1035 700 LINE"
);
},
{
closed = 1;
nodes = (
"505 0 LINE",
"765 0 LINE",
"765 700 LINE",
"505 700 LINE"
);
},
{
closed = 1;
nodes = (
"765 0 LINE",
"1065 0 LINE",
"1065 60 LINE",
"765 60 LINE"
);
},
{
closed = 1;
nodes = (
"756 330 LINE",
"952 330 LINE",
"952 390 LINE",
"756 390 LINE"
);
},
{
closed = 1;
nodes = (
"952 504 LINE",
"851 390 LINE",
"952 390 LINE"
);
},
{
closed = 1;
nodes = (
"851 330 LINE",
"952 226 LINE",
"952 330 LINE"
);
}
);
width = 1095;
}
);
leftKerningGroup = O;
leftMetricsKey = "=O";
rightMetricsKey = "=E";
unicode = 0152;
},
{
glyphname = P;
lastChange = "2016-10-11 00:52:18 +0000";
layers = (
{
anchors = (
{
name = bottom;
position = "{320, 0}";
},
{
name = top;
position = "{320, 700}";
}
);
components = (
{
name = szeryf;
transform = "{1, 0, 0, 1, 24, 0}";
},
{
name = szeryf;
transform = "{1, 0, 0, -1, 24, 700}";
},
{
name = szeryf_long;
transform = "{1, 0, 0, 1, 26, 0}";
}
);
layerId = "0F8BB9BB-4444-4167-ACAA-B06A747D7052";
paths = (
{
closed = 1;
nodes = (
"115 0 LINE",
"215 0 LINE",
"215 700 LINE",
"115 700 LINE"
);
},
{
closed = 1;
nodes = (
"215 700 LINE",
"215 650 LINE",
"317 650 LINE SMOOTH",
"426 650 OFFCURVE",
"485 596 OFFCURVE",
"485 500 CURVE SMOOTH",
"485 404 OFFCURVE",
"426 340 OFFCURVE",
"317 340 CURVE SMOOTH",
"215 340 LINE",
"215 290 LINE",
"327 290 LINE SMOOTH",
"486 290 OFFCURVE",
"595 380 OFFCURVE",
"595 512 CURVE SMOOTH",
"595 644 OFFCURVE",
"486 700 OFFCURVE",
"327 700 CURVE SMOOTH"
);
}
);
width = 620;
},
{
anchors = (
{
name = bottom;
position = "{370, 0}";
},
{
name = top;
position = "{370, 700}";
}
);
components = (
{
name = szeryf;
transform = "{1, 0, 0, 1, -15, 0}";
},
{
name = szeryf;
transform = "{1, 0, 0, -1, -15, 700}";
},
{
name = szeryf_long;
transform = "{1, 0, 0, 1, 136, 0}";
}
);
layerId = "F548E3CC-813E-497B-8EED-D24596D10F9A";
paths = (
{
closed = 1;
nodes = (
"65 0 LINE",
"325 0 LINE",
"325 700 LINE",
"65 700 LINE"
);
},
{
closed = 1;
nodes = (
"325 700 LINE",
"325 640 LINE",
"352 640 LINE SMOOTH",
"411 640 OFFCURVE",
"460 591 OFFCURVE",
"460 480 CURVE SMOOTH",
"460 369 OFFCURVE",
"411 320 OFFCURVE",
"352 320 CURVE SMOOTH",
"325 320 LINE",
"325 260 LINE",
"392 260 LINE SMOOTH",
"571 260 OFFCURVE",
"710 345 OFFCURVE",
"710 492 CURVE SMOOTH",
"710 639 OFFCURVE",
"571 700 OFFCURVE",
"392 700 CURVE SMOOTH"
);
}
);
width = 715;
},
{
anchors = (
{
name = bottom;
position = "{298, 0}";
},
{
name = top;
position = "{298, 700}";
}
);
components = (
{
name = szeryf;
transform = "{1, 0, 0, 1, -70, 0}";
},
{
name = szeryf;
transform = "{1, 0, 0, -1, -70, 700}";
},
{
name = szeryf_long;
transform = "{1, 0, 0, 1, -50, 0}";
}
);
layerId = "D94A17C2-4593-4D11-9DD5-BACEC39F5EAE";
paths = (
{
closed = 1;
nodes = (
"115 0 LINE",
"135 0 LINE",
"135 700 LINE",
"115 700 LINE"
);
},
{
closed = 1;
nodes = (
"135 700 LINE",
"135 682 LINE",
"287 682 LINE SMOOTH",
"436 682 OFFCURVE",
"520 612 OFFCURVE",
"520 505 CURVE SMOOTH",
"520 388 OFFCURVE",
"436 318 OFFCURVE",
"287 318 CURVE SMOOTH",
"135 318 LINE",
"135 300 LINE",
"297 300 LINE SMOOTH",
"446 300 OFFCURVE",
"540 378 OFFCURVE",
"540 505 CURVE SMOOTH",
"540 622 OFFCURVE",
"446 700 OFFCURVE",
"297 700 CURVE SMOOTH"
);
}
);
width = 575;
}
);
leftMetricsKey = "=H";
rightKerningGroup = P;
unicode = 0050;
},
{
glyphname = Thorn;
lastChange = "2016-10-10 19:27:56 +0000";
layers = (
{
components = (
{
name = I;
transform = "{1, 0, 0, 1, -5, 0}";
}
);
layerId = "D94A17C2-4593-4D11-9DD5-BACEC39F5EAE";
paths = (
{
closed = 1;
nodes = (
"130 580 LINE",
"130 562 LINE",
"322 562 LINE SMOOTH",
"471 562 OFFCURVE",
"565 492 OFFCURVE",
"565 355 CURVE SMOOTH",
"565 208 OFFCURVE",
"471 138 OFFCURVE",
"322 138 CURVE SMOOTH",
"130 138 LINE",
"130 120 LINE",
"332 120 LINE SMOOTH",
"481 120 OFFCURVE",
"585 198 OFFCURVE",
"585 355 CURVE SMOOTH",
"585 502 OFFCURVE",
"481 580 OFFCURVE",
"332 580 CURVE SMOOTH"
);
}
);
width = 645;
},
{
components = (
{
name = I;
transform = "{1, 0, 0, 1, -5, 0}";
}
);
layerId = "0F8BB9BB-4444-4167-ACAA-B06A747D7052";
paths = (
{
closed = 1;
nodes = (
"210 590 LINE",
"210 540 LINE",
"342 540 LINE SMOOTH",
"461 540 OFFCURVE",
"530 471 OFFCURVE",
"530 355 CURVE SMOOTH",
"530 239 OFFCURVE",
"461 170 OFFCURVE",
"342 170 CURVE SMOOTH",
"210 170 LINE",
"210 120 LINE",
"352 120 LINE SMOOTH",
"521 120 OFFCURVE",
"640 210 OFFCURVE",
"640 362 CURVE SMOOTH",
"640 514 OFFCURVE",
"521 590 OFFCURVE",
"352 590 CURVE SMOOTH"
);
}
);
width = 690;
},
{
components = (
{
name = I;
transform = "{1, 0, 0, 1, -5, 0}";
}
);
layerId = "F548E3CC-813E-497B-8EED-D24596D10F9A";
paths = (
{
closed = 1;
nodes = (
"310 610 LINE",
"310 550 LINE",
"357 550 LINE SMOOTH",
"416 550 OFFCURVE",
"465 501 OFFCURVE",
"465 360 CURVE SMOOTH",
"465 219 OFFCURVE",
"416 170 OFFCURVE",
"357 170 CURVE SMOOTH",
"310 170 LINE",
"310 110 LINE",
"397 110 LINE SMOOTH",
"576 110 OFFCURVE",
"715 190 OFFCURVE",
"715 367 CURVE SMOOTH",
"715 544 OFFCURVE",
"576 610 OFFCURVE",
"397 610 CURVE SMOOTH"
);
}
);
width = 740;
}
);
leftMetricsKey = "=P";
rightKerningGroup = O;
rightMetricsKey = "=D";
unicode = 00DE;
},
{
glyphname = Q;
lastChange = "2016-09-24 12:28:29 +0000";
layers = (
{
anchors = (
{
name = bottom;
position = "{405, 0}";
},
{
name = top;
position = "{405, 700}";
}
);
components = (
{
alignment = -1;
name = O;
}
);
guideLines = (
{
angle = 90;
position = "{746, -178}";
},
{
angle = 90;
position = "{413, 710}";
}
);
layerId = "0F8BB9BB-4444-4167-ACAA-B06A747D7052";
paths = (
{
closed = 1;
nodes = (
"716 -181 LINE",
"608 -155 OFFCURVE",
"501 -78 OFFCURVE",
"471 12 CURVE",
"346 12 LINE",
"436 -128 OFFCURVE",
"551 -193 OFFCURVE",
"716 -186 CURVE"
);
}
);
width = 800;
},
{
associatedMasterId = "0F8BB9BB-4444-4167-ACAA-B06A747D7052";
layerId = "3F082CBD-019B-4180-A5B8-014E574861CD";
name = "Regular Jan 28 16, 13:11";
paths = (
{
closed = 1;
nodes = (
"125 350 LINE",
"125 541 OFFCURVE",
"219 654 OFFCURVE",
"368 654 CURVE",
"368 710 LINE",
"179 710 OFFCURVE",
"20 577 OFFCURVE",
"20 350 CURVE"
);
},
{
closed = 1;
nodes = (
"20 123 OFFCURVE",
"179 -10 OFFCURVE",
"368 -10 CURVE",
"368 46 LINE",
"219 46 OFFCURVE",
"125 159 OFFCURVE",
"125 350 CURVE",
"20 350 LINE"
);
},
{
closed = 1;
nodes = (
"716 577 OFFCURVE",
"557 710 OFFCURVE",
"368 710 CURVE",
"368 654 LINE",
"517 654 OFFCURVE",
"611 541 OFFCURVE",
"611 350 CURVE",
"716 350 LINE"
);
},
{
closed = 1;
nodes = (
"611 350 LINE",
"611 159 OFFCURVE",
"517 46 OFFCURVE",
"368 46 CURVE",
"368 -10 LINE",
"557 -10 OFFCURVE",
"716 123 OFFCURVE",
"716 350 CURVE"
);
}
);
width = 736;
},
{
anchors = (
{
name = bottom;
position = "{420, 0}";
},
{
name = top;
position = "{420, 700}";
}
);
components = (
{
alignment = -1;
name = O;
}
);
guideLines = (
{
angle = 90;
position = "{806, 350}";
}
);
layerId = "F548E3CC-813E-497B-8EED-D24596D10F9A";
paths = (
{
closed = 1;
nodes = (
"736 -181 LINE",
"608 -144 OFFCURVE",
"551 -42 OFFCURVE",
"541 32 CURVE",
"291 32 LINE",
"371 -158 OFFCURVE",
"551 -203 OFFCURVE",
"736 -186 CURVE"
);
}
);
width = 830;
},
{
anchors = (
{
name = bottom;
position = "{390, 0}";
},
{
name = top;
position = "{390, 700}";
}
);
components = (
{
alignment = -1;
name = O;
}
);
guideLines = (
{
angle = 90;
position = "{706, 350}";
}
);
layerId = "D94A17C2-4593-4D11-9DD5-BACEC39F5EAE";
paths = (
{
closed = 1;
nodes = (
"652 -171 LINE",
"524 -169 OFFCURVE",
"454 -88 OFFCURVE",
"399 5 CURVE",
"377 5 LINE",
"437 -95 OFFCURVE",
"507 -183 OFFCURVE",
"652 -176 CURVE"
);
}
);
width = 770;
},
{
associatedMasterId = "F548E3CC-813E-497B-8EED-D24596D10F9A";
components = (
{
name = O;
}
);
guideLines = (
{
angle = 90;
position = "{806, 350}";
}
);
layerId = "C64F48B3-BCE0-4031-99FB-03C743EE0E17";
name = "Bold Jul 5 16, 01:36";
paths = (
{
closed = 1;
nodes = (
"806 -176 LINE",
"678 -150 OFFCURVE",
"621 -48 OFFCURVE",
"611 32 CURVE",
"361 32 LINE",
"441 -158 OFFCURVE",
"621 -203 OFFCURVE",
"806 -186 CURVE"
);
}
);
width = 836;
},
{
associatedMasterId = "0F8BB9BB-4444-4167-ACAA-B06A747D7052";
guideLines = (
{
angle = 90;
position = "{746, -178}";
},
{
angle = 90;
position = "{413, 710}";
}
);
layerId = "4D17BC0F-2C14-479D-8246-245FF135EA25";
name = "Regular Jul 5 16, 01:36";
paths = (
{
closed = 1;
nodes = (
"160 328 LINE",
"160 538 OFFCURVE",
"249 660 OFFCURVE",
"390 660 CURVE SMOOTH",
"527 660 OFFCURVE",
"636 544 OFFCURVE",
"636 342 CURVE SMOOTH",
"636 162 OFFCURVE",
"547 0 OFFCURVE",
"286 40 CURVE",
"276 -10 LINE",
"577 -50 OFFCURVE",
"746 126 OFFCURVE",
"746 353 CURVE SMOOTH",
"746 580 OFFCURVE",
"577 710 OFFCURVE",
"400 710 CURVE SMOOTH",
"219 710 OFFCURVE",
"50 574 OFFCURVE",
"50 317 CURVE"
);
},
{
closed = 1;
nodes = (
"746 -176 LINE",
"548 -170 OFFCURVE",
"160 -60 OFFCURVE",
"160 328 CURVE",
"50 317 LINE",
"50 -72 OFFCURVE",
"491 -213 OFFCURVE",
"746 -186 CURVE"
);
}
);
width = 796;
}
);
leftKerningGroup = O;
leftMetricsKey = "=O";
rightKerningGroup = O;
rightMetricsKey = "=O";
unicode = 0051;
},
{
glyphname = R;
lastChange = "2016-10-17 17:43:03 +0000";
layers = (
{
anchors = (
{
name = bottom;
position = "{348, 0}";
},
{
name = top;
position = "{328, 700}";
}
);
components = (
{
name = szeryf;
transform = "{1, 0, 0, 1, 24, 0}";
},
{
name = szeryf;
transform = "{1, 0, 0, -1, 24, 700}";
},
{
name = szeryf;
transform = "{-1, 0, 0, 1, 306, 0}";
}
);
layerId = "0F8BB9BB-4444-4167-ACAA-B06A747D7052";
paths = (
{
closed = 1;
nodes = (
"710 0 LINE",
"581 64 OFFCURVE",
"495 204 OFFCURVE",
"389 370 CURVE",
"269 370 LINE",
"450 101 OFFCURVE",
"500 -25 OFFCURVE",
"710 -5 CURVE"
);
},
{
closed = 1;
nodes = (
"115 0 LINE",
"215 0 LINE",
"215 700 LINE",
"115 700 LINE"
);
},
{
closed = 1;
nodes = (
"215 700 LINE",
"215 650 LINE",
"317 650 LINE SMOOTH",
"416 650 OFFCURVE",
"475 603 OFFCURVE",
"475 519 CURVE SMOOTH",
"475 448 OFFCURVE",
"433 379 OFFCURVE",
"269 370 CURVE",
"327 330 LINE",
"476 340 OFFCURVE",
"585 414 OFFCURVE",
"585 531 CURVE SMOOTH",
"585 648 OFFCURVE",
"476 700 OFFCURVE",
"327 700 CURVE SMOOTH"
);
}
);
width = 685;
},
{
anchors = (
{
name = bottom;
position = "{408, 0}";
},
{
name = top;
position = "{398, 700}";
}
);
components = (
{
name = szeryf;
transform = "{1, 0, 0, 1, -15, 0}";
},
{
name = szeryf;
transform = "{1, 0, 0, -1, -15, 700}";
},
{
name = szeryf;
transform = "{-1, 0, 0, 1, 405, 0}";
}
);
layerId = "F548E3CC-813E-497B-8EED-D24596D10F9A";
paths = (
{
closed = 1;
nodes = (
"835 0 LINE",
"716 74 OFFCURVE",
"650 210 OFFCURVE",
"604 386 CURVE",
"363 340 LINE",
"424 71 OFFCURVE",
"545 -25 OFFCURVE",
"835 -5 CURVE"
);
},
{
closed = 1;
nodes = (
"65 0 LINE",
"325 0 LINE",
"325 700 LINE",
"65 700 LINE"
);
},
{
closed = 1;
nodes = (
"325 700 LINE",
"325 640 LINE",
"373 640 LINE SMOOTH",
"422 640 OFFCURVE",
"471 591 OFFCURVE",
"471 500 CURVE SMOOTH",
"471 419 OFFCURVE",
"432 365 OFFCURVE",
"363 340 CURVE",
"413 320 LINE",
"587 331 OFFCURVE",
"721 393 OFFCURVE",
"721 518 CURVE SMOOTH",
"721 645 OFFCURVE",
"583 700 OFFCURVE",
"413 700 CURVE SMOOTH"
);
}
);
width = 795;
},
{
anchors = (
{
name = bottom;
position = "{320, 0}";
},
{
name = top;
position = "{310, 700}";
}
);
components = (
{
name = szeryf;
transform = "{1, 0, 0, 1, -70, 0}";
},
{
name = szeryf;
transform = "{1, 0, 0, -1, -70, 700}";
},
{
name = szeryf;
transform = "{-1, 0, 0, 1, 320, 0}";
}
);
layerId = "D94A17C2-4593-4D11-9DD5-BACEC39F5EAE";
paths = (
{
closed = 1;
nodes = (
"625 0 LINE",
"516 4 OFFCURVE",
"469 79 OFFCURVE",
"290 348 CURVE",
"268 348 LINE",
"444 76 OFFCURVE",
"510 -17 OFFCURVE",
"625 -5 CURVE"
);
},
{
closed = 1;
nodes = (
"115 0 LINE",
"135 0 LINE",
"135 700 LINE",
"115 700 LINE"
);
},
{
closed = 1;
nodes = (
"135 700 LINE",
"135 682 LINE",
"297 682 LINE SMOOTH",
"426 682 OFFCURVE",
"510 632 OFFCURVE",
"510 525 CURVE SMOOTH",
"510 428 OFFCURVE",
"407 353 OFFCURVE",
"268 348 CURVE",
"285 332 LINE",
"417 337 OFFCURVE",
"530 418 OFFCURVE",
"530 525 CURVE SMOOTH",
"530 642 OFFCURVE",
"436 700 OFFCURVE",
"307 700 CURVE SMOOTH"
);
}
);
width = 630;
},
{
associatedMasterId = "F548E3CC-813E-497B-8EED-D24596D10F9A";
layerId = "3D018E68-AC29-42D8-A143-9786B52FA837";
name = "Bold Jun 27 16, 19:00";
paths = (
{
closed = 1;
nodes = (
"837 -10 LINE",
"738 54 OFFCURVE",
"691 140 OFFCURVE",
"605 336 CURVE",
"355 336 LINE",
"466 37 OFFCURVE",
"517 -20 OFFCURVE",
"837 -20 CURVE"
);
}
);
width = 767;
}
);
leftMetricsKey = "=H";
rightKerningGroup = R;
unicode = 0052;
},
{
glyphname = S;
lastChange = "2016-10-25 19:21:06 +0000";
layers = (
{
anchors = (
{
name = bottom;
position = "{295, 0}";
},
{
name = top;
position = "{295, 700}";
}
);
layerId = "0F8BB9BB-4444-4167-ACAA-B06A747D7052";
paths = (
{
closed = 1;
nodes = (
"169 586 OFFCURVE",
"192 660 OFFCURVE",
"308 660 CURVE SMOOTH",
"372 660 OFFCURVE",
"417 635 OFFCURVE",
"494 582 CURVE",
"494 659 LINE",
"428 693 OFFCURVE",
"370 710 OFFCURVE",
"304 710 CURVE SMOOTH",
"166 710 OFFCURVE",
"74 636 OFFCURVE",
"74 527 CURVE SMOOTH",
"74 293 OFFCURVE",
"430 351 OFFCURVE",
"430 163 CURVE SMOOTH",
"430 111 OFFCURVE",
"410 40 OFFCURVE",
"290 40 CURVE SMOOTH",
"212 40 OFFCURVE",
"152 73 OFFCURVE",
"70 138 CURVE",
"70 51 LINE",
"135 17 OFFCURVE",
"206 -10 OFFCURVE",
"293 -10 CURVE SMOOTH",
"429 -10 OFFCURVE",
"530 61 OFFCURVE",
"530 182 CURVE SMOOTH",
"530 431 OFFCURVE",
"169 386 OFFCURVE",
"169 539 CURVE SMOOTH"
);
},
{
closed = 1;
nodes = (
"494 710 LINE",
"376 650 LINE",
"494 650 LINE"
);
},
{
closed = 1;
nodes = (
"70 -9 LINE",
"188 51 LINE",
"70 51 LINE"
);
},
{
closed = 1;
nodes = (
"376 650 LINE",
"494 491 LINE",
"494 650 LINE"
);
},
{
closed = 1;
nodes = (
"188 51 LINE",
"70 210 LINE",
"70 51 LINE"
);
}
);
width = 580;
},
{
anchors = (
{
name = bottom;
position = "{318, 0}";
},
{
name = top;
position = "{318, 700}";
}
);
layerId = "F548E3CC-813E-497B-8EED-D24596D10F9A";
paths = (
{
closed = 1;
nodes = (
"280 603 OFFCURVE",
"298 650 OFFCURVE",
"369 650 CURVE SMOOTH",
"433 650 OFFCURVE",
"492 611 OFFCURVE",
"563 562 CURVE",
"563 649 LINE",
"505 679 OFFCURVE",
"431 710 OFFCURVE",
"330 710 CURVE SMOOTH",
"167 710 OFFCURVE",
"45 628 OFFCURVE",
"45 491 CURVE SMOOTH",
"45 271 OFFCURVE",
"360 271 OFFCURVE",
"360 134 CURVE SMOOTH",
"360 91 OFFCURVE",
"329 55 OFFCURVE",
"267 55 CURVE SMOOTH",
"181 55 OFFCURVE",
"106 124 OFFCURVE",
"46 173 CURVE",
"46 61 LINE",
"135 16 OFFCURVE",
"212 -10 OFFCURVE",
"312 -10 CURVE SMOOTH",
"435 -10 OFFCURVE",
"600 30 OFFCURVE",
"600 206 CURVE SMOOTH",
"600 452 OFFCURVE",
"280 438 OFFCURVE",
"280 568 CURVE SMOOTH"
);
},
{
closed = 1;
nodes = (
"563 710 LINE",
"416 659 LINE",
"563 659 LINE"
);
},
{
closed = 1;
nodes = (
"46 -9 LINE",
"193 51 LINE",
"46 51 LINE"
);
},
{
closed = 1;
nodes = (
"416 659 LINE",
"563 450 LINE",
"563 659 LINE"
);
},
{
closed = 1;
nodes = (
"193 51 LINE",
"46 260 LINE",
"46 51 LINE"
);
}
);
width = 620;
},
{
anchors = (
{
name = bottom;
position = "{288, 0}";
},
{
name = top;
position = "{288, 700}";
}
);
layerId = "D94A17C2-4593-4D11-9DD5-BACEC39F5EAE";
paths = (
{
closed = 1;
nodes = (
"114 625 OFFCURVE",
"182 687 OFFCURVE",
"307 687 CURVE SMOOTH",
"362 687 OFFCURVE",
"404 675 OFFCURVE",
"474 639 CURVE",
"474 659 LINE",
"408 693 OFFCURVE",
"362 705 OFFCURVE",
"306 705 CURVE SMOOTH",
"172 705 OFFCURVE",
"94 635 OFFCURVE",
"94 529 CURVE SMOOTH",
"94 288 OFFCURVE",
"485 414 OFFCURVE",
"485 176 CURVE SMOOTH",
"485 74 OFFCURVE",
"413 13 OFFCURVE",
"289 13 CURVE SMOOTH",
"232 13 OFFCURVE",
"160 26 OFFCURVE",
"80 70 CURVE",
"80 51 LINE",
"145 17 OFFCURVE",
"217 -5 OFFCURVE",
"293 -5 CURVE SMOOTH",
"428 -5 OFFCURVE",
"505 65 OFFCURVE",
"505 178 CURVE SMOOTH",
"505 432 OFFCURVE",
"114 306 OFFCURVE",
"114 533 CURVE SMOOTH"
);
},
{
closed = 1;
nodes = (
"474 710 LINE",
"452 652 LINE",
"474 652 LINE"
);
},
{
closed = 1;
nodes = (
"80 -9 LINE",
"102 51 LINE",
"80 51 LINE"
);
},
{
closed = 1;
nodes = (
"452 652 LINE",
"474 523 LINE",
"474 652 LINE"
);
},
{
closed = 1;
nodes = (
"102 51 LINE",
"80 180 LINE",
"80 51 LINE"
);
}
);
width = 565;
}
);
leftKerningGroup = S;
leftMetricsKey = "=O+20";
rightKerningGroup = S;
unicode = 0053;
},
{
glyphname = Germandbls;
lastChange = "2016-10-25 09:26:40 +0000";
layers = (
{
components = (
{
name = szeryf;
transform = "{1, 0, 0, 1, -75, 0}";
},
{
name = szeryf;
transform = "{1, 0, 0, -1, -75, 700}";
},
{
name = szeryf;
transform = "{-1, 0, 0, 1, 315, 0}";
}
);
layerId = "D94A17C2-4593-4D11-9DD5-BACEC39F5EAE";
paths = (
{
closed = 1;
nodes = (
"518 -5 OFFCURVE",
"589 91 OFFCURVE",
"589 198 CURVE SMOOTH",
"589 311 OFFCURVE",
"511 400 OFFCURVE",
"337 420 CURVE",
"327 406 LINE",
"490 385 OFFCURVE",
"569 311 OFFCURVE",
"569 198 CURVE SMOOTH",
"569 91 OFFCURVE",
"493 -6 OFFCURVE",
"325 18 CURVE",
"372 -5 LINE"
);
},
{
closed = 1;
nodes = (
"325 18 LINE",
"246 66 LINE",
"231 46 LINE",
"268 20 OFFCURVE",
"312 -5 OFFCURVE",
"372 -5 CURVE"
);
},
{
closed = 1;
nodes = (
"130 0 LINE",
"130 700 LINE",
"110 700 LINE",
"110 0 LINE"
);
},
{
closed = 1;
nodes = (
"301 354 LINE",
"545 700 LINE",
"509 682 LINE",
"285 364 LINE"
);
},
{
closed = 1;
nodes = (
"509 682 LINE",
"545 700 LINE",
"130 700 LINE",
"130 682 LINE"
);
}
);
width = 644;
},
{
components = (
{
name = szeryf;
transform = "{1, 0, 0, 1, -1, 0}";
},
{
name = szeryf;
transform = "{-1, 0, 0, 1, 281, 0}";
},
{
name = szeryf;
transform = "{1, 0, 0, -1, -1, 700}";
}
);
guideLines = (
{
angle = 143.3929;
position = "{343, 307}";
},
{
angle = 143.3929;
position = "{440, 40}";
}
);
layerId = "0F8BB9BB-4444-4167-ACAA-B06A747D7052";
paths = (
{
closed = 1;
nodes = (
"553 -10 OFFCURVE",
"667 77 OFFCURVE",
"667 209 CURVE SMOOTH",
"667 324 OFFCURVE",
"580 430 OFFCURVE",
"397 448 CURVE",
"335 371 LINE",
"495 361 OFFCURVE",
"567 286 OFFCURVE",
"567 195 CURVE SMOOTH",
"567 111 OFFCURVE",
"514 40 OFFCURVE",
"440 40 CURVE",
"430 -10 LINE"
);
},
{
closed = 1;
nodes = (
"440 40 LINE",
"335 118 LINE",
"275 38 LINE",
"313 9 OFFCURVE",
"364 -10 OFFCURVE",
"430 -10 CURVE"
);
},
{
closed = 1;
nodes = (
"190 0 LINE",
"190 700 LINE",
"90 700 LINE",
"90 0 LINE"
);
},
{
closed = 1;
nodes = (
"335 313 LINE",
"606 700 LINE",
"517 679 LINE",
"285 350 LINE"
);
},
{
closed = 1;
nodes = (
"547 650 LINE",
"606 700 LINE",
"190 700 LINE",
"190 650 LINE"
);
}
);
width = 712;
},
{
components = (
{
name = szeryf;
transform = "{1, 0, 0, 1, -35, 0}";
},
{
name = szeryf;
transform = "{1, 0, 0, -1, -35, 700}";
},
{
name = szeryf;
transform = "{-1, 0, 0, 1, 395, 0}";
}
);
layerId = "F548E3CC-813E-497B-8EED-D24596D10F9A";
paths = (
{
closed = 1;
nodes = (
"705 -10 OFFCURVE",
"810 87 OFFCURVE",
"810 223 CURVE SMOOTH",
"810 365 OFFCURVE",
"696 464 OFFCURVE",
"529 487 CURVE",
"452 370 LINE",
"479 347 OFFCURVE",
"560 292 OFFCURVE",
"560 185 CURVE SMOOTH",
"560 127 OFFCURVE",
"536 79 OFFCURVE",
"509 50 CURVE",
"528 -10 LINE"
);
},
{
closed = 1;
nodes = (
"509 50 LINE",
"405 147 LINE",
"330 70 LINE",
"370 20 OFFCURVE",
"428 -10 OFFCURVE",
"528 -10 CURVE"
);
},
{
closed = 1;
nodes = (
"315 0 LINE",
"315 700 LINE",
"45 700 LINE",
"45 0 LINE"
);
},
{
closed = 1;
nodes = (
"448 296 LINE",
"725 700 LINE",
"645 700 LINE",
"393 334 LINE"
);
},
{
closed = 1;
nodes = (
"642 640 LINE",
"725 700 LINE",
"315 700 LINE",
"315 640 LINE"
);
}
);
width = 830;
},
{
associatedMasterId = "F548E3CC-813E-497B-8EED-D24596D10F9A";
components = (
{
name = szeryf;
transform = "{1, 0, 0, 1, -35, 0}";
},
{
name = szeryf;
transform = "{-1, 0, 0, 1, 364, 0}";
}
);
layerId = "A850BB1C-0E38-4C6E-94FA-881610EEEB33";
name = "Bold Oct 25 16, 10:20";
paths = (
{
closed = 1;
nodes = (
"290 0 LINE",
"284 475 LINE SMOOTH",
"283 584 OFFCURVE",
"325 640 OFFCURVE",
"390 640 CURVE SMOOTH",
"444 640 OFFCURVE",
"490 601 OFFCURVE",
"529 493 CURVE",
"707 599 LINE",
"632 681 OFFCURVE",
"509 710 OFFCURVE",
"409 710 CURVE SMOOTH",
"262 710 OFFCURVE",
"44 648 OFFCURVE",
"44 445 CURVE SMOOTH",
"44 0 LINE"
);
},
{
closed = 1;
nodes = (
"678 -10 OFFCURVE",
"800 72 OFFCURVE",
"800 203 CURVE SMOOTH",
"800 332 OFFCURVE",
"681 406 OFFCURVE",
"554 426 CURVE",
"501 313 LINE",
"556 285 OFFCURVE",
"579 249 OFFCURVE",
"579 185 CURVE SMOOTH",
"579 101 OFFCURVE",
"539 56 OFFCURVE",
"510 34 CURVE",
"450 167 LINE",
"311 106 LINE",
"347 25 OFFCURVE",
"430 -10 OFFCURVE",
"528 -10 CURVE SMOOTH"
);
},
{
closed = 1;
nodes = (
"707 599 LINE",
"497 679 LINE",
"322 330 LINE",
"527 235 LINE"
);
}
);
width = 820;
},
{
associatedMasterId = "0F8BB9BB-4444-4167-ACAA-B06A747D7052";
components = (
{
name = szeryf;
transform = "{1, 0, 0, 1, -1, 0}";
},
{
name = szeryf;
transform = "{-1, 0, 0, 1, 271, 0}";
}
);
layerId = "F97371EC-E873-4DD7-A2E3-52D3118A722A";
name = "Regular Oct 25 16, 10:20";
paths = (
{
closed = 1;
nodes = (
"180 0 LINE",
"180 475 LINE SMOOTH",
"180 584 OFFCURVE",
"251 660 OFFCURVE",
"347 660 CURVE SMOOTH",
"422 660 OFFCURVE",
"471 619 OFFCURVE",
"504 566 CURVE",
"572 638 LINE",
"512 693 OFFCURVE",
"440 710 OFFCURVE",
"363 710 CURVE SMOOTH",
"206 710 OFFCURVE",
"90 628 OFFCURVE",
"90 455 CURVE SMOOTH",
"90 0 LINE"
);
},
{
closed = 1;
nodes = (
"531 -10 OFFCURVE",
"650 61 OFFCURVE",
"650 198 CURVE SMOOTH",
"650 322 OFFCURVE",
"552 400 OFFCURVE",
"401 430 CURVE",
"384 365 LINE",
"508 333 OFFCURVE",
"545 254 OFFCURVE",
"545 186 CURVE SMOOTH",
"545 112 OFFCURVE",
"501 45 OFFCURVE",
"448 35 CURVE",
"333 136 LINE",
"266 47 LINE",
"305 17 OFFCURVE",
"369 -10 OFFCURVE",
"429 -10 CURVE SMOOTH"
);
},
{
closed = 1;
nodes = (
"571 636 LINE",
"501 679 LINE",
"300 358 LINE",
"370 315 LINE"
);
}
);
width = 695;
},
{
associatedMasterId = "D94A17C2-4593-4D11-9DD5-BACEC39F5EAE";
components = (
{
name = szeryf;
transform = "{1, 0, 0, 1, -75, 0}";
},
{
name = szeryf;
transform = "{-1, 0, 0, 1, 315, 0}";
}
);
layerId = "B3B08AAC-8EEF-445F-850E-13DD75424FF9";
name = "Light Oct 25 16, 10:20";
paths = (
{
closed = 1;
nodes = (
"130 0 LINE",
"130 460 LINE SMOOTH",
"130 602 OFFCURVE",
"223 687 OFFCURVE",
"357 687 CURVE SMOOTH",
"445 687 OFFCURVE",
"501 659 OFFCURVE",
"560 618 CURVE",
"574 632 LINE",
"512 676 OFFCURVE",
"450 705 OFFCURVE",
"357 705 CURVE SMOOTH",
"212 705 OFFCURVE",
"110 614 OFFCURVE",
"110 470 CURVE SMOOTH",
"110 0 LINE"
);
},
{
closed = 1;
nodes = (
"523 -5 OFFCURVE",
"635 60 OFFCURVE",
"635 190 CURVE SMOOTH",
"635 323 OFFCURVE",
"517 395 OFFCURVE",
"409 425 CURVE",
"408 407 LINE",
"512 376 OFFCURVE",
"615 305 OFFCURVE",
"615 190 CURVE SMOOTH",
"615 66 OFFCURVE",
"496 -8 OFFCURVE",
"381 18 CURVE",
"302 66 LINE",
"287 46 LINE",
"324 20 OFFCURVE",
"368 -5 OFFCURVE",
"428 -5 CURVE SMOOTH"
);
},
{
closed = 1;
nodes = (
"574 632 LINE",
"553 638 LINE",
"351 354 LINE",
"368 343 LINE"
);
}
);
width = 690;
}
);
leftMetricsKey = "=|U";
rightKerningGroup = o;
rightMetricsKey = "=B";
unicode = 1E9E;
},
{
glyphname = T;
lastChange = "2016-09-19 22:30:06 +0000";
layers = (
{
anchors = (
{
name = bottom;
position = "{340, 0}";
},
{
name = center;
position = "{340, 350}";
},
{
name = top;
position = "{340, 700}";
}
);
components = (
{
name = szeryf_pion_E;
transform = "{1, 0, 0, 1, 503, 0}";
},
{
name = szeryf_pion_E;
transform = "{-1, 0, 0, 1, 177, 0}";
},
{
name = szeryf;
transform = "{1, 0, 0, 1, 200, 0}";
},
{
name = szeryf;
transform = "{-1, 0, 0, 1, 481, 0}";
}
);
layerId = "0F8BB9BB-4444-4167-ACAA-B06A747D7052";
paths = (
{
closed = 1;
nodes = (
"390 0 LINE",
"390 700 LINE",
"290 700 LINE",
"290 0 LINE"
);
},
{
closed = 1;
nodes = (
"290 650 LINE",
"290 700 LINE",
"30 700 LINE",
"30 650 LINE"
);
},
{
closed = 1;
nodes = (
"650 650 LINE",
"650 700 LINE",
"390 700 LINE",
"390 650 LINE"
);
},
{
closed = 1;
nodes = (
"118 700 LINE",
"30 720 LINE",
"30 700 LINE"
);
},
{
closed = 1;
nodes = (
"650 720 LINE",
"562 700 LINE",
"650 700 LINE"
);
}
);
width = 680;
},
{
anchors = (
{
name = bottom;
position = "{370, 0}";
},
{
name = center;
position = "{370, 350}";
},
{
name = top;
position = "{370, 700}";
}
);
components = (
{
name = szeryf_pion_E;
transform = "{1, 0, 0, 1, 582, -10}";
},
{
name = szeryf_pion_E;
transform = "{-1, 0, 0, 1, 158, -10}";
},
{
name = szeryf;
transform = "{1, 0, 0, 1, 161, 0}";
},
{
name = szeryf;
transform = "{-1, 0, 0, 1, 579, 0}";
}
);
layerId = "F548E3CC-813E-497B-8EED-D24596D10F9A";
paths = (
{
closed = 1;
nodes = (
"500 0 LINE",
"500 700 LINE",
"240 700 LINE",
"240 0 LINE"
);
},
{
closed = 1;
nodes = (
"240 640 LINE",
"240 700 LINE",
"20 700 LINE",
"20 640 LINE"
);
},
{
closed = 1;
nodes = (
"720 640 LINE",
"720 700 LINE",
"500 700 LINE",
"500 640 LINE"
);
},
{
closed = 1;
nodes = (
"108 700 LINE",
"20 720 LINE",
"20 700 LINE"
);
},
{
closed = 1;
nodes = (
"720 720 LINE",
"632 700 LINE",
"720 700 LINE"
);
}
);
width = 740;
},
{
anchors = (
{
name = bottom;
position = "{330, 0}";
},
{
name = center;
position = "{330, 350}";
},
{
name = top;
position = "{330, 700}";
}
);
components = (
{
name = szeryf_pion_E;
transform = "{1, 0, 0, 1, 545, 32}";
},
{
name = szeryf_pion_E;
transform = "{-1, 0, 0, 1, 115, 32}";
},
{
name = szeryf;
transform = "{1, 0, 0, 1, 135, 0}";
},
{
name = szeryf;
transform = "{-1, 0, 0, 1, 525, 0}";
}
);
layerId = "D94A17C2-4593-4D11-9DD5-BACEC39F5EAE";
paths = (
{
closed = 1;
nodes = (
"340 0 LINE",
"340 700 LINE",
"320 700 LINE",
"320 0 LINE"
);
},
{
closed = 1;
nodes = (
"320 682 LINE",
"320 700 LINE",
"45 700 LINE",
"45 682 LINE"
);
},
{
closed = 1;
nodes = (
"615 682 LINE",
"615 700 LINE",
"340 700 LINE",
"340 682 LINE"
);
},
{
closed = 1;
nodes = (
"65 700 LINE",
"45 710 LINE",
"45 700 LINE"
);
},
{
closed = 1;
nodes = (
"615 710 LINE",
"595 700 LINE",
"615 700 LINE"
);
}
);
width = 660;
}
);
leftKerningGroup = T;
rightKerningGroup = T;
unicode = 0054;
},
{
glyphname = Tbar;
lastChange = "2016-08-05 20:50:24 +0000";
layers = (
{
components = (
{
name = T;
}
);
layerId = "D94A17C2-4593-4D11-9DD5-BACEC39F5EAE";
paths = (
{
closed = 1;
nodes = (
"145 367 LINE",
"515 367 LINE",
"515 385 LINE",
"145 385 LINE"
);
}
);
width = 660;
},
{
components = (
{
name = T;
}
);
layerId = "0F8BB9BB-4444-4167-ACAA-B06A747D7052";
paths = (
{
closed = 1;
nodes = (
"100 345 LINE",
"580 345 LINE",
"580 395 LINE",
"100 395 LINE"
);
}
);
width = 680;
},
{
components = (
{
name = T;
}
);
layerId = "F548E3CC-813E-497B-8EED-D24596D10F9A";
paths = (
{
closed = 1;
nodes = (
"120 345 LINE",
"620 345 LINE",
"620 405 LINE",
"120 405 LINE"
);
}
);
width = 740;
}
);
leftKerningGroup = T;
leftMetricsKey = "=T";
rightKerningGroup = T;
rightMetricsKey = "=T";
unicode = 0166;
},
{
glyphname = U;
lastChange = "2016-10-10 20:04:01 +0000";
layers = (
{
anchors = (
{
name = bottom;
position = "{390, 0}";
},
{
name = ogonek;
position = "{514, 0}";
},
{
name = top;
position = "{400, 700}";
},
{
name = topright;
position = "{775, 700}";
}
);
components = (
{
name = szeryf;
transform = "{1, 0, 0, -1, 9, 700}";
},
{
name = szeryf;
transform = "{-1, 0, 0, -1, 291, 700}";
},
{
name = szeryf;
transform = "{-1, 0, 0, -1, 776, 700}";
},
{
name = szeryf_long;
transform = "{-1, 0, 0, -1, 809, 700}";
}
);
layerId = "0F8BB9BB-4444-4167-ACAA-B06A747D7052";
paths = (
{
closed = 1;
nodes = (
"620 300 LINE SMOOTH",
"620 129 OFFCURVE",
"544 45 OFFCURVE",
"410 45 CURVE SMOOTH",
"276 45 OFFCURVE",
"200 129 OFFCURVE",
"200 300 CURVE SMOOTH",
"200 700 LINE",
"100 700 LINE",
"100 290 LINE SMOOTH",
"100 83 OFFCURVE",
"239 -10 OFFCURVE",
"404 -10 CURVE SMOOTH",
"577 -10 OFFCURVE",
"685 93 OFFCURVE",
"685 300 CURVE SMOOTH",
"685 700 LINE",
"620 700 LINE"
);
}
);
width = 775;
},
{
anchors = (
{
name = bottom;
position = "{378, 0}";
},
{
name = ogonek;
position = "{495, 0}";
},
{
name = top;
position = "{438, 700}";
},
{
name = topright;
position = "{755, 700}";
}
);
components = (
{
name = szeryf;
transform = "{1, 0, 0, -1, -30, 700}";
},
{
name = szeryf;
transform = "{-1, 0, 0, -1, 390, 700}";
},
{
name = szeryf;
transform = "{-1, 0, 0, -1, 780, 700}";
},
{
name = szeryf_long;
transform = "{-1, 0, 0, -1, 819, 700}";
}
);
layerId = "F548E3CC-813E-497B-8EED-D24596D10F9A";
paths = (
{
closed = 1;
nodes = (
"630 280 LINE SMOOTH",
"630 139 OFFCURVE",
"579 55 OFFCURVE",
"473 55 CURVE SMOOTH",
"366 55 OFFCURVE",
"310 139 OFFCURVE",
"310 280 CURVE SMOOTH",
"310 700 LINE",
"50 700 LINE",
"50 270 LINE SMOOTH",
"50 83 OFFCURVE",
"213 -10 OFFCURVE",
"409 -10 CURVE SMOOTH",
"606 -10 OFFCURVE",
"700 84 OFFCURVE",
"700 280 CURVE SMOOTH",
"700 700 LINE",
"630 700 LINE"
);
}
);
width = 745;
},
{
anchors = (
{
name = bottom;
position = "{363, 0}";
},
{
name = ogonek;
position = "{456, 0}";
},
{
name = top;
position = "{363, 700}";
},
{
name = topright;
position = "{710, 700}";
}
);
components = (
{
name = szeryf;
transform = "{1, 0, 0, -1, -80, 700}";
},
{
name = szeryf;
transform = "{-1, 0, 0, -1, 310, 700}";
},
{
name = szeryf;
transform = "{-1, 0, 0, -1, 815, 700}";
},
{
name = szeryf_long;
transform = "{-1, 0, 0, -1, 797, 700}";
}
);
layerId = "D94A17C2-4593-4D11-9DD5-BACEC39F5EAE";
paths = (
{
closed = 1;
nodes = (
"612 295 LINE SMOOTH",
"612 107 OFFCURVE",
"511 13 OFFCURVE",
"366 13 CURVE SMOOTH",
"228 13 OFFCURVE",
"125 98 OFFCURVE",
"125 285 CURVE SMOOTH",
"125 700 LINE",
"105 700 LINE",
"105 275 LINE SMOOTH",
"105 88 OFFCURVE",
"218 -5 OFFCURVE",
"366 -5 CURVE SMOOTH",
"521 -5 OFFCURVE",
"630 98 OFFCURVE",
"630 285 CURVE SMOOTH",
"630 700 LINE",
"612 700 LINE"
);
}
);
width = 740;
}
);
leftKerningGroup = U;
leftMetricsKey = "=|N-5";
rightKerningGroup = U;
unicode = 0055;
},
{
glyphname = V;
lastChange = "2016-10-11 17:40:36 +0000";
layers = (
{
anchors = (
{
name = bottom;
position = "{373, 0}";
},
{
name = top;
position = "{373, 700}";
}
);
components = (
{
name = com_skos_szer;
transform = "{1, 0, 0, -1, -1, 700}";
},
{
name = szeryf;
transform = "{-1, 0, 0, -1, 294, 700}";
},
{
name = szeryf_long;
transform = "{-1, 0, 0, -1, 790, 700}";
},
{
name = com_skos_szer;
transform = "{-1, 0, 0, -1, 756, 700}";
}
);
guideLines = (
{
angle = 113.6484;
position = "{302, 403}";
}
);
layerId = "0F8BB9BB-4444-4167-ACAA-B06A747D7052";
paths = (
{
closed = 1;
nodes = (
"665 700 LINE",
"601 700 LINE",
"601 640 LINE",
"408 155 LINE",
"389 -30 LINE",
"392 -30 LINE",
"665 640 LINE"
);
},
{
closed = 1;
nodes = (
"62 700 LINE",
"386 -30 LINE",
"389 -30 LINE",
"408 155 LINE",
"203 640 LINE",
"203 700 LINE"
);
}
);
width = 745;
},
{
anchors = (
{
name = bottom;
position = "{403, 0}";
},
{
name = top;
position = "{403, 700}";
}
);
components = (
{
name = com_skos_szer;
transform = "{1, 0, 0, -1, -35, 700}";
},
{
name = szeryf;
transform = "{-1, 0, 0, -1, 423, 700}";
},
{
name = szeryf_long;
transform = "{-1, 0, 0, -1, 840, 700}";
},
{
name = com_skos_szer;
transform = "{-1, 0, 0, -1, 820, 700}";
}
);
guideLines = (
{
position = "{659, 640}";
},
{
angle = 245.9085;
position = "{707, 640}";
},
{
angle = 65.8846;
position = "{562, 449}";
}
);
layerId = "F548E3CC-813E-497B-8EED-D24596D10F9A";
paths = (
{
closed = 1;
nodes = (
"740 700 LINE",
"651 700 LINE",
"651 610 LINE",
"511 317 LINE",
"412 -40 LINE",
"415 -40 LINE",
"740 640 LINE"
);
},
{
closed = 1;
nodes = (
"12 700 LINE",
"409 -40 LINE",
"412 -40 LINE",
"511 317 LINE",
"343 640 LINE",
"343 700 LINE"
);
}
);
width = 775;
},
{
anchors = (
{
name = bottom;
position = "{370, 0}";
},
{
name = top;
position = "{370, 700}";
}
);
components = (
{
name = com_skos_szer;
transform = "{1, 0, 0, -1, -95, 700}";
},
{
name = szeryf;
transform = "{-1, 0, 0, -1, 293, 700}";
},
{
name = szeryf_long;
transform = "{-1, 0, 0, -1, 813, 700}";
},
{
name = com_skos_szer;
transform = "{-1, 0, 0, -1, 835, 700}";
}
);
layerId = "D94A17C2-4593-4D11-9DD5-BACEC39F5EAE";
paths = (
{
closed = 1;
nodes = (
"650 700 LINE",
"628 700 LINE",
"628 680 LINE",
"367 15 LINE",
"367 -30 LINE",
"370 -30 LINE",
"650 680 LINE"
);
},
{
closed = 1;
nodes = (
"80 700 LINE",
"364 -30 LINE",
"367 -30 LINE",
"367 15 LINE",
"108 685 LINE",
"108 700 LINE"
);
}
);
width = 730;
}
);
leftKerningGroup = V;
rightKerningGroup = V;
unicode = 0056;
},
{
glyphname = W;
lastChange = "2016-09-23 13:17:21 +0000";
layers = (
{
anchors = (
{
name = bottom;
position = "{533, 0}";
},
{
name = top;
position = "{533, 700}";
}
);
components = (
{
name = com_skos_szer;
transform = "{1, 0, 0, -1, -1, 700}";
},
{
name = szeryf;
transform = "{-1, 0, 0, -1, 284, 700}";
},
{
name = szeryf_long;
transform = "{-1, 0, 0, -1, 1105, 700}";
},
{
name = com_skos_szer;
transform = "{-1, 0, 0, -1, 1071, 700}";
}
);
layerId = "0F8BB9BB-4444-4167-ACAA-B06A747D7052";
paths = (
{
closed = 1;
nodes = (
"330 -30 LINE",
"354 185 LINE",
"193 640 LINE",
"193 700 LINE",
"62 700 LINE",
"327 -30 LINE"
);
},
{
closed = 1;
nodes = (
"333 -30 LINE",
"582 640 LINE",
"582 700 LINE",
"521 700 LINE",
"521 640 LINE",
"354 185 LINE",
"330 -30 LINE"
);
},
{
closed = 1;
nodes = (
"765 -30 LINE",
"776 185 LINE",
"598 640 LINE",
"618 700 LINE",
"465 700 LINE",
"762 -30 LINE"
);
},
{
closed = 1;
nodes = (
"768 -30 LINE",
"980 640 LINE",
"980 700 LINE",
"916 700 LINE",
"916 640 LINE",
"776 185 LINE",
"765 -30 LINE"
);
}
);
width = 1060;
},
{
anchors = (
{
name = bottom;
position = "{568, 0}";
},
{
name = top;
position = "{568, 700}";
}
);
components = (
{
name = com_skos_szer;
transform = "{1, 0, 0, -1, -35, 700}";
},
{
name = szeryf;
transform = "{-1, 0, 0, -1, 423, 700}";
},
{
name = szeryf_long;
transform = "{-1, 0, 0, -1, 1175, 700}";
},
{
name = com_skos_szer;
transform = "{-1, 0, 0, -1, 1150, 700}";
}
);
layerId = "F548E3CC-813E-497B-8EED-D24596D10F9A";
paths = (
{
closed = 1;
nodes = (
"367 -40 LINE",
"470 347 LINE",
"343 640 LINE",
"343 700 LINE",
"12 700 LINE",
"364 -40 LINE"
);
},
{
closed = 1;
nodes = (
"370 -40 LINE",
"660 640 LINE",
"660 700 LINE",
"573 700 LINE",
"573 610 LINE",
"470 347 LINE",
"367 -40 LINE"
);
},
{
closed = 1;
nodes = (
"802 -40 LINE",
"886 347 LINE",
"758 640 LINE",
"778 700 LINE",
"452 700 LINE",
"799 -40 LINE"
);
},
{
closed = 1;
nodes = (
"805 -40 LINE",
"1070 640 LINE",
"1070 700 LINE",
"986 700 LINE",
"986 610 LINE",
"886 347 LINE",
"802 -40 LINE"
);
}
);
width = 1105;
},
{
anchors = (
{
name = bottom;
position = "{531, 0}";
},
{
name = top;
position = "{531, 700}";
}
);
components = (
{
name = com_skos_szer;
transform = "{1, 0, 0, -1, -95, 700}";
},
{
name = szeryf;
transform = "{-1, 0, 0, -1, 293, 700}";
},
{
name = szeryf_long;
transform = "{-1, 0, 0, -1, 1135, 700}";
},
{
name = com_skos_szer;
transform = "{-1, 0, 0, -1, 1157, 700}";
}
);
layerId = "D94A17C2-4593-4D11-9DD5-BACEC39F5EAE";
paths = (
{
closed = 1;
nodes = (
"312 -30 LINE",
"312 23 LINE",
"108 685 LINE",
"108 700 LINE",
"80 700 LINE",
"309 -30 LINE"
);
},
{
closed = 1;
nodes = (
"315 -30 LINE",
"540 680 LINE",
"540 700 LINE",
"521 700 LINE",
"521 680 LINE",
"312 23 LINE",
"312 -30 LINE"
);
},
{
closed = 1;
nodes = (
"754 -30 LINE",
"754 23 LINE",
"540 685 LINE",
"550 700 LINE",
"513 700 LINE",
"751 -30 LINE"
);
},
{
closed = 1;
nodes = (
"757 -30 LINE",
"972 680 LINE",
"972 700 LINE",
"950 700 LINE",
"950 680 LINE",
"754 23 LINE",
"754 -30 LINE"
);
}
);
width = 1052;
},
{
anchors = (
{
name = bottom;
position = "{1, 0}";
},
{
name = top;
position = "{1, 700}";
}
);
associatedMasterId = "F548E3CC-813E-497B-8EED-D24596D10F9A";
components = (
{
name = com_skos_szer;
transform = "{1, 0, 0, -1, -35, 700}";
},
{
name = szeryf;
transform = "{-1, 0, 0, -1, 403, 700}";
},
{
name = szeryf_long;
transform = "{-1, 0, 0, -1, 1195, 700}";
},
{
name = com_skos_szer;
transform = "{-1, 0, 0, -1, 1170, 700}";
}
);
layerId = "E431E506-AF2C-4407-B3F0-1A2534217A76";
name = "Bold Jul 22 16, 20:13";
paths = (
{
closed = 1;
nodes = (
"362 -60 LINE",
"460 327 LINE",
"323 640 LINE",
"323 700 LINE",
"12 700 LINE",
"359 -60 LINE"
);
},
{
closed = 1;
nodes = (
"365 -60 LINE",
"670 640 LINE",
"670 700 LINE",
"583 700 LINE",
"583 610 LINE",
"460 327 LINE",
"362 -60 LINE"
);
},
{
closed = 1;
nodes = (
"817 -60 LINE",
"896 327 LINE",
"768 640 LINE",
"788 700 LINE",
"462 700 LINE",
"814 -60 LINE"
);
},
{
closed = 1;
nodes = (
"820 -60 LINE",
"1090 640 LINE",
"1090 700 LINE",
"1006 700 LINE",
"1006 610 LINE",
"896 327 LINE",
"817 -60 LINE"
);
}
);
width = 1155;
},
{
associatedMasterId = "0F8BB9BB-4444-4167-ACAA-B06A747D7052";
components = (
{
name = com_skos_szer;
transform = "{1, 0, 0, -1, -11, 700}";
},
{
name = szeryf;
transform = "{-1, 0, 0, -1, 289, 700}";
},
{
name = szeryf_long;
transform = "{-1, 0, 0, -1, 1110, 700}";
},
{
name = com_skos_szer;
transform = "{-1, 0, 0, -1, 1076, 700}";
}
);
layerId = "AADA8770-ED6B-4097-A24A-0EE50731294E";
name = "Regular Jul 22 16, 20:13";
paths = (
{
closed = 1;
nodes = (
"769 -30 LINE",
"783 190 LINE",
"608 640 LINE",
"628 700 LINE",
"462 700 LINE",
"766 -30 LINE"
);
},
{
closed = 1;
nodes = (
"329 -30 LINE",
"355 190 LINE",
"198 640 LINE",
"198 700 LINE",
"52 700 LINE",
"326 -30 LINE"
);
},
{
closed = 1;
nodes = (
"332 -30 LINE",
"592 640 LINE",
"592 700 LINE",
"531 700 LINE",
"531 640 LINE",
"355 190 LINE",
"329 -30 LINE"
);
},
{
closed = 1;
nodes = (
"772 -30 LINE",
"985 640 LINE",
"985 700 LINE",
"921 700 LINE",
"921 640 LINE",
"783 190 LINE",
"769 -30 LINE"
);
}
);
width = 1075;
},
{
associatedMasterId = "D94A17C2-4593-4D11-9DD5-BACEC39F5EAE";
components = (
{
name = com_skos_szer;
transform = "{1, 0, 0, -1, -95, 700}";
},
{
name = szeryf;
transform = "{-1, 0, 0, -1, 293, 700}";
},
{
name = szeryf_long;
transform = "{-1, 0, 0, -1, 1135, 700}";
},
{
name = com_skos_szer;
transform = "{-1, 0, 0, -1, 1157, 700}";
}
);
layerId = "AE3C1B5B-F54F-42D9-8507-2F1D80C8511C";
name = "Light Jul 22 16, 20:13";
paths = (
{
closed = 1;
nodes = (
"749 -30 LINE",
"749 23 LINE",
"540 685 LINE",
"550 700 LINE",
"513 700 LINE",
"746 -30 LINE"
);
},
{
closed = 1;
nodes = (
"307 -30 LINE",
"307 23 LINE",
"108 685 LINE",
"108 700 LINE",
"80 700 LINE",
"304 -30 LINE"
);
},
{
closed = 1;
nodes = (
"310 -30 LINE",
"540 680 LINE",
"540 700 LINE",
"521 700 LINE",
"521 680 LINE",
"307 23 LINE",
"307 -30 LINE"
);
},
{
closed = 1;
nodes = (
"752 -30 LINE",
"972 680 LINE",
"972 700 LINE",
"950 700 LINE",
"950 680 LINE",
"749 23 LINE",
"749 -30 LINE"
);
}
);
width = 1062;
}
);
leftKerningGroup = W;
leftMetricsKey = "=V";
rightKerningGroup = W;
rightMetricsKey = "=V";
unicode = 0057;
},
{
glyphname = X;
lastChange = "2016-09-22 14:39:26 +0000";
layers = (
{
components = (
{
name = com_skos_szer;
transform = "{1, 0, 0, -1, 9, 700}";
},
{
name = szeryf;
transform = "{-1, 0, 0, -1, 304, 700}";
},
{
name = com_skos_szer;
transform = "{-1, 0, 0, 1, 734, 0}";
},
{
name = szeryf;
transform = "{1, 0, 0, 1, 435, 0}";
},
{
name = com_skos_szer;
transform = "{-1, 0, 0, -1, 725, 700}";
},
{
name = szeryf;
transform = "{1.1, 0, 0, -1, 461, 700}";
},
{
name = com_skos_szer;
transform = "{1, 0, 0, 1, -1, 0}";
},
{
name = szeryf;
transform = "{-1.1, 0, 0, 1, 263, 0}";
}
);
layerId = "0F8BB9BB-4444-4167-ACAA-B06A747D7052";
paths = (
{
closed = 1;
nodes = (
"213 640 LINE",
"213 700 LINE",
"50 700 LINE",
"526 60 LINE",
"526 0 LINE",
"690 0 LINE"
);
},
{
closed = 1;
nodes = (
"561 700 LINE",
"561 640 LINE",
"331 345 LINE",
"405 345 LINE",
"634 640 LINE",
"634 700 LINE"
);
},
{
closed = 1;
nodes = (
"163 0 LINE",
"163 60 LINE",
"404 370 LINE",
"330 370 LINE",
"90 60 LINE",
"90 0 LINE"
);
}
);
width = 708;
},
{
components = (
{
name = com_skos_szer;
transform = "{1, 0, 0, -1, -28, 700}";
},
{
name = szeryf;
transform = "{-1, 0, 0, -1, 437, 700}";
},
{
name = com_skos_szer;
transform = "{-1, 0, 0, 1, 792, 0}";
},
{
name = szeryf;
transform = "{1, 0, 0, 1, 326, 0}";
},
{
name = com_skos_szer;
transform = "{-1, 0, 0, -1, 757, 700}";
},
{
name = szeryf;
transform = "{1.1, 0, 0, -1, 509, 700}";
},
{
name = com_skos_szer;
transform = "{1, 0, 0, 1, -35, 0}";
},
{
name = szeryf;
transform = "{-1.1, 0, 0, 1, 213, 0}";
}
);
layerId = "F548E3CC-813E-497B-8EED-D24596D10F9A";
paths = (
{
closed = 1;
nodes = (
"357 640 LINE",
"357 700 LINE",
"11 700 LINE",
"406 60 LINE",
"406 0 LINE",
"752 0 LINE"
);
},
{
closed = 1;
nodes = (
"597 700 LINE",
"597 640 LINE",
"424 359 LINE",
"503 359 LINE",
"677 640 LINE",
"677 700 LINE"
);
},
{
closed = 1;
nodes = (
"125 0 LINE",
"125 60 LINE",
"312 388 LINE",
"233 388 LINE",
"45 60 LINE",
"45 0 LINE"
);
}
);
width = 737;
},
{
components = (
{
name = com_skos_szer;
transform = "{1, 0, 0, -1, -74, 700}";
},
{
name = szeryf;
transform = "{-1, 0, 0, -1, 317, 700}";
},
{
name = com_skos_szer;
transform = "{-1, 0, 0, 1, 808, 0}";
},
{
name = szeryf;
transform = "{1, 0, 0, 1, 417, 0}";
},
{
name = com_skos_szer;
transform = "{-1, 0, 0, -1, 782, 700}";
},
{
name = szeryf;
transform = "{1, 0, 0, -1, 389, 700}";
},
{
name = com_skos_szer;
transform = "{1, 0, 0, 1, -95, 0}";
},
{
name = szeryf;
transform = "{-1, 0, 0, 1, 298, 0}";
}
);
layerId = "D94A17C2-4593-4D11-9DD5-BACEC39F5EAE";
paths = (
{
closed = 1;
nodes = (
"132 680 LINE",
"132 700 LINE",
"93 700 LINE",
"602 20 LINE",
"602 0 LINE",
"641 0 LINE"
);
},
{
closed = 1;
nodes = (
"574 700 LINE",
"574 680 LINE",
"349 374 LINE",
"361 359 LINE",
"597 680 LINE",
"597 700 LINE"
);
},
{
closed = 1;
nodes = (
"113 0 LINE",
"113 20 LINE",
"361 359 LINE",
"349 374 LINE",
"90 20 LINE",
"90 0 LINE"
);
}
);
width = 718;
}
);
leftKerningGroup = X;
leftMetricsKey = "=V";
rightKerningGroup = X;
unicode = 0058;
},
{
glyphname = Y;
lastChange = "2016-10-11 17:40:42 +0000";
layers = (
{
anchors = (
{
name = bottom;
position = "{366, 0}";
},
{
name = top;
position = "{376, 700}";
},
{
name = topleft;
position = "{16, 700}";
}
);
components = (
{
name = szeryf;
transform = "{-1, 0, 0, -1, 296, 700}";
},
{
name = szeryf;
transform = "{-1, 0, 0, -1, 736, 700}";
},
{
name = szeryf_long;
transform = "{-1, 0, 0, -1, 765, 700}";
},
{
name = szeryf;
transform = "{1, 0, 0, 1, 224, 0}";
},
{
name = szeryf;
transform = "{-1, 0, 0, 1, 505, 0}";
},
{
name = com_skos_szer;
transform = "{1, 0, 0, -1, -1, 700}";
}
);
guideLines = (
{
angle = 53.8116;
position = "{581, 640}";
},
{
angle = 53.8116;
position = "{506, 450}";
},
{
angle = 124.5625;
position = "{294, 505}";
}
);
layerId = "0F8BB9BB-4444-4167-ACAA-B06A747D7052";
paths = (
{
closed = 1;
nodes = (
"364 240 LINE",
"387 369 LINE",
"205 640 LINE",
"205 700 LINE",
"44 700 LINE",
"361 240 LINE"
);
},
{
closed = 1;
nodes = (
"414 0 LINE",
"414 330 LINE",
"314 330 LINE",
"314 0 LINE"
);
},
{
closed = 1;
nodes = (
"367 240 LINE",
"645 640 LINE",
"645 700 LINE",
"575 700 LINE",
"575 640 LINE",
"387 369 LINE",
"364 240 LINE"
);
}
);
width = 725;
},
{
anchors = (
{
name = bottom;
position = "{368, 0}";
},
{
name = top;
position = "{458, 700}";
},
{
name = topleft;
position = "{20, 700}";
}
);
components = (
{
name = szeryf;
transform = "{-1, 0, 0, -1, 406, 700}";
},
{
name = szeryf;
transform = "{-1, 0, 0, -1, 790, 700}";
},
{
name = szeryf_long;
transform = "{-1, 0, 0, -1, 803, 700}";
},
{
name = szeryf;
transform = "{1, 0, 0, 1, 179, 0}";
},
{
name = szeryf;
transform = "{-1, 0, 0, 1, 599, 0}";
},
{
name = com_skos_szer;
transform = "{1, 0, 0, -1, -35, 700}";
}
);
layerId = "F548E3CC-813E-497B-8EED-D24596D10F9A";
paths = (
{
closed = 1;
nodes = (
"389 110 LINE",
"482 390 LINE",
"326 640 LINE",
"326 700 LINE",
"6 700 LINE",
"386 110 LINE"
);
},
{
closed = 1;
nodes = (
"519 0 LINE",
"519 330 LINE",
"259 330 LINE",
"259 0 LINE"
);
},
{
closed = 1;
nodes = (
"392 110 LINE",
"710 640 LINE",
"710 700 LINE",
"614 700 LINE",
"614 610 LINE",
"482 390 LINE",
"389 110 LINE"
);
}
);
width = 725;
},
{
anchors = (
{
name = bottom;
position = "{352, 0}";
},
{
name = top;
position = "{352, 700}";
},
{
name = topleft;
position = "{20, 700}";
}
);
components = (
{
name = szeryf;
transform = "{-1, 0, 0, -1, 291, 700}";
},
{
name = szeryf;
transform = "{-1, 0, 0, -1, 798, 700}";
},
{
name = szeryf_long;
transform = "{-1, 0, 0, -1, 773, 700}";
},
{
name = szeryf;
transform = "{1, 0, 0, 1, 160, 0}";
},
{
name = szeryf;
transform = "{-1, 0, 0, 1, 550, 0}";
},
{
name = com_skos_szer;
transform = "{1, 0, 0, -1, -95, 700}";
}
);
layerId = "D94A17C2-4593-4D11-9DD5-BACEC39F5EAE";
paths = (
{
closed = 1;
nodes = (
"355 280 LINE",
"355 310 LINE",
"106 685 LINE",
"106 700 LINE",
"71 700 LINE",
"352 280 LINE"
);
},
{
closed = 1;
nodes = (
"365 0 LINE",
"365 300 LINE",
"345 300 LINE",
"345 0 LINE"
);
},
{
closed = 1;
nodes = (
"358 280 LINE",
"613 680 LINE",
"613 700 LINE",
"588 700 LINE",
"588 680 LINE",
"355 310 LINE",
"355 280 LINE"
);
}
);
width = 693;
}
);
leftKerningGroup = Y;
leftMetricsKey = "=V";
rightKerningGroup = Y;
rightMetricsKey = "=V";
unicode = 0059;
},
{
glyphname = Z;
lastChange = "2016-10-25 09:16:00 +0000";
layers = (
{
anchors = (
{
name = bottom;
position = "{363, 0}";
},
{
name = top;
position = "{363, 700}";
}
);
components = (
{
name = szeryf_pion_E;
transform = "{-1, 0, 0, 1, 223, 0}";
},
{
name = szeryf_pion_E;
transform = "{1, 0, 0, -1, 483, 700}";
}
);
guideLines = (
{
angle = 90;
position = "{174, 650}";
}
);
layerId = "0F8BB9BB-4444-4167-ACAA-B06A747D7052";
paths = (
{
closed = 1;
nodes = (
"76 650 LINE",
"476 650 LINE",
"626 700 LINE",
"76 700 LINE"
);
},
{
closed = 1;
nodes = (
"25 0 LINE",
"630 0 LINE",
"630 50 LINE",
"175 50 LINE"
);
},
{
closed = 1;
nodes = (
"25 0 LINE",
"175 50 LINE",
"626 700 LINE",
"476 650 LINE"
);
},
{
closed = 1;
nodes = (
"164 700 LINE",
"76 720 LINE",
"76 700 LINE"
);
}
);
width = 675;
},
{
anchors = (
{
name = bottom;
position = "{370, 0}";
},
{
name = top;
position = "{370, 700}";
}
);
components = (
{
name = szeryf_pion_E;
transform = "{-1, 0, 0, 1, 208, -10}";
},
{
name = szeryf_pion_E;
transform = "{1, 0, 0, -1, 556, 710}";
}
);
layerId = "F548E3CC-813E-497B-8EED-D24596D10F9A";
paths = (
{
closed = 1;
nodes = (
"70 640 LINE",
"380 640 LINE",
"710 700 LINE",
"70 700 LINE"
);
},
{
closed = 1;
nodes = (
"10 0 LINE",
"694 0 LINE",
"694 60 LINE",
"339 60 LINE"
);
},
{
closed = 1;
nodes = (
"10 0 LINE",
"339 60 LINE",
"710 700 LINE",
"380 640 LINE"
);
},
{
closed = 1;
nodes = (
"158 700 LINE",
"70 720 LINE",
"70 700 LINE"
);
}
);
width = 725;
},
{
anchors = (
{
name = bottom;
position = "{303, 0}";
},
{
name = top;
position = "{303, 700}";
}
);
components = (
{
name = szeryf_pion_E;
transform = "{-1, 0, 0, 1, 131, 32}";
},
{
name = szeryf_pion_E;
transform = "{1, 0, 0, -1, 500, 668}";
}
);
layerId = "D94A17C2-4593-4D11-9DD5-BACEC39F5EAE";
paths = (
{
closed = 1;
nodes = (
"61 682 LINE",
"523 682 LINE",
"561 700 LINE",
"61 700 LINE"
);
},
{
closed = 1;
nodes = (
"25 0 LINE",
"570 0 LINE",
"570 18 LINE",
"62 18 LINE"
);
},
{
closed = 1;
nodes = (
"25 0 LINE",
"62 18 LINE",
"561 700 LINE",
"523 682 LINE"
);
},
{
closed = 1;
nodes = (
"81 700 LINE",
"61 710 LINE",
"61 700 LINE"
);
}
);
width = 605;
}
);
leftKerningGroup = Z;
rightKerningGroup = Z;
unicode = 005A;
},
{
glyphname = a;
lastChange = "2016-09-18 11:43:36 +0000";
layers = (
{
anchors = (
{
name = bottom;
position = "{270, 0}";
},
{
name = ogonek;
position = "{478, 10}";
},
{
name = top;
position = "{270, 480}";
}
);
layerId = "0F8BB9BB-4444-4167-ACAA-B06A747D7052";
paths = (
{
closed = 1;
nodes = (
"247 -10 OFFCURVE",
"295 17 OFFCURVE",
"328 64 CURVE",
"333 64 LINE",
"323 104 LINE",
"284 67 OFFCURVE",
"249 50 OFFCURVE",
"215 50 CURVE SMOOTH",
"180 50 OFFCURVE",
"145 67 OFFCURVE",
"145 121 CURVE SMOOTH",
"145 149 OFFCURVE",
"153 170 OFFCURVE",
"167 187 CURVE",
"323 187 LINE",
"323 222 LINE",
"118 222 LINE",
"79 201 OFFCURVE",
"50 160 OFFCURVE",
"50 107 CURVE SMOOTH",
"50 34 OFFCURVE",
"105 -10 OFFCURVE",
"185 -10 CURVE SMOOTH"
);
},
{
closed = 1;
nodes = (
"496 62 OFFCURVE",
"480 57 OFFCURVE",
"461 57 CURVE SMOOTH",
"434 57 OFFCURVE",
"413 68 OFFCURVE",
"413 115 CURVE SMOOTH",
"413 341 LINE SMOOTH",
"413 438 OFFCURVE",
"363 490 OFFCURVE",
"273 490 CURVE SMOOTH",
"201 490 OFFCURVE",
"119 457 OFFCURVE",
"71 370 CURVE",
"76 365 LINE",
"127 401 OFFCURVE",
"176 415 OFFCURVE",
"223 415 CURVE SMOOTH",
"292 415 OFFCURVE",
"323 384 OFFCURVE",
"323 306 CURVE SMOOTH",
"323 104 LINE",
"333 64 LINE",
"343 18 OFFCURVE",
"376 -10 OFFCURVE",
"426 -10 CURVE SMOOTH",
"468 -10 OFFCURVE",
"500 9 OFFCURVE",
"525 75 CURVE",
"520 80 LINE"
);
}
);
width = 535;
},
{
associatedMasterId = "0F8BB9BB-4444-4167-ACAA-B06A747D7052";
layerId = "2D96FF3F-152C-45CA-B0CB-56576CF2084A";
name = "Regular Jan 7 16, 17:51";
paths = (
{
closed = 1;
nodes = (
"343 104 LINE",
"355 79 LINE",
"433 135 LINE",
"433 341 LINE",
"343 296 LINE SMOOTH"
);
},
{
closed = 1;
nodes = (
"214 440 LINE",
"312 440 OFFCURVE",
"343 394 OFFCURVE",
"343 296 CURVE",
"433 341 LINE",
"433 448 OFFCURVE",
"363 490 OFFCURVE",
"254 490 CURVE"
);
},
{
closed = 1;
nodes = (
"117 337 LINE",
"214 440 LINE",
"254 490 LINE",
"184 490 OFFCURVE",
"101 460 OFFCURVE",
"51 420 CURVE"
);
},
{
closed = 1;
nodes = (
"261 0 OFFCURVE",
"320 44 OFFCURVE",
"355 89 CURVE",
"343 114 LINE",
"305 83 OFFCURVE",
"262 60 OFFCURVE",
"221 60 CURVE",
"185 0 LINE"
);
},
{
closed = 1;
nodes = (
"145 230 LINE",
"78 200 OFFCURVE",
"50 162 OFFCURVE",
"50 106 CURVE SMOOTH",
"50 52 OFFCURVE",
"103 0 OFFCURVE",
"185 0 CURVE",
"221 60 LINE",
"174 60 OFFCURVE",
"150 100 OFFCURVE",
"150 130 CURVE SMOOTH",
"150 155 OFFCURVE",
"158 175 OFFCURVE",
"185 195 CURVE"
);
},
{
closed = 1;
nodes = (
"145 230 LINE",
"185 195 LINE",
"351 193 LINE",
"351 230 LINE"
);
},
{
closed = 1;
nodes = (
"549 90 LINE",
"521 66 OFFCURVE",
"505 65 OFFCURVE",
"478 65 CURVE SMOOTH",
"452 65 OFFCURVE",
"433 80 OFFCURVE",
"433 125 CURVE",
"355 79 LINE",
"355 32 OFFCURVE",
"397 -10 OFFCURVE",
"455 -10 CURVE SMOOTH",
"499 -10 OFFCURVE",
"529 20 OFFCURVE",
"554 85 CURVE"
);
}
);
width = 523;
},
{
associatedMasterId = "0F8BB9BB-4444-4167-ACAA-B06A747D7052";
layerId = "5D1D6FFC-B733-4E9B-82A4-5C63455795B3";
name = "Regular Jan 7 16, 17:51 Jan 7 16, 18:36";
paths = (
{
closed = 1;
nodes = (
"318 104 LINE",
"330 79 LINE",
"408 85 LINE",
"408 341 LINE",
"318 296 LINE SMOOTH"
);
},
{
closed = 1;
nodes = (
"209 450 LINE",
"307 450 OFFCURVE",
"318 394 OFFCURVE",
"318 296 CURVE",
"408 341 LINE",
"408 448 OFFCURVE",
"358 490 OFFCURVE",
"249 490 CURVE"
);
},
{
closed = 1;
nodes = (
"113 354 LINE",
"209 450 LINE",
"249 490 LINE",
"179 490 OFFCURVE",
"96 460 OFFCURVE",
"46 420 CURVE"
);
},
{
closed = 1;
nodes = (
"246 0 OFFCURVE",
"295 34 OFFCURVE",
"330 79 CURVE",
"318 104 LINE",
"280 73 OFFCURVE",
"247 60 OFFCURVE",
"206 60 CURVE",
"170 0 LINE"
);
},
{
closed = 1;
nodes = (
"318 255 LINE",
"140 227 OFFCURVE",
"40 201 OFFCURVE",
"40 111 CURVE SMOOTH",
"40 49 OFFCURVE",
"88 0 OFFCURVE",
"170 0 CURVE",
"206 60 LINE",
"164 60 OFFCURVE",
"135 82 OFFCURVE",
"135 126 CURVE SMOOTH",
"135 167 OFFCURVE",
"160 192 OFFCURVE",
"318 220 CURVE"
);
},
{
closed = 1;
nodes = (
"514 80 LINE",
"486 56 OFFCURVE",
"435 45 OFFCURVE",
"408 85 CURVE",
"330 79 LINE",
"330 32 OFFCURVE",
"362 -10 OFFCURVE",
"420 -10 CURVE SMOOTH",
"464 -10 OFFCURVE",
"494 10 OFFCURVE",
"519 75 CURVE"
);
}
);
width = 523;
},
{
associatedMasterId = "0F8BB9BB-4444-4167-ACAA-B06A747D7052";
layerId = "8F4EAA6D-A3BC-497F-91AE-1B8AD2A1066E";
name = "Regular Jan 9 16, 15:21";
paths = (
{
closed = 1;
nodes = (
"318 104 LINE",
"330 79 LINE",
"408 85 LINE",
"408 341 LINE",
"318 296 LINE SMOOTH"
);
},
{
closed = 1;
nodes = (
"219 415 LINE",
"307 415 OFFCURVE",
"318 364 OFFCURVE",
"318 296 CURVE",
"408 341 LINE",
"408 438 OFFCURVE",
"363 490 OFFCURVE",
"254 490 CURVE"
);
},
{
closed = 1;
nodes = (
"71 365 LINE",
"119 397 OFFCURVE",
"161 413 OFFCURVE",
"219 415 CURVE",
"254 490 LINE",
"184 490 OFFCURVE",
"96 450 OFFCURVE",
"66 370 CURVE"
);
},
{
closed = 1;
nodes = (
"246 -10 OFFCURVE",
"295 29 OFFCURVE",
"330 79 CURVE",
"318 104 LINE",
"280 68 OFFCURVE",
"247 50 OFFCURVE",
"206 50 CURVE",
"170 -10 LINE"
);
},
{
closed = 1;
nodes = (
"318 230 LINE",
"105 207 LINE",
"75 185 OFFCURVE",
"45 155 OFFCURVE",
"45 101 CURVE SMOOTH",
"45 29 OFFCURVE",
"98 -10 OFFCURVE",
"170 -10 CURVE",
"206 50 LINE",
"174 50 OFFCURVE",
"145 62 OFFCURVE",
"145 116 CURVE SMOOTH",
"145 137 OFFCURVE",
"150 156 OFFCURVE",
"161 168 CURVE",
"318 195 LINE"
);
},
{
closed = 1;
nodes = (
"514 80 LINE",
"486 56 OFFCURVE",
"435 45 OFFCURVE",
"408 85 CURVE",
"330 79 LINE",
"330 32 OFFCURVE",
"362 -10 OFFCURVE",
"420 -10 CURVE SMOOTH",
"464 -10 OFFCURVE",
"494 10 OFFCURVE",
"519 75 CURVE"
);
}
);
width = 529;
},
{
associatedMasterId = "0F8BB9BB-4444-4167-ACAA-B06A747D7052";
layerId = "236F1998-047D-47CF-8411-F4AA9F5F2BA7";
name = "Regular Jan 17 16, 00:50";
paths = (
{
closed = 1;
nodes = (
"313 104 LINE",
"325 79 LINE",
"403 85 LINE",
"403 341 LINE",
"313 306 LINE SMOOTH"
);
},
{
closed = 1;
nodes = (
"241 -10 OFFCURVE",
"290 29 OFFCURVE",
"325 79 CURVE",
"313 104 LINE",
"275 68 OFFCURVE",
"242 50 OFFCURVE",
"201 50 CURVE",
"165 -10 LINE"
);
},
{
closed = 1;
nodes = (
"313 217 LINE",
"91 245 OFFCURVE",
"40 161 OFFCURVE",
"40 98 CURVE SMOOTH",
"40 30 OFFCURVE",
"98 -10 OFFCURVE",
"165 -10 CURVE",
"201 50 LINE",
"171 50 OFFCURVE",
"135 62 OFFCURVE",
"135 113 CURVE",
"135 174 OFFCURVE",
"221 182 OFFCURVE",
"313 182 CURVE"
);
},
{
closed = 1;
nodes = (
"509 80 LINE",
"481 56 OFFCURVE",
"430 35 OFFCURVE",
"403 85 CURVE",
"325 79 LINE",
"325 32 OFFCURVE",
"357 -10 OFFCURVE",
"415 -10 CURVE SMOOTH",
"459 -10 OFFCURVE",
"489 10 OFFCURVE",
"514 75 CURVE"
);
},
{
closed = 1;
nodes = (
"194 490 OFFCURVE",
"111 460 OFFCURVE",
"61 370 CURVE",
"66 365 LINE",
"117 401 OFFCURVE",
"176 415 OFFCURVE",
"214 415 CURVE SMOOTH",
"282 415 OFFCURVE",
"313 384 OFFCURVE",
"313 306 CURVE",
"403 341 LINE",
"403 438 OFFCURVE",
"353 490 OFFCURVE",
"264 490 CURVE SMOOTH"
);
}
);
width = 524;
},
{
anchors = (
{
name = bottom;
position = "{333, 0}";
},
{
name = ogonek;
position = "{548, 0}";
},
{
name = top;
position = "{333, 530}";
}
);
layerId = "F548E3CC-813E-497B-8EED-D24596D10F9A";
paths = (
{
closed = 1;
nodes = (
"247 -10 OFFCURVE",
"297 23 OFFCURVE",
"328 59 CURVE",
"333 59 LINE",
"323 104 LINE",
"314 96 OFFCURVE",
"300 90 OFFCURVE",
"283 90 CURVE SMOOTH",
"249 90 OFFCURVE",
"230 116 OFFCURVE",
"230 149 CURVE SMOOTH",
"230 171 OFFCURVE",
"239 197 OFFCURVE",
"261 217 CURVE",
"323 217 LINE",
"323 262 LINE",
"110 262 LINE",
"66 236 OFFCURVE",
"25 192 OFFCURVE",
"25 123 CURVE SMOOTH",
"25 42 OFFCURVE",
"82 -10 OFFCURVE",
"174 -10 CURVE SMOOTH"
);
},
{
closed = 1;
nodes = (
"624 111 OFFCURVE",
"612 106 OFFCURVE",
"600 106 CURVE SMOOTH",
"581 106 OFFCURVE",
"568 117 OFFCURVE",
"568 150 CURVE SMOOTH",
"568 361 LINE SMOOTH",
"568 473 OFFCURVE",
"485 540 OFFCURVE",
"349 540 CURVE SMOOTH",
"180 540 OFFCURVE",
"99 437 OFFCURVE",
"56 350 CURVE",
"61 345 LINE",
"128 385 OFFCURVE",
"175 395 OFFCURVE",
"220 395 CURVE SMOOTH",
"281 395 OFFCURVE",
"323 376 OFFCURVE",
"323 296 CURVE SMOOTH",
"323 104 LINE",
"333 59 LINE",
"366 10 OFFCURVE",
"412 -10 OFFCURVE",
"467 -10 CURVE SMOOTH",
"546 -10 OFFCURVE",
"619 32 OFFCURVE",
"640 115 CURVE",
"635 120 LINE"
);
}
);
width = 630;
},
{
anchors = (
{
name = bottom;
position = "{253, 0}";
},
{
name = ogonek;
position = "{434, 0}";
},
{
name = top;
position = "{233, 450}";
}
);
guideLines = (
{
angle = -45;
position = "{334, 93}";
}
);
layerId = "D94A17C2-4593-4D11-9DD5-BACEC39F5EAE";
paths = (
{
closed = 1;
nodes = (
"239 -5 OFFCURVE",
"303 16 OFFCURVE",
"349 64 CURVE",
"354 64 LINE",
"349 84 LINE",
"302 37 OFFCURVE",
"240 11 OFFCURVE",
"180 11 CURVE SMOOTH",
"124 11 OFFCURVE",
"78 37 OFFCURVE",
"78 103 CURVE SMOOTH",
"78 143 OFFCURVE",
"99 177 OFFCURVE",
"124 196 CURVE",
"349 196 LINE",
"349 212 LINE",
"118 212 LINE",
"85 186 OFFCURVE",
"60 153 OFFCURVE",
"60 103 CURVE SMOOTH",
"60 27 OFFCURVE",
"114 -5 OFFCURVE",
"180 -5 CURVE SMOOTH"
);
},
{
closed = 1;
nodes = (
"455 19 OFFCURVE",
"441 11 OFFCURVE",
"417 11 CURVE SMOOTH",
"393 11 OFFCURVE",
"369 24 OFFCURVE",
"369 85 CURVE SMOOTH",
"369 316 LINE SMOOTH",
"369 412 OFFCURVE",
"325 455 OFFCURVE",
"246 455 CURVE SMOOTH",
"182 455 OFFCURVE",
"127 429 OFFCURVE",
"77 380 CURVE",
"82 375 LINE",
"135 418 OFFCURVE",
"182 437 OFFCURVE",
"239 437 CURVE SMOOTH",
"312 437 OFFCURVE",
"349 404 OFFCURVE",
"349 316 CURVE SMOOTH",
"349 84 LINE",
"354 64 LINE",
"354 17 OFFCURVE",
"382 -5 OFFCURVE",
"414 -5 CURVE SMOOTH",
"443 -5 OFFCURVE",
"462 7 OFFCURVE",
"480 40 CURVE",
"475 45 LINE"
);
}
);
width = 500;
},
{
associatedMasterId = "0F8BB9BB-4444-4167-ACAA-B06A747D7052";
layerId = "39B19380-4F70-4F7A-BC6C-1E466F971FBF";
name = "Regular Jun 24 16, 10:51";
paths = (
{
closed = 1;
nodes = (
"239 -10 OFFCURVE",
"286 17 OFFCURVE",
"318 64 CURVE",
"323 64 LINE",
"313 104 LINE",
"274 67 OFFCURVE",
"240 50 OFFCURVE",
"203 50 CURVE SMOOTH",
"171 50 OFFCURVE",
"135 62 OFFCURVE",
"135 113 CURVE SMOOTH",
"135 147 OFFCURVE",
"146 170 OFFCURVE",
"161 187 CURVE",
"313 187 LINE",
"313 222 LINE",
"105 222 LINE",
"71 200 OFFCURVE",
"40 160 OFFCURVE",
"40 100 CURVE SMOOTH",
"40 29 OFFCURVE",
"95 -10 OFFCURVE",
"174 -10 CURVE SMOOTH"
);
},
{
closed = 1;
nodes = (
"485 62 OFFCURVE",
"469 57 OFFCURVE",
"450 57 CURVE SMOOTH",
"423 57 OFFCURVE",
"403 68 OFFCURVE",
"403 115 CURVE SMOOTH",
"403 341 LINE SMOOTH",
"403 438 OFFCURVE",
"353 490 OFFCURVE",
"263 490 CURVE SMOOTH",
"191 490 OFFCURVE",
"109 457 OFFCURVE",
"61 370 CURVE",
"66 365 LINE",
"117 401 OFFCURVE",
"166 415 OFFCURVE",
"213 415 CURVE SMOOTH",
"282 415 OFFCURVE",
"313 384 OFFCURVE",
"313 306 CURVE SMOOTH",
"313 104 LINE",
"323 64 LINE",
"333 18 OFFCURVE",
"365 -10 OFFCURVE",
"415 -10 CURVE SMOOTH",
"457 -10 OFFCURVE",
"489 9 OFFCURVE",
"514 75 CURVE",
"509 80 LINE"
);
}
);
width = 524;
},
{
anchors = (
{
name = bottom;
position = "{350, 0}";
},
{
name = top;
position = "{350, 530}";
}
);
associatedMasterId = "F548E3CC-813E-497B-8EED-D24596D10F9A";
components = (
{
name = com_bp_punca;
transform = "{-1, 0, 0, -1, 685, 530}";
}
);
layerId = "7FBAF9A9-927C-4187-B72D-E3A89DE9C190";
name = "Bold Jul 23 16, 16:49";
paths = (
{
closed = 1;
nodes = (
"650 540 LINE",
"400 430 LINE",
"400 104 LINE",
"410 59 LINE",
"463 -23 LINE",
"650 145 LINE"
);
},
{
closed = 1;
nodes = (
"710 85 LINE",
"650 145 LINE",
"463 -23 LINE"
);
}
);
width = 710;
}
);
leftKerningGroup = o;
leftMetricsKey = "=o+5";
rightKerningGroup = a;
unicode = 0061;
},
{
glyphname = ae;
lastChange = "2016-10-25 09:08:34 +0000";
layers = (
{
anchors = (
{
name = bottom;
position = "{547, 0}";
},
{
name = ogonek;
position = "{617, 0}";
},
{
name = top;
position = "{557, 450}";
}
);
layerId = "D94A17C2-4593-4D11-9DD5-BACEC39F5EAE";
paths = (
{
closed = 1;
nodes = (
"635 -5 OFFCURVE",
"690 25 OFFCURVE",
"730 90 CURVE",
"725 95 LINE",
"676 36 OFFCURVE",
"622 15 OFFCURVE",
"564 15 CURVE SMOOTH",
"442 15 OFFCURVE",
"377 109 OFFCURVE",
"377 231 CURVE SMOOTH",
"377 373 OFFCURVE",
"467 438 OFFCURVE",
"560 438 CURVE SMOOTH",
"652 438 OFFCURVE",
"711 375 OFFCURVE",
"718 286 CURVE",
"740 270 LINE",
"730 395 OFFCURVE",
"657 455 OFFCURVE",
"562 455 CURVE SMOOTH",
"457 455 OFFCURVE",
"359 382 OFFCURVE",
"359 227 CURVE",
"359 92 OFFCURVE",
"432 -5 OFFCURVE",
"563 -5 CURVE SMOOTH"
);
},
{
closed = 1;
nodes = (
"254 -5 OFFCURVE",
"377 36 OFFCURVE",
"377 196 CURVE",
"359 196 LINE",
"359 48 OFFCURVE",
"252 11 OFFCURVE",
"185 11 CURVE SMOOTH",
"128 11 OFFCURVE",
"78 37 OFFCURVE",
"78 102 CURVE SMOOTH",
"78 144 OFFCURVE",
"99 177 OFFCURVE",
"124 196 CURVE",
"369 196 LINE",
"369 212 LINE",
"118 212 LINE",
"85 186 OFFCURVE",
"60 153 OFFCURVE",
"60 103 CURVE SMOOTH",
"60 27 OFFCURVE",
"118 -5 OFFCURVE",
"182 -5 CURVE SMOOTH"
);
},
{
closed = 1;
nodes = (
"377 196 LINE",
"377 316 LINE",
"377 412 OFFCURVE",
"335 455 OFFCURVE",
"255 455 CURVE SMOOTH",
"192 455 OFFCURVE",
"137 429 OFFCURVE",
"87 380 CURVE",
"92 375 LINE",
"145 418 OFFCURVE",
"192 437 OFFCURVE",
"248 437 CURVE SMOOTH",
"322 437 OFFCURVE",
"359 406 OFFCURVE",
"359 316 CURVE SMOOTH",
"359 196 LINE"
);
},
{
closed = 1;
nodes = (
"740 270 LINE",
"718 286 LINE",
"368 286 LINE",
"368 270 LINE"
);
}
);
width = 790;
},
{
anchors = (
{
name = bottom;
position = "{253, 0}";
},
{
name = ogonek;
position = "{460, 10}";
},
{
name = top;
position = "{253, 480}";
}
);
hints = (
{
place = "{661.97, 0}";
}
);
layerId = "0F8BB9BB-4444-4167-ACAA-B06A747D7052";
paths = (
{
closed = 1;
nodes = (
"630 -10 OFFCURVE",
"708 20 OFFCURVE",
"743 125 CURVE",
"738 130 LINE",
"680 86 OFFCURVE",
"632 75 OFFCURVE",
"592 75 CURVE SMOOTH",
"481 75 OFFCURVE",
"423 158 OFFCURVE",
"423 274 CURVE SMOOTH",
"423 387 OFFCURVE",
"478 453 OFFCURVE",
"554 453 CURVE SMOOTH",
"622 453 OFFCURVE",
"648 402 OFFCURVE",
"648 340 CURVE",
"753 305 LINE",
"744 436 OFFCURVE",
"662 490 OFFCURVE",
"568 490 CURVE SMOOTH",
"448 490 OFFCURVE",
"333 403 OFFCURVE",
"333 244 CURVE",
"333 94 OFFCURVE",
"436 -10 OFFCURVE",
"562 -10 CURVE SMOOTH"
);
},
{
closed = 1;
nodes = (
"299 -10 OFFCURVE",
"373 77 OFFCURVE",
"373 204 CURVE",
"333 204 LINE",
"333 87 OFFCURVE",
"256 50 OFFCURVE",
"216 50 CURVE SMOOTH",
"182 50 OFFCURVE",
"145 67 OFFCURVE",
"145 123 CURVE SMOOTH",
"145 149 OFFCURVE",
"153 170 OFFCURVE",
"167 187 CURVE",
"353 187 LINE",
"353 222 LINE",
"118 222 LINE",
"79 201 OFFCURVE",
"50 160 OFFCURVE",
"50 107 CURVE SMOOTH",
"50 34 OFFCURVE",
"107 -10 OFFCURVE",
"191 -10 CURVE SMOOTH"
);
},
{
closed = 1;
nodes = (
"423 204 LINE",
"423 341 LINE",
"423 438 OFFCURVE",
"373 490 OFFCURVE",
"283 490 CURVE SMOOTH",
"211 490 OFFCURVE",
"129 457 OFFCURVE",
"81 370 CURVE",
"86 365 LINE",
"137 401 OFFCURVE",
"186 415 OFFCURVE",
"233 415 CURVE SMOOTH",
"302 415 OFFCURVE",
"333 384 OFFCURVE",
"333 306 CURVE SMOOTH",
"333 204 LINE"
);
},
{
closed = 1;
nodes = (
"753 305 LINE",
"648 340 LINE",
"417 340 LINE",
"417 305 LINE"
);
}
);
width = 793;
},
{
anchors = (
{
name = bottom;
position = "{638, 0}";
},
{
name = ogonek;
position = "{743, 0}";
},
{
name = top;
position = "{638, 530}";
}
);
layerId = "F548E3CC-813E-497B-8EED-D24596D10F9A";
paths = (
{
closed = 1;
nodes = (
"787 -10 OFFCURVE",
"871 68 OFFCURVE",
"908 205 CURVE",
"903 210 LINE",
"849 167 OFFCURVE",
"767 155 OFFCURVE",
"721 155 CURVE SMOOTH",
"616 155 OFFCURVE",
"568 215 OFFCURVE",
"568 350 CURVE SMOOTH",
"568 440 OFFCURVE",
"589 490 OFFCURVE",
"631 490 CURVE SMOOTH",
"669 490 OFFCURVE",
"683 447 OFFCURVE",
"683 350 CURVE",
"908 305 LINE",
"898 444 OFFCURVE",
"811 540 OFFCURVE",
"638 540 CURVE SMOOTH",
"456 540 OFFCURVE",
"333 434 OFFCURVE",
"333 269 CURVE SMOOTH",
"333 119 OFFCURVE",
"435 -10 OFFCURVE",
"633 -10 CURVE SMOOTH"
);
},
{
closed = 1;
nodes = (
"313 -10 OFFCURVE",
"387 60 OFFCURVE",
"389 239 CURVE",
"333 239 LINE",
"333 140 OFFCURVE",
"313 90 OFFCURVE",
"274 90 CURVE SMOOTH",
"246 90 OFFCURVE",
"230 115 OFFCURVE",
"230 147 CURVE SMOOTH",
"230 174 OFFCURVE",
"241 199 OFFCURVE",
"261 217 CURVE",
"373 217 LINE",
"373 262 LINE",
"110 262 LINE",
"66 236 OFFCURVE",
"25 192 OFFCURVE",
"25 124 CURVE SMOOTH",
"25 42 OFFCURVE",
"86 -10 OFFCURVE",
"196 -10 CURVE SMOOTH"
);
},
{
closed = 1;
nodes = (
"558 239 LINE",
"558 361 LINE",
"558 473 OFFCURVE",
"485 540 OFFCURVE",
"349 540 CURVE SMOOTH",
"180 540 OFFCURVE",
"99 437 OFFCURVE",
"56 350 CURVE",
"61 345 LINE",
"128 385 OFFCURVE",
"175 395 OFFCURVE",
"220 395 CURVE SMOOTH",
"291 395 OFFCURVE",
"333 376 OFFCURVE",
"333 296 CURVE SMOOTH",
"333 239 LINE"
);
},
{
closed = 1;
nodes = (
"908 305 LINE",
"683 350 LINE",
"502 350 LINE",
"502 305 LINE"
);
}
);
width = 923;
}
);
leftKerningGroup = o;
leftMetricsKey = "=a";
rightKerningGroup = a;
rightMetricsKey = "=e";
unicode = 00E6;
},
{
glyphname = b;
lastChange = "2016-08-05 20:51:03 +0000";
layers = (
{
anchors = (
{
name = bottom;
position = "{288, 0}";
},
{
name = top;
position = "{288, 480}";
}
);
components = (
{
name = com_gora_i;
transform = "{1, 0, 0, 1, -25, 290}";
},
{
name = com_bp_punca;
}
);
guideLines = (
{
angle = 23.6294;
position = "{75, -10}";
}
);
layerId = "0F8BB9BB-4444-4167-ACAA-B06A747D7052";
paths = (
{
closed = 1;
nodes = (
"75 -10 LINE",
"165 29 LINE",
"165 366 LINE",
"155 401 LINE",
"150 406 LINE",
"165 491 LINE",
"165 780 LINE",
"75 659 LINE"
);
}
);
width = 575;
},
{
anchors = (
{
name = bottom;
position = "{343, 0}";
},
{
name = top;
position = "{343, 530}";
}
);
components = (
{
name = com_gora_i;
transform = "{1, 0, 0, 1, -65, 250}";
},
{
name = com_bp_punca;
}
);
guideLines = (
{
angle = 23.6294;
position = "{35, -10}";
}
);
layerId = "F548E3CC-813E-497B-8EED-D24596D10F9A";
paths = (
{
closed = 1;
nodes = (
"35 -10 LINE",
"285 100 LINE",
"285 426 LINE",
"275 471 LINE",
"270 476 LINE",
"285 541 LINE",
"285 800 LINE",
"35 615 LINE"
);
}
);
width = 685;
},
{
anchors = (
{
name = bottom;
position = "{253, 0}";
},
{
name = top;
position = "{253, 450}";
}
);
components = (
{
name = com_gora_i;
transform = "{1, 0, 0, 1, -110, 290}";
},
{
name = com_bp_punca;
}
);
layerId = "D94A17C2-4593-4D11-9DD5-BACEC39F5EAE";
paths = (
{
closed = 1;
nodes = (
"75 0 LINE",
"95 18 LINE",
"95 366 LINE",
"95 386 LINE",
"90 391 LINE",
"95 486 LINE",
"95 740 LINE",
"75 715 LINE"
);
}
);
width = 505;
},
{
associatedMasterId = "F548E3CC-813E-497B-8EED-D24596D10F9A";
components = (
{
name = com_gora_i;
transform = "{1, 0, 0, 1, -65, 250}";
}
);
layerId = "725DEF81-AE75-4D84-BB34-0704893DA97E";
name = "Bold Jul 13 16, 19:27";
paths = (
{
closed = 1;
nodes = (
"35 -10 LINE",
"285 42 LINE",
"285 426 LINE",
"275 471 LINE",
"270 476 LINE",
"285 541 LINE",
"285 800 LINE",
"35 615 LINE"
);
},
{
closed = 1;
nodes = (
"373 540 OFFCURVE",
"314 521 OFFCURVE",
"275 471 CURVE",
"285 426 LINE",
"298 437 OFFCURVE",
"315 440 OFFCURVE",
"331 440 CURVE SMOOTH",
"371 440 OFFCURVE",
"415 383 OFFCURVE",
"415 245 CURVE SMOOTH",
"415 113 OFFCURVE",
"375 40 OFFCURVE",
"338 40 CURVE SMOOTH",
"312 40 OFFCURVE",
"285 67 OFFCURVE",
"285 127 CURVE",
"124 31 LINE",
"183 0 OFFCURVE",
"256 -10 OFFCURVE",
"338 -10 CURVE SMOOTH",
"475 -10 OFFCURVE",
"665 80 OFFCURVE",
"665 289 CURVE SMOOTH",
"665 470 OFFCURVE",
"540 540 OFFCURVE",
"428 540 CURVE SMOOTH"
);
}
);
width = 685;
},
{
associatedMasterId = "0F8BB9BB-4444-4167-ACAA-B06A747D7052";
components = (
{
name = com_d;
transform = "{-1, 0, 0, -1, 530, 480}";
},
{
name = com_gora_i;
transform = "{1, 0, 0, 1, -25, 290}";
},
{
name = com_d_lacznik;
transform = "{-1, 0, 0, -1, 573, 480}";
}
);
layerId = "4A45C2B4-4D25-4D9D-98D8-4F8DAE412D5E";
name = "Regular Jul 13 16, 19:27";
paths = (
{
closed = 1;
nodes = (
"75 -10 LINE",
"165 7 LINE",
"165 366 LINE",
"155 401 LINE",
"150 406 LINE",
"165 491 LINE",
"165 780 LINE",
"75 659 LINE"
);
}
);
width = 568;
},
{
associatedMasterId = "D94A17C2-4593-4D11-9DD5-BACEC39F5EAE";
components = (
{
name = com_d;
transform = "{-1, 0, 0, -1, 470, 450}";
},
{
name = com_gora_i;
transform = "{1, 0, 0, 1, -110, 290}";
},
{
name = com_d_lacznik;
transform = "{-1, 0, 0, -1, 503, 450}";
}
);
layerId = "E4A6036F-7642-4EFB-8E60-F793DA8CA01D";
name = "Light Jul 13 16, 19:27";
paths = (
{
closed = 1;
nodes = (
"75 -10 LINE",
"95 17 LINE",
"95 366 LINE",
"95 386 LINE",
"90 391 LINE",
"95 486 LINE",
"95 740 LINE",
"75 715 LINE"
);
}
);
width = 503;
},
{
associatedMasterId = "F548E3CC-813E-497B-8EED-D24596D10F9A";
components = (
{
name = com_gora_i;
transform = "{1, 0, 0, 1, -65, 250}";
}
);
layerId = "480DD49C-534C-4FAF-B925-986D8CC67A7D";
name = "Bold Jul 13 16, 19:27 Jul 19 16, 12:40";
paths = (
{
closed = 1;
nodes = (
"35 -10 LINE",
"285 42 LINE",
"285 426 LINE",
"275 471 LINE",
"270 476 LINE",
"285 541 LINE",
"285 800 LINE",
"35 615 LINE"
);
},
{
closed = 1;
nodes = (
"373 540 OFFCURVE",
"314 521 OFFCURVE",
"275 471 CURVE",
"285 426 LINE",
"298 437 OFFCURVE",
"315 440 OFFCURVE",
"331 440 CURVE SMOOTH",
"371 440 OFFCURVE",
"415 383 OFFCURVE",
"415 245 CURVE SMOOTH",
"415 113 OFFCURVE",
"375 40 OFFCURVE",
"338 40 CURVE SMOOTH",
"312 40 OFFCURVE",
"285 67 OFFCURVE",
"285 127 CURVE",
"124 31 LINE",
"183 0 OFFCURVE",
"256 -10 OFFCURVE",
"338 -10 CURVE SMOOTH",
"475 -10 OFFCURVE",
"665 80 OFFCURVE",
"665 289 CURVE SMOOTH",
"665 470 OFFCURVE",
"540 540 OFFCURVE",
"428 540 CURVE SMOOTH"
);
}
);
width = 685;
},
{
anchors = (
{
name = bottom;
position = "{343, 0}";
},
{
name = top;
position = "{343, 530}";
}
);
associatedMasterId = "F548E3CC-813E-497B-8EED-D24596D10F9A";
components = (
{
name = com_d;
transform = "{-1, 0, 0, -1, 620, 530}";
},
{
name = com_gora_i;
transform = "{1, 0, 0, 1, -65, 250}";
},
{
name = com_d_lacznik;
transform = "{-1, 0, 0, -1, 658, 530}";
}
);
layerId = "1CE5BBE9-BFC9-4524-8924-7874AA37CA78";
name = "Bold Jul 19 16, 12:41";
paths = (
{
closed = 1;
nodes = (
"35 -10 LINE",
"285 2 LINE",
"285 426 LINE",
"275 471 LINE",
"270 476 LINE",
"285 541 LINE",
"285 800 LINE",
"35 615 LINE"
);
}
);
width = 685;
}
);
leftMetricsKey = "=l-20";
rightKerningGroup = o;
rightMetricsKey = "=o";
unicode = 0062;
},
{
glyphname = c;
lastChange = "2016-08-20 12:26:22 +0000";
layers = (
{
anchors = (
{
name = bottom;
position = "{275, 0}";
},
{
name = top;
position = "{275, 480}";
}
);
guideLines = (
{
angle = 90;
position = "{455, 259}";
},
{
angle = 139.4846;
position = "{282, 450}";
},
{
angle = 53.1301;
position = "{455, 440}";
}
);
layerId = "0F8BB9BB-4444-4167-ACAA-B06A747D7052";
paths = (
{
closed = 1;
nodes = (
"342 -10 OFFCURVE",
"420 20 OFFCURVE",
"455 125 CURVE",
"450 130 LINE",
"392 86 OFFCURVE",
"344 75 OFFCURVE",
"304 75 CURVE SMOOTH",
"192 75 OFFCURVE",
"135 160 OFFCURVE",
"135 271 CURVE SMOOTH",
"135 386 OFFCURVE",
"196 450 OFFCURVE",
"282 450 CURVE",
"292 490 LINE",
"183 490 OFFCURVE",
"45 414 OFFCURVE",
"45 243 CURVE SMOOTH",
"45 95 OFFCURVE",
"148 -10 OFFCURVE",
"274 -10 CURVE SMOOTH"
);
},
{
closed = 1;
nodes = (
"455 440 LINE",
"415 470 OFFCURVE",
"362 490 OFFCURVE",
"292 490 CURVE",
"282 450 LINE",
"392 356 LINE"
);
}
);
width = 485;
},
{
associatedMasterId = "0F8BB9BB-4444-4167-ACAA-B06A747D7052";
guideLines = (
{
angle = 90;
position = "{446, 259}";
},
{
angle = 137.944;
position = "{375, 327}";
}
);
layerId = "E71A08E4-7E5B-4601-877D-9F2333D14562";
name = "Regular Jan 7 16, 17:59";
paths = (
{
closed = 1;
nodes = (
"130 275 LINE",
"130 384 OFFCURVE",
"187 450 OFFCURVE",
"273 450 CURVE",
"283 490 LINE",
"173 490 OFFCURVE",
"40 418 OFFCURVE",
"40 235 CURVE"
);
},
{
closed = 1;
nodes = (
"384 482 OFFCURVE",
"353 490 OFFCURVE",
"283 490 CURVE",
"273 450 LINE",
"380 450 LINE",
"414 462 LINE"
);
},
{
closed = 1;
nodes = (
"441 130 LINE",
"383 86 OFFCURVE",
"327 75 OFFCURVE",
"290 75 CURVE SMOOTH",
"194 75 OFFCURVE",
"130 160 OFFCURVE",
"130 275 CURVE",
"40 235 LINE",
"40 98 OFFCURVE",
"139 -10 OFFCURVE",
"267 -10 CURVE SMOOTH",
"332 -10 OFFCURVE",
"411 20 OFFCURVE",
"446 125 CURVE"
);
},
{
closed = 1;
nodes = (
"418 343 OFFCURVE",
"446 371 OFFCURVE",
"446 407 CURVE SMOOTH",
"446 442 OFFCURVE",
"418 470 OFFCURVE",
"383 470 CURVE SMOOTH",
"298 470 OFFCURVE",
"299 343 OFFCURVE",
"383 343 CURVE SMOOTH"
);
}
);
width = 466;
},
{
associatedMasterId = "0F8BB9BB-4444-4167-ACAA-B06A747D7052";
guideLines = (
{
angle = 90;
position = "{446, 259}";
},
{
angle = 137.944;
position = "{375, 327}";
}
);
layerId = "14B3949C-10FB-4152-A7C7-3C35E9EA3C50";
name = "Regular Jan 7 16, 18:05";
paths = (
{
closed = 1;
nodes = (
"130 275 LINE",
"130 384 OFFCURVE",
"187 450 OFFCURVE",
"273 450 CURVE",
"283 490 LINE",
"173 490 OFFCURVE",
"40 418 OFFCURVE",
"40 235 CURVE"
);
},
{
closed = 1;
nodes = (
"386 480 OFFCURVE",
"353 490 OFFCURVE",
"283 490 CURVE",
"273 450 LINE",
"332 450 OFFCURVE",
"384 408 OFFCURVE",
"380 357 CURVE",
"432 325 OFFCURVE",
"481 412 OFFCURVE",
"426 450 CURVE SMOOTH"
);
},
{
closed = 1;
nodes = (
"441 130 LINE",
"383 86 OFFCURVE",
"327 75 OFFCURVE",
"290 75 CURVE SMOOTH",
"194 75 OFFCURVE",
"130 160 OFFCURVE",
"130 275 CURVE",
"40 235 LINE",
"40 98 OFFCURVE",
"139 -10 OFFCURVE",
"267 -10 CURVE SMOOTH",
"332 -10 OFFCURVE",
"411 20 OFFCURVE",
"446 125 CURVE"
);
}
);
width = 466;
},
{
anchors = (
{
name = bottom;
position = "{310, 0}";
},
{
name = top;
position = "{310, 530}";
}
);
guideLines = (
{
angle = 90;
position = "{570, 205}";
},
{
angle = 23.6294;
position = "{570, 410}";
},
{
angle = 113.629;
position = "{351, 490}";
}
);
layerId = "F548E3CC-813E-497B-8EED-D24596D10F9A";
paths = (
{
closed = 1;
nodes = (
"451 -10 OFFCURVE",
"533 69 OFFCURVE",
"570 205 CURVE",
"565 210 LINE",
"511 167 OFFCURVE",
"450 155 OFFCURVE",
"412 155 CURVE SMOOTH",
"331 155 OFFCURVE",
"275 209 OFFCURVE",
"275 319 CURVE SMOOTH",
"275 418 OFFCURVE",
"316 480 OFFCURVE",
"351 490 CURVE",
"332 540 LINE",
"157 540 OFFCURVE",
"20 439 OFFCURVE",
"20 265 CURVE SMOOTH",
"20 118 OFFCURVE",
"118 -10 OFFCURVE",
"304 -10 CURVE SMOOTH"
);
},
{
closed = 1;
nodes = (
"570 410 LINE",
"530 500 OFFCURVE",
"442 540 OFFCURVE",
"332 540 CURVE",
"351 490 LINE",
"416 342 LINE"
);
}
);
width = 575;
},
{
anchors = (
{
name = bottom;
position = "{258, 0}";
},
{
name = top;
position = "{258, 450}";
}
);
guideLines = (
{
angle = 53.1301;
position = "{413, 404}";
}
);
layerId = "D94A17C2-4593-4D11-9DD5-BACEC39F5EAE";
paths = (
{
closed = 1;
nodes = (
"335 -5 OFFCURVE",
"390 25 OFFCURVE",
"430 90 CURVE",
"425 95 LINE",
"376 36 OFFCURVE",
"322 15 OFFCURVE",
"264 15 CURVE SMOOTH",
"142 15 OFFCURVE",
"75 110 OFFCURVE",
"75 229 CURVE SMOOTH",
"75 374 OFFCURVE",
"193 458 OFFCURVE",
"319 432 CURVE",
"272 455 LINE",
"167 455 OFFCURVE",
"55 383 OFFCURVE",
"55 225 CURVE SMOOTH",
"55 93 OFFCURVE",
"132 -5 OFFCURVE",
"263 -5 CURVE SMOOTH"
);
},
{
closed = 1;
nodes = (
"413 404 LINE",
"376 430 OFFCURVE",
"332 455 OFFCURVE",
"272 455 CURVE",
"319 432 LINE",
"398 384 LINE"
);
}
);
width = 470;
},
{
annotations = (
{
position = "{305, 423}";
type = Circle;
width = 30;
}
);
associatedMasterId = "D94A17C2-4593-4D11-9DD5-BACEC39F5EAE";
components = (
{
name = szeryf_pion_E;
transform = "{1, 0, 0, 1, 317, -240}";
}
);
guideLines = (
{
angle = 53.1301;
position = "{409, 404}";
}
);
layerId = "1F5D2E10-2530-4AC6-A915-EEAA336C7558";
name = "Light Jun 25 16, 07:22";
paths = (
{
closed = 1;
nodes = (
"331 -5 OFFCURVE",
"386 25 OFFCURVE",
"426 90 CURVE",
"421 95 LINE",
"372 36 OFFCURVE",
"318 15 OFFCURVE",
"260 15 CURVE SMOOTH",
"138 15 OFFCURVE",
"70 110 OFFCURVE",
"70 229 CURVE SMOOTH",
"70 374 OFFCURVE",
"189 458 OFFCURVE",
"315 432 CURVE",
"268 455 LINE",
"163 455 OFFCURVE",
"50 383 OFFCURVE",
"50 225 CURVE SMOOTH",
"50 93 OFFCURVE",
"128 -5 OFFCURVE",
"259 -5 CURVE SMOOTH"
);
},
{
closed = 1;
nodes = (
"409 404 LINE",
"372 430 OFFCURVE",
"328 455 OFFCURVE",
"268 455 CURVE",
"315 432 LINE",
"396 387 LINE"
);
}
);
width = 476;
},
{
associatedMasterId = "0F8BB9BB-4444-4167-ACAA-B06A747D7052";
guideLines = (
{
angle = 90;
position = "{446, 259}";
},
{
angle = 139.4846;
position = "{273, 450}";
},
{
angle = 53.1301;
position = "{446, 440}";
}
);
layerId = "82EA85CB-5335-4A81-8B47-2121741A4E01";
name = "Regular Jun 25 16, 07:22";
paths = (
{
closed = 1;
nodes = (
"332 -10 OFFCURVE",
"411 20 OFFCURVE",
"446 125 CURVE",
"441 130 LINE",
"383 86 OFFCURVE",
"337 75 OFFCURVE",
"290 75 CURVE SMOOTH",
"184 75 OFFCURVE",
"130 160 OFFCURVE",
"130 275 CURVE SMOOTH",
"130 384 OFFCURVE",
"187 450 OFFCURVE",
"273 450 CURVE",
"283 490 LINE",
"173 490 OFFCURVE",
"40 418 OFFCURVE",
"40 235 CURVE SMOOTH",
"40 98 OFFCURVE",
"139 -10 OFFCURVE",
"267 -10 CURVE SMOOTH"
);
},
{
closed = 1;
nodes = (
"446 440 LINE",
"406 470 OFFCURVE",
"353 490 OFFCURVE",
"283 490 CURVE",
"273 450 LINE",
"383 356 LINE"
);
}
);
width = 486;
},
{
associatedMasterId = "F548E3CC-813E-497B-8EED-D24596D10F9A";
guideLines = (
{
angle = 90;
position = "{566, 205}";
},
{
angle = 23.6294;
position = "{566, 410}";
},
{
angle = 113.629;
position = "{347, 490}";
}
);
layerId = "04391766-12D6-4BB8-A3BF-2937EFC7A3EE";
name = "Bold Jun 25 16, 07:22";
paths = (
{
closed = 1;
nodes = (
"445 -10 OFFCURVE",
"530 70 OFFCURVE",
"566 205 CURVE",
"561 210 LINE",
"507 167 OFFCURVE",
"446 155 OFFCURVE",
"410 155 CURVE SMOOTH",
"328 155 OFFCURVE",
"275 210 OFFCURVE",
"275 315 CURVE SMOOTH",
"275 420 OFFCURVE",
"317 490 OFFCURVE",
"347 490 CURVE",
"328 540 LINE",
"153 540 OFFCURVE",
"20 439 OFFCURVE",
"20 265 CURVE SMOOTH",
"20 118 OFFCURVE",
"112 -10 OFFCURVE",
"304 -10 CURVE SMOOTH"
);
},
{
closed = 1;
nodes = (
"566 410 LINE",
"526 500 OFFCURVE",
"438 540 OFFCURVE",
"328 540 CURVE",
"347 490 LINE",
"412 342 LINE"
);
}
);
width = 586;
}
);
leftKerningGroup = o;
leftMetricsKey = "=o";
rightKerningGroup = n;
rightMetricsKey = "=o-15";
unicode = 0063;
},
{
glyphname = d;
lastChange = "2016-09-18 11:08:08 +0000";
layers = (
{
anchors = (
{
name = bottom;
position = "{293, 0}";
},
{
name = center;
position = "{630, 585}";
},
{
name = top;
position = "{293, 480}";
},
{
name = topright;
position = "{565, 480}";
}
);
components = (
{
name = com_gora_i;
transform = "{1, 0, 0, 1, 310, 290}";
},
{
name = com_bp_punca;
transform = "{-1, 0, 0, -1, 575, 480}";
}
);
guideLines = (
{
angle = -36.6071;
position = "{535, 64}";
},
{
angle = 23.6294;
position = "{112, -162}";
},
{
angle = 109.204;
position = "{441, 35}";
}
);
layerId = "0F8BB9BB-4444-4167-ACAA-B06A747D7052";
paths = (
{
closed = 1;
nodes = (
"500 90 LINE",
"500 780 LINE",
"410 658 LINE",
"410 114 LINE",
"420 79 LINE",
"425 79 LINE",
"456 -10 LINE"
);
},
{
closed = 1;
nodes = (
"570 38 LINE",
"500 90 LINE",
"456 -10 LINE"
);
}
);
width = 600;
},
{
anchors = (
{
name = bottom;
position = "{353, 0}";
},
{
name = center;
position = "{711, 590}";
},
{
name = top;
position = "{353, 530}";
},
{
name = topright;
position = "{685, 530}";
}
);
components = (
{
name = com_gora_i;
transform = "{1, 0, 0, 1, 300, 250}";
},
{
name = com_bp_punca;
transform = "{-1, 0, 0, -1, 685, 530}";
}
);
guideLines = (
{
angle = 120.2564;
position = "{668, 115}";
},
{
angle = 120.2564;
position = "{382, 115}";
},
{
angle = 203.5784;
position = "{463, -23}";
}
);
layerId = "F548E3CC-813E-497B-8EED-D24596D10F9A";
paths = (
{
closed = 1;
nodes = (
"650 145 LINE",
"650 800 LINE",
"400 618 LINE",
"400 104 LINE",
"410 59 LINE",
"415 59 LINE",
"463 -23 LINE"
);
},
{
closed = 1;
nodes = (
"710 85 LINE",
"650 145 LINE",
"463 -23 LINE"
);
}
);
width = 710;
},
{
associatedMasterId = "0F8BB9BB-4444-4167-ACAA-B06A747D7052";
components = (
{
name = com_d;
transform = "{1, 0, 0, 1, 43, 0}";
},
{
name = com_gora_i;
transform = "{1, 0, 0, 1, 308, 290}";
},
{
name = com_d_lacznik;
},
{
name = com_gora_i;
transform = "{-1, 0, 0, -1, 598, 468}";
}
);
layerId = "2CF1ECC3-1F2E-4522-AFBC-1D802F23FB09";
name = "Regular Jun 19 16, 14:32";
paths = (
{
closed = 1;
nodes = (
"498 780 LINE",
"408 658 LINE",
"408 114 LINE",
"418 79 LINE",
"423 74 LINE",
"408 -22 LINE",
"498 100 LINE"
);
}
);
width = 583;
},
{
associatedMasterId = "F548E3CC-813E-497B-8EED-D24596D10F9A";
components = (
{
name = com_d;
transform = "{1, 0, 0, 1, 65, 0}";
},
{
name = com_gora_i;
transform = "{1, 0, 0, 1, 300, 250}";
},
{
name = com_d_lacznik;
transform = "{1, 0, 0, 1, 27, 0}";
}
);
guideLines = (
{
angle = 203.6821;
position = "{445, -10}";
},
{
angle = 120.2564;
position = "{410, 59}";
}
);
layerId = "066B0FA1-E25C-4A70-8BC3-F6F7592FC8C1";
name = "Bold Jun 19 16, 14:32";
paths = (
{
closed = 1;
nodes = (
"650 800 LINE",
"400 618 LINE",
"400 104 LINE",
"410 59 LINE",
"449 -8 LINE",
"650 155 LINE"
);
},
{
closed = 1;
nodes = (
"685 95 LINE",
"650 155 LINE",
"449 -8 LINE"
);
}
);
width = 705;
},
{
anchors = (
{
name = bottom;
position = "{253, 0}";
},
{
name = center;
position = "{550, 595}";
},
{
name = top;
position = "{253, 450}";
},
{
name = topright;
position = "{485, 450}";
}
);
components = (
{
name = com_gora_i;
transform = "{1, 0, 0, 1, 225, 290}";
},
{
name = com_bp_punca;
transform = "{-1, 0, 0, -1, 505, 450}";
}
);
layerId = "D94A17C2-4593-4D11-9DD5-BACEC39F5EAE";
paths = (
{
closed = 1;
nodes = (
"430 74 LINE",
"430 740 LINE",
"410 716 LINE",
"410 84 LINE",
"410 64 LINE",
"415 64 LINE",
"436 -5 LINE"
);
},
{
closed = 1;
nodes = (
"450 0 LINE",
"430 74 LINE",
"436 -5 LINE"
);
}
);
width = 520;
},
{
anchors = (
{
name = bottom;
position = "{293, 0}";
},
{
name = center;
position = "{293, 240}";
},
{
name = top;
position = "{293, 480}";
},
{
name = topright;
position = "{565, 480}";
}
);
associatedMasterId = "0F8BB9BB-4444-4167-ACAA-B06A747D7052";
components = (
{
name = com_gora_i;
transform = "{1, 0, 0, 1, 310, 290}";
},
{
name = com_bp_punca;
transform = "{-1, 0, 0, -1, 575, 480}";
}
);
guideLines = (
{
angle = -36.6071;
position = "{535, 64}";
},
{
angle = 23.6294;
position = "{112, -162}";
},
{
angle = 109.204;
position = "{441, 35}";
}
);
layerId = "3409986F-9968-4929-89FE-13BE684BE503";
name = "Regular Jul 23 16, 10:48";
paths = (
{
closed = 1;
nodes = (
"500 90 LINE",
"500 780 LINE",
"410 658 LINE",
"410 114 LINE",
"420 79 LINE",
"425 79 LINE",
"456 64 LINE"
);
},
{
closed = 1;
nodes = (
"583 62 OFFCURVE",
"567 57 OFFCURVE",
"548 57 CURVE SMOOTH",
"521 57 OFFCURVE",
"500 68 OFFCURVE",
"500 115 CURVE",
"410 104 LINE",
"420 64 LINE",
"430 18 OFFCURVE",
"463 -10 OFFCURVE",
"513 -10 CURVE SMOOTH",
"555 -10 OFFCURVE",
"587 9 OFFCURVE",
"612 75 CURVE",
"607 80 LINE"
);
}
);
width = 600;
}
);
leftKerningGroup = o;
leftMetricsKey = "=o";
unicode = 0064;
},
{
glyphname = eth;
lastChange = "2016-09-17 17:55:09 +0000";
layers = (
{
layerId = "D94A17C2-4593-4D11-9DD5-BACEC39F5EAE";
paths = (
{
closed = 1;
nodes = (
"382 -4 OFFCURVE",
"471 81 OFFCURVE",
"471 216 CURVE SMOOTH",
"471 351 OFFCURVE",
"382 435 OFFCURVE",
"263 435 CURVE SMOOTH",
"144 435 OFFCURVE",
"55 351 OFFCURVE",
"55 216 CURVE SMOOTH",
"55 81 OFFCURVE",
"144 -4 OFFCURVE",
"263 -4 CURVE SMOOTH"
);
},
{
closed = 1;
nodes = (
"156 14 OFFCURVE",
"75 91 OFFCURVE",
"75 218 CURVE SMOOTH",
"75 341 OFFCURVE",
"152 417 OFFCURVE",
"261 417 CURVE SMOOTH",
"370 417 OFFCURVE",
"451 341 OFFCURVE",
"451 214 CURVE SMOOTH",
"451 91 OFFCURVE",
"374 14 OFFCURVE",
"265 14 CURVE SMOOTH"
);
},
{
closed = 1;
nodes = (
"471 216 LINE",
"471 526 OFFCURVE",
"365 680 OFFCURVE",
"116 740 CURVE",
"111 725 LINE",
"345 663 OFFCURVE",
"455 526 OFFCURVE",
"455 214 CURVE"
);
},
{
closed = 1;
nodes = (
"207 536 LINE",
"398 727 LINE",
"386 740 LINE",
"195 549 LINE"
);
}
);
width = 526;
},
{
layerId = "0F8BB9BB-4444-4167-ACAA-B06A747D7052";
paths = (
{
closed = 1;
nodes = (
"424 -10 OFFCURVE",
"535 75 OFFCURVE",
"535 250 CURVE",
"505 395 OFFCURVE",
"414 470 OFFCURVE",
"290 470 CURVE SMOOTH",
"156 470 OFFCURVE",
"45 375 OFFCURVE",
"45 230 CURVE SMOOTH",
"45 85 OFFCURVE",
"156 -10 OFFCURVE",
"290 -10 CURVE SMOOTH"
);
},
{
closed = 1;
nodes = (
"221 30 OFFCURVE",
"150 127 OFFCURVE",
"150 252 CURVE SMOOTH",
"150 341 OFFCURVE",
"183 430 OFFCURVE",
"274 430 CURVE SMOOTH",
"379 430 OFFCURVE",
"428 333 OFFCURVE",
"428 208 CURVE SMOOTH",
"428 119 OFFCURVE",
"397 30 OFFCURVE",
"306 30 CURVE SMOOTH"
);
},
{
closed = 1;
nodes = (
"535 250 LINE",
"535 540 OFFCURVE",
"397 730 OFFCURVE",
"118 780 CURVE",
"103 740 LINE",
"344 670 OFFCURVE",
"458 510 OFFCURVE",
"438 208 CURVE"
);
},
{
closed = 1;
nodes = (
"212 547 LINE",
"449 746 LINE",
"420 780 LINE",
"183 581 LINE"
);
}
);
width = 580;
},
{
layerId = "F548E3CC-813E-497B-8EED-D24596D10F9A";
paths = (
{
closed = 1;
nodes = (
"489 -10 OFFCURVE",
"650 55 OFFCURVE",
"650 285 CURVE SMOOTH",
"650 475 OFFCURVE",
"489 520 OFFCURVE",
"340 520 CURVE SMOOTH",
"191 520 OFFCURVE",
"20 445 OFFCURVE",
"20 255 CURVE SMOOTH",
"20 65 OFFCURVE",
"191 -10 OFFCURVE",
"340 -10 CURVE SMOOTH"
);
},
{
closed = 1;
nodes = (
"293 40 OFFCURVE",
"280 133 OFFCURVE",
"280 275 CURVE SMOOTH",
"280 393 OFFCURVE",
"289 470 OFFCURVE",
"336 470 CURVE SMOOTH",
"387 470 OFFCURVE",
"400 377 OFFCURVE",
"400 235 CURVE SMOOTH",
"400 117 OFFCURVE",
"391 40 OFFCURVE",
"344 40 CURVE SMOOTH"
);
},
{
closed = 1;
nodes = (
"650 285 LINE",
"650 545 OFFCURVE",
"472 740 OFFCURVE",
"133 800 CURVE",
"113 740 LINE",
"314 650 OFFCURVE",
"420 587 OFFCURVE",
"420 235 CURVE"
);
},
{
closed = 1;
nodes = (
"156 532 LINE",
"509 779 LINE",
"477 825 LINE",
"124 578 LINE"
);
}
);
width = 670;
}
);
leftKerningGroup = o;
leftMetricsKey = "=o";
rightMetricsKey = "=o";
unicode = 00F0;
},
{
glyphname = e;
lastChange = "2016-10-11 23:03:42 +0000";
layers = (
{
anchors = (
{
name = bottom;
position = "{275, 0}";
},
{
name = ogonek;
position = "{355, 0}";
},
{
name = top;
position = "{275, 480}";
}
);
guideLines = (
{
position = "{277, 450}";
}
);
hints = (
{
place = "{356.97, 0}";
}
);
layerId = "0F8BB9BB-4444-4167-ACAA-B06A747D7052";
paths = (
{
closed = 1;
nodes = (
"129 340 LINE",
"129 305 LINE",
"465 305 LINE",
"360 340 LINE"
);
},
{
closed = 1;
nodes = (
"193 75 OFFCURVE",
"135 158 OFFCURVE",
"135 274 CURVE SMOOTH",
"135 387 OFFCURVE",
"190 453 OFFCURVE",
"266 453 CURVE SMOOTH",
"334 453 OFFCURVE",
"360 402 OFFCURVE",
"360 340 CURVE",
"465 305 LINE",
"456 436 OFFCURVE",
"374 490 OFFCURVE",
"280 490 CURVE SMOOTH",
"160 490 OFFCURVE",
"45 403 OFFCURVE",
"45 244 CURVE SMOOTH",
"45 94 OFFCURVE",
"148 -10 OFFCURVE",
"274 -10 CURVE SMOOTH",
"342 -10 OFFCURVE",
"420 20 OFFCURVE",
"455 125 CURVE",
"450 130 LINE",
"392 86 OFFCURVE",
"344 75 OFFCURVE",
"304 75 CURVE SMOOTH"
);
}
);
width = 505;
},
{
anchors = (
{
name = bottom;
position = "{325, 0}";
},
{
name = ogonek;
position = "{430, 0}";
},
{
name = top;
position = "{325, 530}";
}
);
layerId = "F548E3CC-813E-497B-8EED-D24596D10F9A";
paths = (
{
closed = 1;
nodes = (
"189 350 LINE",
"189 305 LINE",
"595 305 LINE",
"370 350 LINE"
);
},
{
closed = 1;
nodes = (
"313 155 OFFCURVE",
"255 210 OFFCURVE",
"255 353 CURVE SMOOTH",
"255 439 OFFCURVE",
"276 490 OFFCURVE",
"318 490 CURVE SMOOTH",
"356 490 OFFCURVE",
"370 447 OFFCURVE",
"370 350 CURVE",
"595 305 LINE",
"585 444 OFFCURVE",
"498 540 OFFCURVE",
"325 540 CURVE SMOOTH",
"143 540 OFFCURVE",
"20 434 OFFCURVE",
"20 269 CURVE SMOOTH",
"20 119 OFFCURVE",
"122 -10 OFFCURVE",
"320 -10 CURVE SMOOTH",
"474 -10 OFFCURVE",
"558 68 OFFCURVE",
"595 205 CURVE",
"590 210 LINE",
"537 167 OFFCURVE",
"460 155 OFFCURVE",
"413 155 CURVE SMOOTH"
);
}
);
width = 610;
},
{
anchors = (
{
name = bottom;
position = "{243, 0}";
},
{
name = ogonek;
position = "{313, 0}";
},
{
name = top;
position = "{253, 450}";
}
);
guideLines = (
{
position = "{125, -5}";
},
{
angle = -45;
position = "{424, 93}";
}
);
layerId = "D94A17C2-4593-4D11-9DD5-BACEC39F5EAE";
paths = (
{
closed = 1;
nodes = (
"64 286 LINE",
"64 270 LINE",
"436 270 LINE",
"414 286 LINE"
);
},
{
closed = 1;
nodes = (
"138 15 OFFCURVE",
"73 109 OFFCURVE",
"73 231 CURVE SMOOTH",
"73 373 OFFCURVE",
"163 438 OFFCURVE",
"256 438 CURVE SMOOTH",
"348 438 OFFCURVE",
"407 375 OFFCURVE",
"414 286 CURVE",
"436 270 LINE",
"426 395 OFFCURVE",
"353 455 OFFCURVE",
"258 455 CURVE SMOOTH",
"153 455 OFFCURVE",
"55 382 OFFCURVE",
"55 227 CURVE SMOOTH",
"55 92 OFFCURVE",
"128 -5 OFFCURVE",
"259 -5 CURVE SMOOTH",
"331 -5 OFFCURVE",
"386 25 OFFCURVE",
"426 90 CURVE",
"421 95 LINE",
"372 36 OFFCURVE",
"318 15 OFFCURVE",
"260 15 CURVE SMOOTH"
);
}
);
width = 486;
}
);
leftKerningGroup = o;
leftMetricsKey = "=o";
rightKerningGroup = o;
rightMetricsKey = "=o-5";
unicode = 0065;
},
{
glyphname = f;
lastChange = "2016-10-25 08:54:22 +0000";
layers = (
{
anchors = (
{
name = bottom;
position = "{190, 0}";
},
{
name = top;
position = "{190, 480}";
}
);
components = (
{
name = szeryf;
transform = "{1, 0, 0, 1, 19, 0}";
},
{
name = szeryf_long;
transform = "{1, 0, 0, 1, 11, 0}";
}
);
guideLines = (
{
angle = 53.1301;
position = "{460, 750}";
},
{
angle = 139.4846;
position = "{395, 663}";
}
);
layerId = "0F8BB9BB-4444-4167-ACAA-B06A747D7052";
paths = (
{
closed = 1;
nodes = (
"110 0 LINE",
"200 0 LINE",
"200 555 LINE",
"110 525 LINE"
);
},
{
closed = 1;
nodes = (
"10 420 LINE",
"329 420 LINE",
"360 480 LINE",
"110 480 LINE",
"110 495 LINE"
);
},
{
closed = 1;
nodes = (
"200 555 LINE",
"200 664 OFFCURVE",
"235 734 OFFCURVE",
"306 740 CURVE",
"326 780 LINE",
"216 780 OFFCURVE",
"110 708 OFFCURVE",
"110 525 CURVE"
);
},
{
closed = 1;
nodes = (
"460 750 LINE",
"425 768 OFFCURVE",
"379 780 OFFCURVE",
"326 780 CURVE",
"306 740 LINE",
"395 663 LINE"
);
}
);
width = 330;
},
{
anchors = (
{
name = bottom;
position = "{245, 0}";
},
{
name = top;
position = "{245, 530}";
}
);
components = (
{
name = szeryf;
transform = "{1, 0, 0, 1, 8, 0}";
},
{
name = szeryf_long;
transform = "{1, 0, 0, 1, 148, 0}";
}
);
guideLines = (
{
angle = 120.2564;
position = "{386, 740}";
}
);
layerId = "F548E3CC-813E-497B-8EED-D24596D10F9A";
paths = (
{
closed = 1;
nodes = (
"87 0 LINE",
"337 0 LINE",
"337 530 LINE",
"87 545 LINE"
);
},
{
closed = 1;
nodes = (
"0 450 LINE",
"467 450 LINE",
"497 530 LINE",
"87 530 LINE",
"87 545 LINE"
);
},
{
closed = 1;
nodes = (
"337 530 LINE",
"337 639 OFFCURVE",
"350 710 OFFCURVE",
"386 740 CURVE",
"386 800 LINE",
"266 800 OFFCURVE",
"87 748 OFFCURVE",
"87 545 CURVE"
);
},
{
closed = 1;
nodes = (
"610 693 LINE",
"540 786 OFFCURVE",
"459 800 OFFCURVE",
"386 800 CURVE",
"386 740 LINE",
"453 625 LINE"
);
}
);
width = 450;
},
{
anchors = (
{
name = bottom;
position = "{183, 0}";
},
{
name = top;
position = "{183, 450}";
}
);
components = (
{
name = szeryf;
transform = "{1, 0, 0, 1, -65, 0}";
},
{
name = szeryf_long;
transform = "{1, 0, 0, 1, -45, 0}";
}
);
guideLines = (
{
angle = 53.1301;
position = "{414, 728}";
}
);
layerId = "D94A17C2-4593-4D11-9DD5-BACEC39F5EAE";
paths = (
{
closed = 1;
nodes = (
"120 0 LINE",
"140 0 LINE",
"140 495 LINE",
"120 505 LINE"
);
},
{
closed = 1;
nodes = (
"20 432 LINE",
"341 432 LINE",
"350 450 LINE",
"120 450 LINE",
"120 455 LINE"
);
},
{
closed = 1;
nodes = (
"140 495 LINE",
"140 668 OFFCURVE",
"214 726 OFFCURVE",
"326 721 CURVE",
"300 740 LINE",
"204 740 OFFCURVE",
"120 678 OFFCURVE",
"120 505 CURVE"
);
},
{
closed = 1;
nodes = (
"425 700 LINE",
"390 723 OFFCURVE",
"353 740 OFFCURVE",
"300 740 CURVE",
"326 721 LINE",
"412 683 LINE"
);
}
);
width = 325;
},
{
anchors = (
{
name = bottom;
position = "{170, 0}";
},
{
name = top;
position = "{170, 480}";
}
);
associatedMasterId = "0F8BB9BB-4444-4167-ACAA-B06A747D7052";
components = (
{
name = szeryf;
transform = "{1, 0, 0, 1, -1, 0}";
},
{
name = szeryf_long;
transform = "{1, 0, 0, 1, -9, 0}";
}
);
guideLines = (
{
angle = 53.1301;
position = "{440, 750}";
},
{
angle = 139.4846;
position = "{375, 663}";
}
);
layerId = "74F4F634-A236-4383-97A9-BC7BACC0F053";
name = "Regular Jul 31 16, 14:37";
paths = (
{
closed = 1;
nodes = (
"90 0 LINE",
"180 0 LINE",
"180 585 LINE",
"90 555 LINE"
);
},
{
closed = 1;
nodes = (
"-10 420 LINE",
"309 420 LINE",
"340 480 LINE",
"90 480 LINE",
"90 495 LINE"
);
},
{
closed = 1;
nodes = (
"377 739 OFFCURVE",
"327 782 OFFCURVE",
"263 782 CURVE SMOOTH",
"175 782 OFFCURVE",
"90 732 OFFCURVE",
"90 555 CURVE",
"180 585 LINE",
"180 631 OFFCURVE",
"202 700 OFFCURVE",
"276 700 CURVE SMOOTH",
"322 700 OFFCURVE",
"356 676 OFFCURVE",
"397 644 CURVE",
"402 649 LINE"
);
}
);
width = 340;
},
{
anchors = (
{
name = bottom;
position = "{170, 0}";
},
{
name = top;
position = "{170, 480}";
}
);
associatedMasterId = "0F8BB9BB-4444-4167-ACAA-B06A747D7052";
components = (
{
name = szeryf;
transform = "{1, 0, 0, 1, -1, 0}";
},
{
name = szeryf_long;
transform = "{1, 0, 0, 1, -9, 0}";
}
);
guideLines = (
{
angle = 53.1301;
position = "{440, 750}";
},
{
angle = 139.4846;
position = "{375, 663}";
}
);
layerId = "62FCD522-0177-4834-8604-E586A4F5B2BE";
name = "Regular Aug 27 16, 18:29";
paths = (
{
closed = 1;
nodes = (
"90 0 LINE",
"180 0 LINE",
"180 555 LINE",
"90 525 LINE"
);
},
{
closed = 1;
nodes = (
"-10 420 LINE",
"309 420 LINE",
"340 480 LINE",
"90 480 LINE",
"90 495 LINE"
);
},
{
closed = 1;
nodes = (
"180 555 LINE",
"180 664 OFFCURVE",
"220 739 OFFCURVE",
"371 775 CURVE",
"366 780 LINE",
"206 780 OFFCURVE",
"90 708 OFFCURVE",
"90 525 CURVE"
);
}
);
width = 340;
}
);
rightKerningGroup = f;
unicode = 0066;
},
{
glyphname = g;
lastChange = "2016-10-11 13:50:40 +0000";
layers = (
{
anchors = (
{
name = bottom;
position = "{268, 0}";
},
{
name = top;
position = "{268, 480}";
}
);
guideLines = (
{
angle = 90;
position = "{55, 320}";
},
{
angle = 90;
position = "{421, 330}";
},
{
angle = 90;
position = "{516, -55}";
}
);
layerId = "0F8BB9BB-4444-4167-ACAA-B06A747D7052";
paths = (
{
closed = 1;
nodes = (
"422 -250 OFFCURVE",
"515 -166 OFFCURVE",
"515 -64 CURVE SMOOTH",
"515 -1 OFFCURVE",
"480 50 OFFCURVE",
"430 75 CURVE",
"171 75 LINE SMOOTH",
"142 75 OFFCURVE",
"127 93 OFFCURVE",
"127 117 CURVE SMOOTH",
"127 142 OFFCURVE",
"142 169 OFFCURVE",
"173 192 CURVE",
"158 219 LINE",
"95 190 OFFCURVE",
"55 146 OFFCURVE",
"55 88 CURVE SMOOTH",
"55 47 OFFCURVE",
"75 10 OFFCURVE",
"112 -10 CURVE",
"340 -10 LINE SMOOTH",
"395 -10 OFFCURVE",
"420 -40 OFFCURVE",
"420 -90 CURVE SMOOTH",
"420 -157 OFFCURVE",
"375 -210 OFFCURVE",
"261 -210 CURVE",
"241 -250 LINE"
);
},
{
closed = 1;
nodes = (
"261 -210 LINE",
"168 -210 OFFCURVE",
"116 -166 OFFCURVE",
"116 -100 CURVE SMOOTH",
"116 -60 OFFCURVE",
"134 -31 OFFCURVE",
"152 -9 CURVE",
"152 11 LINE",
"59 -22 OFFCURVE",
"30 -73 OFFCURVE",
"30 -122 CURVE SMOOTH",
"30 -197 OFFCURVE",
"96 -250 OFFCURVE",
"241 -250 CURVE"
);
},
{
closed = 1;
nodes = (
"515 485 LINE",
"338 475 LINE",
"338 465 LINE",
"515 405 LINE"
);
},
{
closed = 1;
nodes = (
"158 490 OFFCURVE",
"65 430 OFFCURVE",
"65 330 CURVE SMOOTH",
"65 230 OFFCURVE",
"158 170 OFFCURVE",
"258 170 CURVE SMOOTH",
"358 170 OFFCURVE",
"451 230 OFFCURVE",
"451 330 CURVE SMOOTH",
"451 430 OFFCURVE",
"358 490 OFFCURVE",
"258 490 CURVE SMOOTH"
);
},
{
closed = 1;
nodes = (
"204 207 OFFCURVE",
"160 265 OFFCURVE",
"160 338 CURVE SMOOTH",
"160 401 OFFCURVE",
"192 453 OFFCURVE",
"250 453 CURVE SMOOTH",
"312 453 OFFCURVE",
"356 395 OFFCURVE",
"356 322 CURVE SMOOTH",
"356 259 OFFCURVE",
"324 207 OFFCURVE",
"266 207 CURVE SMOOTH"
);
}
);
width = 525;
},
{
anchors = (
{
name = bottom;
position = "{328, 0}";
},
{
name = top;
position = "{328, 530}";
}
);
guideLines = (
{
angle = 90;
position = "{20, 370}";
}
);
layerId = "F548E3CC-813E-497B-8EED-D24596D10F9A";
paths = (
{
closed = 1;
nodes = (
"545 -250 OFFCURVE",
"655 -137 OFFCURVE",
"655 -21 CURVE SMOOTH",
"655 48 OFFCURVE",
"617 100 OFFCURVE",
"564 130 CURVE",
"181 130 LINE SMOOTH",
"152 130 OFFCURVE",
"137 143 OFFCURVE",
"137 167 CURVE SMOOTH",
"137 189 OFFCURVE",
"151 204 OFFCURVE",
"188 227 CURVE",
"143 249 LINE",
"68 213 OFFCURVE",
"20 155 OFFCURVE",
"20 78 CURVE SMOOTH",
"20 21 OFFCURVE",
"47 -29 OFFCURVE",
"102 -60 CURVE",
"355 -60 LINE SMOOTH",
"399 -60 OFFCURVE",
"420 -79 OFFCURVE",
"420 -110 CURVE SMOOTH",
"420 -163 OFFCURVE",
"368 -200 OFFCURVE",
"281 -200 CURVE",
"261 -250 LINE"
);
},
{
closed = 1;
nodes = (
"281 -200 LINE",
"188 -200 OFFCURVE",
"160 -167 OFFCURVE",
"160 -118 CURVE SMOOTH",
"160 -92 OFFCURVE",
"168 -66 OFFCURVE",
"196 -44 CURVE",
"122 -34 LINE",
"53 -55 OFFCURVE",
"10 -88 OFFCURVE",
"10 -137 CURVE SMOOTH",
"10 -215 OFFCURVE",
"117 -250 OFFCURVE",
"261 -250 CURVE"
);
},
{
closed = 1;
nodes = (
"655 540 LINE",
"478 516 LINE",
"478 496 LINE",
"655 425 LINE"
);
},
{
closed = 1;
nodes = (
"208 540 OFFCURVE",
"40 510 OFFCURVE",
"40 360 CURVE SMOOTH",
"40 210 OFFCURVE",
"208 180 OFFCURVE",
"318 180 CURVE SMOOTH",
"428 180 OFFCURVE",
"596 210 OFFCURVE",
"596 360 CURVE SMOOTH",
"596 510 OFFCURVE",
"428 540 OFFCURVE",
"318 540 CURVE SMOOTH"
);
},
{
closed = 1;
nodes = (
"290 227 OFFCURVE",
"267 301 OFFCURVE",
"267 381 CURVE SMOOTH",
"267 446 OFFCURVE",
"282 493 OFFCURVE",
"309 493 CURVE SMOOTH",
"342 493 OFFCURVE",
"365 419 OFFCURVE",
"365 339 CURVE SMOOTH",
"365 274 OFFCURVE",
"350 227 OFFCURVE",
"323 227 CURVE SMOOTH"
);
}
);
width = 655;
},
{
anchors = (
{
name = bottom;
position = "{258, 0}";
},
{
name = top;
position = "{258, 450}";
}
);
guideLines = (
{
position = "{135, 455}";
},
{
angle = 90;
position = "{85, 320}";
}
);
layerId = "D94A17C2-4593-4D11-9DD5-BACEC39F5EAE";
paths = (
{
closed = 1;
nodes = (
"412 -250 OFFCURVE",
"490 -179 OFFCURVE",
"490 -85 CURVE SMOOTH",
"490 -30 OFFCURVE",
"464 9 OFFCURVE",
"425 28 CURVE",
"156 28 LINE SMOOTH",
"128 28 OFFCURVE",
"98 48 OFFCURVE",
"98 93 CURVE SMOOTH",
"98 125 OFFCURVE",
"114 148 OFFCURVE",
"168 184 CURVE",
"158 194 LINE",
"105 164 OFFCURVE",
"80 131 OFFCURVE",
"80 88 CURVE SMOOTH",
"80 42 OFFCURVE",
"108 21 OFFCURVE",
"137 10 CURVE",
"400 10 LINE SMOOTH",
"443 10 OFFCURVE",
"470 -32 OFFCURVE",
"470 -85 CURVE SMOOTH",
"470 -169 OFFCURVE",
"401 -232 OFFCURVE",
"251 -232 CURVE",
"251 -250 LINE"
);
},
{
closed = 1;
nodes = (
"251 -232 LINE",
"137 -232 OFFCURVE",
"70 -189 OFFCURVE",
"70 -116 CURVE SMOOTH",
"70 -67 OFFCURVE",
"100 -23 OFFCURVE",
"161 10 CURVE",
"157 25 LINE",
"88 -6 OFFCURVE",
"50 -62 OFFCURVE",
"50 -119 CURVE SMOOTH",
"50 -199 OFFCURVE",
"127 -250 OFFCURVE",
"251 -250 CURVE"
);
},
{
closed = 1;
nodes = (
"480 455 LINE",
"289 450 LINE",
"289 440 LINE",
"480 437 LINE"
);
},
{
closed = 1;
nodes = (
"168 455 OFFCURVE",
"85 395 OFFCURVE",
"85 305 CURVE SMOOTH",
"85 215 OFFCURVE",
"168 155 OFFCURVE",
"258 155 CURVE SMOOTH",
"348 155 OFFCURVE",
"431 215 OFFCURVE",
"431 305 CURVE SMOOTH",
"431 395 OFFCURVE",
"348 455 OFFCURVE",
"258 455 CURVE SMOOTH"
);
},
{
closed = 1;
nodes = (
"181 173 OFFCURVE",
"104 223 OFFCURVE",
"104 305 CURVE SMOOTH",
"104 383 OFFCURVE",
"175 437 OFFCURVE",
"257 437 CURVE SMOOTH",
"335 437 OFFCURVE",
"412 387 OFFCURVE",
"412 305 CURVE SMOOTH",
"412 227 OFFCURVE",
"341 173 OFFCURVE",
"259 173 CURVE SMOOTH"
);
}
);
width = 505;
},
{
associatedMasterId = "0F8BB9BB-4444-4167-ACAA-B06A747D7052";
guideLines = (
{
angle = 90;
position = "{45, 320}";
},
{
angle = 90;
position = "{411, 330}";
},
{
angle = 90;
position = "{506, -55}";
}
);
layerId = "7A58183E-BD97-4F6A-A88D-A61D30D6438B";
name = "Regular Jun 25 16, 17:24";
paths = (
{
closed = 1;
nodes = (
"53 -20 OFFCURVE",
"20 -72 OFFCURVE",
"20 -119 CURVE SMOOTH",
"20 -199 OFFCURVE",
"87 -250 OFFCURVE",
"231 -250 CURVE",
"251 -210 LINE",
"159 -210 OFFCURVE",
"110 -167 OFFCURVE",
"110 -99 CURVE SMOOTH",
"110 -61 OFFCURVE",
"128 -31 OFFCURVE",
"146 -9 CURVE",
"142 11 LINE"
);
},
{
closed = 1;
nodes = (
"329 470 LINE",
"506 410 LINE",
"506 490 LINE",
"329 480 LINE"
);
},
{
closed = 1;
nodes = (
"161 75 LINE SMOOTH",
"101 75 OFFCURVE",
"103 152 OFFCURVE",
"163 197 CURVE",
"148 224 LINE",
"85 195 OFFCURVE",
"45 146 OFFCURVE",
"45 88 CURVE SMOOTH",
"45 47 OFFCURVE",
"65 10 OFFCURVE",
"102 -10 CURVE",
"321 -10 LINE SMOOTH",
"386 -10 OFFCURVE",
"411 -39 OFFCURVE",
"411 -89 CURVE SMOOTH",
"411 -156 OFFCURVE",
"366 -210 OFFCURVE",
"251 -210 CURVE",
"231 -250 LINE",
"413 -250 OFFCURVE",
"506 -166 OFFCURVE",
"506 -64 CURVE SMOOTH",
"506 -1 OFFCURVE",
"471 50 OFFCURVE",
"421 75 CURVE"
);
},
{
closed = 1;
nodes = (
"150 335 LINE",
"150 398 OFFCURVE",
"188 458 OFFCURVE",
"248 458 CURVE",
"248 495 LINE",
"148 495 OFFCURVE",
"55 435 OFFCURVE",
"55 335 CURVE"
);
},
{
closed = 1;
nodes = (
"55 235 OFFCURVE",
"148 175 OFFCURVE",
"248 175 CURVE",
"248 212 LINE",
"188 212 OFFCURVE",
"150 272 OFFCURVE",
"150 335 CURVE",
"55 335 LINE"
);
},
{
closed = 1;
nodes = (
"441 435 OFFCURVE",
"348 495 OFFCURVE",
"248 495 CURVE",
"248 458 LINE",
"308 458 OFFCURVE",
"346 398 OFFCURVE",
"346 335 CURVE",
"441 335 LINE"
);
},
{
closed = 1;
nodes = (
"346 335 LINE",
"346 272 OFFCURVE",
"308 212 OFFCURVE",
"248 212 CURVE",
"248 175 LINE",
"348 175 OFFCURVE",
"441 235 OFFCURVE",
"441 335 CURVE"
);
}
);
width = 541;
},
{
associatedMasterId = "0F8BB9BB-4444-4167-ACAA-B06A747D7052";
components = (
{
name = com_g;
transform = "{1, 0, 0, 1, -30, 15}";
},
{
name = com_g;
transform = "{1, 0, 0, -1, -30, 655}";
},
{
name = com_g;
transform = "{-1, 0, 0, 1, 526, 15}";
},
{
name = com_g;
transform = "{-1, 0, 0, -1, 526, 655}";
}
);
guideLines = (
{
angle = 90;
position = "{45, 320}";
},
{
angle = 90;
position = "{411, 330}";
},
{
angle = 90;
position = "{506, -55}";
}
);
layerId = "3254706B-AF31-4DE1-AD51-DBBCE9A099B9";
name = "Regular Jun 25 16, 17:24 Jun 25 16, 17:24";
paths = (
{
closed = 1;
nodes = (
"53 -20 OFFCURVE",
"20 -72 OFFCURVE",
"20 -119 CURVE SMOOTH",
"20 -199 OFFCURVE",
"87 -250 OFFCURVE",
"231 -250 CURVE",
"251 -210 LINE",
"159 -210 OFFCURVE",
"110 -167 OFFCURVE",
"110 -99 CURVE SMOOTH",
"110 -61 OFFCURVE",
"128 -31 OFFCURVE",
"146 -9 CURVE",
"142 11 LINE"
);
},
{
closed = 1;
nodes = (
"329 470 LINE",
"506 410 LINE",
"506 490 LINE",
"329 480 LINE"
);
},
{
closed = 1;
nodes = (
"161 75 LINE SMOOTH",
"101 75 OFFCURVE",
"103 152 OFFCURVE",
"163 197 CURVE",
"148 224 LINE",
"85 195 OFFCURVE",
"45 146 OFFCURVE",
"45 88 CURVE SMOOTH",
"45 47 OFFCURVE",
"65 10 OFFCURVE",
"102 -10 CURVE",
"321 -10 LINE SMOOTH",
"386 -10 OFFCURVE",
"411 -39 OFFCURVE",
"411 -89 CURVE SMOOTH",
"411 -156 OFFCURVE",
"366 -210 OFFCURVE",
"251 -210 CURVE",
"231 -250 LINE",
"413 -250 OFFCURVE",
"506 -166 OFFCURVE",
"506 -64 CURVE SMOOTH",
"506 -1 OFFCURVE",
"471 50 OFFCURVE",
"421 75 CURVE"
);
}
);
width = 541;
}
);
leftKerningGroup = o;
rightKerningGroup = n;
unicode = 0067;
},
{
glyphname = h;
lastChange = "2016-08-05 20:51:36 +0000";
layers = (
{
anchors = (
{
name = bottom;
position = "{310, 0}";
},
{
name = center;
position = "{370, 585}";
},
{
name = top;
position = "{310, 480}";
}
);
components = (
{
alignment = -1;
name = szeryf;
transform = "{1, 0, 0, 1, 14, 0}";
},
{
alignment = -1;
name = szeryf;
transform = "{-1, 0, 0, 1, 286, 0}";
},
{
name = com_h;
transform = "{1, 0, 0, 1, 25, 0}";
},
{
name = com_gora_i;
transform = "{1, 0, 0, 1, 5, 290}";
}
);
layerId = "0F8BB9BB-4444-4167-ACAA-B06A747D7052";
paths = (
{
closed = 1;
nodes = (
"105 0 LINE",
"195 0 LINE",
"195 366 LINE",
"185 401 LINE",
"180 406 LINE",
"195 491 LINE",
"195 780 LINE",
"105 659 LINE"
);
}
);
width = 620;
},
{
anchors = (
{
name = bottom;
position = "{355, 0}";
},
{
name = center;
position = "{430, 590}";
},
{
name = top;
position = "{355, 530}";
}
);
components = (
{
alignment = -1;
name = szeryf;
transform = "{1, 0, 0, 1, -25, 0}";
},
{
alignment = -1;
name = szeryf;
transform = "{-1, 0, 0, 1, 385, 0}";
},
{
name = com_h;
transform = "{1, 0, 0, 1, 135, 0}";
},
{
name = com_gora_i;
transform = "{1, 0, 0, 1, -45, 250}";
}
);
layerId = "F548E3CC-813E-497B-8EED-D24596D10F9A";
paths = (
{
closed = 1;
nodes = (
"55 0 LINE",
"305 0 LINE",
"305 406 LINE",
"295 441 LINE",
"290 446 LINE",
"305 531 LINE",
"305 800 LINE",
"55 615 LINE"
);
}
);
width = 710;
},
{
associatedMasterId = "0F8BB9BB-4444-4167-ACAA-B06A747D7052";
layerId = "FEFF68F3-5005-456E-AEA8-B3574362880D";
name = sans;
paths = (
{
closed = 1;
nodes = (
"25 0 LINE",
"115 0 LINE",
"115 326 LINE",
"105 401 LINE",
"115 490 LINE",
"115 780 LINE",
"25 659 LINE"
);
},
{
closed = 1;
nodes = (
"350 0 LINE",
"440 0 LINE",
"440 351 LINE",
"350 306 LINE SMOOTH"
);
},
{
closed = 1;
nodes = (
"115 326 LINE",
"158 377 OFFCURVE",
"214 405 OFFCURVE",
"266 405 CURVE",
"324 405 OFFCURVE",
"350 374 OFFCURVE",
"350 306 CURVE",
"440 351 LINE",
"440 458 OFFCURVE",
"368 490 OFFCURVE",
"299 490 CURVE",
"213 490 OFFCURVE",
"135 431 OFFCURVE",
"105 401 CURVE"
);
},
{
closed = 1;
nodes = (
"25 741 LINE",
"25 658 LINE",
"115 780 LINE"
);
}
);
width = 505;
},
{
associatedMasterId = "F548E3CC-813E-497B-8EED-D24596D10F9A";
layerId = "6843B632-D6B2-4323-BB10-0A6225A34797";
name = "Bold Jun 19 16, 16:41";
paths = (
{
closed = 1;
nodes = (
"55 0 LINE",
"305 0 LINE",
"305 316 LINE",
"295 441 LINE",
"290 446 LINE",
"305 530 LINE",
"305 800 LINE",
"55 690 LINE"
);
},
{
closed = 1;
nodes = (
"410 0 LINE",
"660 0 LINE",
"660 380 LINE",
"410 280 LINE SMOOTH"
);
},
{
closed = 1;
nodes = (
"305 316 LINE",
"328 330 OFFCURVE",
"344 335 OFFCURVE",
"366 335 CURVE",
"394 335 OFFCURVE",
"410 318 OFFCURVE",
"410 280 CURVE",
"660 380 LINE",
"660 507 OFFCURVE",
"598 540 OFFCURVE",
"509 540 CURVE",
"413 540 OFFCURVE",
"325 481 OFFCURVE",
"295 441 CURVE"
);
}
);
width = 715;
},
{
anchors = (
{
name = bottom;
position = "{280, 0}";
},
{
name = center;
position = "{340, 595}";
},
{
name = top;
position = "{280, 450}";
}
);
components = (
{
alignment = -1;
name = szeryf;
transform = "{1, 0, 0, 1, -80, 0}";
},
{
alignment = -1;
name = szeryf;
transform = "{-1, 0, 0, 1, 310, 0}";
},
{
name = com_h;
transform = "{1, 0, 0, 1, -5, 0}";
},
{
name = com_gora_i;
transform = "{1, 0, 0, 1, -80, 290}";
}
);
layerId = "D94A17C2-4593-4D11-9DD5-BACEC39F5EAE";
paths = (
{
closed = 1;
nodes = (
"105 0 LINE",
"125 0 LINE",
"125 361 LINE",
"125 380 LINE",
"120 385 LINE",
"125 480 LINE",
"125 740 LINE",
"105 715 LINE"
);
}
);
width = 560;
}
);
leftMetricsKey = "=l";
rightKerningGroup = n;
rightMetricsKey = "=i";
unicode = 0068;
},
{
glyphname = i;
lastChange = "2016-09-23 13:13:55 +0000";
layers = (
{
components = (
{
name = idotless;
}
);
guideLines = (
{
position = "{380, 368}";
},
{
angle = 90;
position = "{1426, 0}";
},
{
angle = 90;
position = "{195, 490}";
}
);
layerId = "0F8BB9BB-4444-4167-ACAA-B06A747D7052";
paths = (
{
closed = 1;
nodes = (
"178 590 OFFCURVE",
"205 617 OFFCURVE",
"205 650 CURVE SMOOTH",
"205 683 OFFCURVE",
"178 710 OFFCURVE",
"145 710 CURVE SMOOTH",
"112 710 OFFCURVE",
"85 683 OFFCURVE",
"85 650 CURVE SMOOTH",
"85 617 OFFCURVE",
"112 590 OFFCURVE",
"145 590 CURVE SMOOTH"
);
}
);
width = 295;
},
{
associatedMasterId = "0F8BB9BB-4444-4167-ACAA-B06A747D7052";
components = (
{
name = szeryf;
transform = "{1, 0, 0, 1, 14, 0}";
},
{
name = szeryf;
transform = "{-1, 0, 0, 1, 446, 0}";
}
);
guideLines = (
{
position = "{380, 368}";
},
{
angle = 90;
position = "{1426, 0}";
}
);
layerId = "916C1A8A-C948-4E4F-B520-0722B0A3A4ED";
name = "Regular May 13 16, 14:47";
paths = (
{
closed = 1;
nodes = (
"105 0 LINE",
"355 0 LINE",
"355 520 LINE",
"105 328 LINE"
);
},
{
closed = 1;
nodes = (
"35 380 LINE",
"105 328 LINE",
"355 520 LINE"
);
},
{
closed = 1;
nodes = (
"291 515 OFFCURVE",
"350 574 OFFCURVE",
"350 645 CURVE SMOOTH",
"350 716 OFFCURVE",
"291 775 OFFCURVE",
"220 775 CURVE SMOOTH",
"149 775 OFFCURVE",
"90 716 OFFCURVE",
"90 645 CURVE SMOOTH",
"90 574 OFFCURVE",
"149 515 OFFCURVE",
"220 515 CURVE SMOOTH"
);
}
);
width = 460;
},
{
components = (
{
name = idotless;
}
);
layerId = "F548E3CC-813E-497B-8EED-D24596D10F9A";
paths = (
{
closed = 1;
nodes = (
"245 550 OFFCURVE",
"305 610 OFFCURVE",
"305 680 CURVE SMOOTH",
"305 750 OFFCURVE",
"245 810 OFFCURVE",
"175 810 CURVE SMOOTH",
"105 810 OFFCURVE",
"45 750 OFFCURVE",
"45 680 CURVE SMOOTH",
"45 610 OFFCURVE",
"105 550 OFFCURVE",
"175 550 CURVE SMOOTH"
);
}
);
width = 355;
},
{
associatedMasterId = "0F8BB9BB-4444-4167-ACAA-B06A747D7052";
guideLines = (
{
position = "{350, 368}";
},
{
angle = 90;
position = "{1396, 0}";
}
);
layerId = "4BDEFA19-44C4-48CB-994B-21CA2CBE3141";
name = "Regular Jun 18 16, 20:43";
paths = (
{
closed = 1;
nodes = (
"75 0 LINE",
"165 0 LINE",
"165 490 LINE",
"75 368 LINE"
);
},
{
closed = 1;
nodes = (
"150 590 OFFCURVE",
"175 615 OFFCURVE",
"175 645 CURVE SMOOTH",
"175 675 OFFCURVE",
"150 700 OFFCURVE",
"120 700 CURVE SMOOTH",
"90 700 OFFCURVE",
"65 675 OFFCURVE",
"65 645 CURVE SMOOTH",
"65 615 OFFCURVE",
"90 590 OFFCURVE",
"120 590 CURVE SMOOTH"
);
},
{
closed = 1;
nodes = (
"75 451 LINE",
"75 368 LINE",
"165 490 LINE"
);
}
);
width = 180;
},
{
associatedMasterId = "F548E3CC-813E-497B-8EED-D24596D10F9A";
layerId = "FDEC6550-24A7-4742-8743-12FA0A3071F8";
name = "Bold Jun 19 16, 16:41";
paths = (
{
closed = 1;
nodes = (
"55 0 LINE",
"305 0 LINE",
"305 550 LINE",
"55 365 LINE"
);
},
{
closed = 1;
nodes = (
"235 552 OFFCURVE",
"295 612 OFFCURVE",
"295 682 CURVE SMOOTH",
"295 752 OFFCURVE",
"235 812 OFFCURVE",
"165 812 CURVE SMOOTH",
"95 812 OFFCURVE",
"35 752 OFFCURVE",
"35 682 CURVE SMOOTH",
"35 612 OFFCURVE",
"95 552 OFFCURVE",
"165 552 CURVE SMOOTH"
);
},
{
closed = 1;
nodes = (
"55 425 LINE",
"55 365 LINE",
"305 550 LINE"
);
}
);
width = 360;
},
{
associatedMasterId = "0F8BB9BB-4444-4167-ACAA-B06A747D7052";
guideLines = (
{
position = "{380, 368}";
},
{
angle = 90;
position = "{1426, 0}";
}
);
layerId = "B8569893-78CB-4B40-99AB-8E9F5778901E";
name = "Regular Jun 22 16, 15:18";
paths = (
{
closed = 1;
nodes = (
"185 0 LINE",
"195 0 LINE",
"195 450 LINE",
"185 433 LINE"
);
},
{
closed = 1;
nodes = (
"197 619 OFFCURVE",
"206 628 OFFCURVE",
"206 640 CURVE SMOOTH",
"206 652 OFFCURVE",
"197 661 OFFCURVE",
"185 661 CURVE SMOOTH",
"173 661 OFFCURVE",
"164 652 OFFCURVE",
"164 640 CURVE SMOOTH",
"164 628 OFFCURVE",
"173 619 OFFCURVE",
"185 619 CURVE SMOOTH"
);
},
{
closed = 1;
nodes = (
"185 10 LINE",
"105 0 LINE",
"185 0 LINE"
);
},
{
closed = 1;
nodes = (
"275 0 LINE",
"195 10 LINE",
"195 0 LINE"
);
},
{
closed = 1;
nodes = (
"115 440 LINE",
"185 433 LINE",
"195 450 LINE"
);
}
);
width = 290;
},
{
components = (
{
name = idotless;
}
);
layerId = "D94A17C2-4593-4D11-9DD5-BACEC39F5EAE";
paths = (
{
closed = 1;
nodes = (
"121 625 OFFCURVE",
"130 634 OFFCURVE",
"130 645 CURVE SMOOTH",
"130 656 OFFCURVE",
"121 665 OFFCURVE",
"110 665 CURVE SMOOTH",
"99 665 OFFCURVE",
"90 656 OFFCURVE",
"90 645 CURVE SMOOTH",
"90 634 OFFCURVE",
"99 625 OFFCURVE",
"110 625 CURVE SMOOTH"
);
}
);
width = 225;
},
{
associatedMasterId = "0F8BB9BB-4444-4167-ACAA-B06A747D7052";
guideLines = (
{
position = "{380, 368}";
},
{
angle = 90;
position = "{1426, 0}";
}
);
layerId = "6A963CD9-6952-4805-8DCE-F3B7198D4274";
name = "Regular Jun 24 16, 13:48";
paths = (
{
closed = 1;
nodes = (
"268 590 OFFCURVE",
"304 617 OFFCURVE",
"314 650 CURVE SMOOTH",
"324 683 OFFCURVE",
"307 710 OFFCURVE",
"274 710 CURVE SMOOTH",
"241 710 OFFCURVE",
"205 683 OFFCURVE",
"194 650 CURVE SMOOTH",
"183 617 OFFCURVE",
"202 590 OFFCURVE",
"235 590 CURVE SMOOTH"
);
},
{
closed = 1;
nodes = (
"57 40 LINE",
"155 70 LINE",
"255 440 LINE",
"156 408 LINE"
);
},
{
closed = 1;
nodes = (
"172.295 490 OFFCURVE",
"100.381 453 OFFCURVE",
"39.782 350 CURVE",
"43.442 345 LINE",
"79.017 377 OFFCURVE",
"122.716 402 OFFCURVE",
"155.055 407 CURVE",
"254.898 440 LINE",
"260.793 462 OFFCURVE",
"255.295 490 OFFCURVE",
"213.295 490 CURVE"
);
},
{
closed = 1;
nodes = (
"139.705 -10 OFFCURVE",
"211.619 27 OFFCURVE",
"272.218 130 CURVE",
"268.558 135 LINE",
"232.983 103 OFFCURVE",
"189.284 78 OFFCURVE",
"156.945 73 CURVE",
"57.102 40 LINE",
"51.207 18 OFFCURVE",
"56.705 -10 OFFCURVE",
"98.705 -10 CURVE"
);
}
);
width = 300;
}
);
leftMetricsKey = "=idotless";
rightMetricsKey = "=idotless";
unicode = 0069;
},
{
glyphname = idotless;
lastChange = "2016-08-28 14:29:57 +0000";
layers = (
{
anchors = (
{
name = bottom;
position = "{113, 0}";
},
{
name = ogonek;
position = "{202, 10}";
},
{
name = top;
position = "{110, 450}";
}
);
components = (
{
name = szeryf;
transform = "{1, 0, 0, 1, -80, 0}";
},
{
name = szeryf;
transform = "{-1, 0, 0, 1, 310, 0}";
},
{
name = com_gora_i;
transform = "{1, 0, 0, 1, -80, 0}";
}
);
layerId = "D94A17C2-4593-4D11-9DD5-BACEC39F5EAE";
paths = (
{
closed = 1;
nodes = (
"105 0 LINE",
"125 0 LINE",
"125 450 LINE",
"105 425 LINE"
);
}
);
width = 225;
},
{
anchors = (
{
name = bottom;
position = "{148, 0}";
},
{
name = ogonek;
position = "{265, 10}";
},
{
name = top;
position = "{148, 480}";
}
);
components = (
{
name = szeryf;
transform = "{1, 0, 0, 1, 14, 0}";
},
{
name = szeryf;
transform = "{-1, 0, 0, 1, 286, 0}";
},
{
name = com_gora_i;
transform = "{1, 0, 0, 1, 5, 0}";
}
);
layerId = "0F8BB9BB-4444-4167-ACAA-B06A747D7052";
paths = (
{
closed = 1;
nodes = (
"105 0 LINE",
"195 0 LINE",
"195 490 LINE",
"105 368 LINE"
);
}
);
width = 295;
},
{
anchors = (
{
name = bottom;
position = "{180, 0}";
},
{
name = ogonek;
position = "{324, 10}";
},
{
name = top;
position = "{180, 530}";
}
);
components = (
{
name = szeryf;
transform = "{1, 0, 0, 1, -25, 0}";
},
{
name = szeryf;
transform = "{-1, 0, 0, 1, 385, 0}";
},
{
name = com_gora_i;
transform = "{1, 0, 0, 1, -45, 0}";
}
);
layerId = "F548E3CC-813E-497B-8EED-D24596D10F9A";
paths = (
{
closed = 1;
nodes = (
"55 0 LINE",
"305 0 LINE",
"305 550 LINE",
"55 365 LINE"
);
}
);
width = 355;
}
);
leftKerningGroup = n;
rightKerningGroup = n;
unicode = 0131;
},
{
glyphname = j;
lastChange = "2016-09-23 09:00:06 +0000";
layers = (
{
guideLines = (
{
angle = 90;
position = "{35, 420}";
}
);
layerId = "0F8BB9BB-4444-4167-ACAA-B06A747D7052";
paths = (
{
closed = 1;
nodes = (
"149 -207 OFFCURVE",
"194 -133 OFFCURVE",
"195 -10 CURVE",
"195 490 LINE",
"105 368 LINE",
"105 0 LINE",
"105 -114 OFFCURVE",
"88 -187 OFFCURVE",
"35 -255 CURVE",
"40 -260 LINE"
);
},
{
closed = 1;
nodes = (
"178 590 OFFCURVE",
"205 617 OFFCURVE",
"205 650 CURVE SMOOTH",
"205 683 OFFCURVE",
"178 710 OFFCURVE",
"145 710 CURVE SMOOTH",
"112 710 OFFCURVE",
"85 683 OFFCURVE",
"85 650 CURVE SMOOTH",
"85 617 OFFCURVE",
"112 590 OFFCURVE",
"145 590 CURVE SMOOTH"
);
},
{
closed = 1;
nodes = (
"35 420 LINE",
"105 368 LINE",
"195 490 LINE"
);
}
);
width = 280;
},
{
layerId = "F548E3CC-813E-497B-8EED-D24596D10F9A";
paths = (
{
closed = 1;
nodes = (
"159 -237 OFFCURVE",
"304 -143 OFFCURVE",
"305 20 CURVE",
"305 550 LINE",
"55 365 LINE",
"55 0 LINE",
"55 -114 OFFCURVE",
"38 -187 OFFCURVE",
"-15 -255 CURVE",
"-10 -260 LINE"
);
},
{
closed = 1;
nodes = (
"245 550 OFFCURVE",
"305 610 OFFCURVE",
"305 680 CURVE SMOOTH",
"305 750 OFFCURVE",
"245 810 OFFCURVE",
"175 810 CURVE SMOOTH",
"105 810 OFFCURVE",
"45 750 OFFCURVE",
"45 680 CURVE SMOOTH",
"45 610 OFFCURVE",
"105 550 OFFCURVE",
"175 550 CURVE SMOOTH"
);
},
{
closed = 1;
nodes = (
"20 425 LINE",
"55 365 LINE",
"305 550 LINE"
);
}
);
width = 360;
},
{
layerId = "D94A17C2-4593-4D11-9DD5-BACEC39F5EAE";
paths = (
{
closed = 1;
nodes = (
"124 -197 OFFCURVE",
"139 -133 OFFCURVE",
"140 -10 CURVE",
"140 450 LINE",
"120 425 LINE",
"120 -10 LINE",
"120 -124 OFFCURVE",
"108 -187 OFFCURVE",
"50 -255 CURVE",
"55 -260 LINE"
);
},
{
closed = 1;
nodes = (
"136 625 OFFCURVE",
"145 634 OFFCURVE",
"145 645 CURVE SMOOTH",
"145 656 OFFCURVE",
"136 665 OFFCURVE",
"125 665 CURVE SMOOTH",
"114 665 OFFCURVE",
"105 656 OFFCURVE",
"105 645 CURVE SMOOTH",
"105 634 OFFCURVE",
"114 625 OFFCURVE",
"125 625 CURVE SMOOTH"
);
},
{
closed = 1;
nodes = (
"50 435 LINE",
"120 425 LINE",
"140 450 LINE"
);
}
);
width = 255;
}
);
leftKerningGroup = n;
rightKerningGroup = n;
unicode = 006A;
},
{
glyphname = k;
lastChange = "2016-10-25 09:40:44 +0000";
layers = (
{
anchors = (
{
name = bottom;
position = "{290, 0}";
},
{
name = top;
position = "{290, 480}";
}
);
components = (
{
name = l;
}
);
guideLines = (
{
angle = 126.8699;
position = "{605, 30}";
}
);
layerId = "0F8BB9BB-4444-4167-ACAA-B06A747D7052";
paths = (
{
closed = 1;
nodes = (
"240 254 LINE",
"377 27 OFFCURVE",
"423 -25 OFFCURVE",
"580 -5 CURVE",
"580 0 LINE",
"473 56 OFFCURVE",
"427 124 OFFCURVE",
"334 275 CURVE"
);
},
{
closed = 1;
nodes = (
"416 480 LINE",
"416 420 LINE",
"240 254 LINE",
"334 275 LINE",
"546 480 LINE"
);
},
{
closed = 1;
nodes = (
"304.641 480 LINE",
"416 420 LINE",
"416 480 LINE"
);
}
);
width = 580;
},
{
anchors = (
{
name = bottom;
position = "{360, 0}";
},
{
name = top;
position = "{360, 530}";
}
);
components = (
{
name = l;
}
);
layerId = "F548E3CC-813E-497B-8EED-D24596D10F9A";
paths = (
{
closed = 1;
nodes = (
"315 264 LINE",
"392 -10 OFFCURVE",
"518 -25 OFFCURVE",
"735 -5 CURVE",
"735 0 LINE",
"643 55 OFFCURVE",
"575 200 OFFCURVE",
"512 354 CURVE"
);
},
{
closed = 1;
nodes = (
"488 530 LINE",
"488 421 LINE",
"315 264 LINE",
"512 354 LINE",
"676 530 LINE"
);
},
{
closed = 1;
nodes = (
"436 530 LINE",
"488 421 LINE",
"488 530 LINE"
);
}
);
width = 700;
},
{
associatedMasterId = "0F8BB9BB-4444-4167-ACAA-B06A747D7052";
components = (
{
name = l;
},
{
name = szeryf;
transform = "{1.1, 0, 0, -1, 301, 480}";
}
);
layerId = "46C48686-6F3A-469B-B81F-D5A79E3C7E81";
name = "Regular Jun 18 16, 15:17";
paths = (
{
closed = 1;
nodes = (
"240 264 LINE",
"240 234 LINE",
"425 60 LINE",
"425 0 LINE",
"595 0 LINE",
"330 269 LINE"
);
},
{
closed = 1;
nodes = (
"401 480 LINE",
"401 420 LINE",
"240 264 LINE",
"330 269 LINE",
"545 480 LINE",
"465 480 LINE"
);
}
);
width = 581;
},
{
associatedMasterId = "0F8BB9BB-4444-4167-ACAA-B06A747D7052";
components = (
{
name = l;
},
{
name = szeryf;
transform = "{1.1, 0, 0, -1, 301, 480}";
}
);
guideLines = (
{
angle = 36.8699;
position = "{605, 30}";
}
);
layerId = "8734CA7B-1A2F-478D-BE85-6C2DC721D6A6";
name = "Regular Jun 18 16, 15:18";
paths = (
{
closed = 1;
nodes = (
"240 264 LINE",
"240 234 LINE",
"539 -40 LINE",
"565 -20 LINE",
"350 289 LINE"
);
},
{
closed = 1;
nodes = (
"401 480 LINE",
"401 420 LINE",
"240 264 LINE",
"350 289 LINE",
"545 480 LINE",
"465 480 LINE"
);
}
);
width = 581;
},
{
associatedMasterId = "0F8BB9BB-4444-4167-ACAA-B06A747D7052";
components = (
{
name = l;
}
);
guideLines = (
{
angle = 126.8699;
position = "{605, 30}";
}
);
layerId = "3ED1EAD1-1D7F-441C-84EC-64F2DDE9F5B1";
name = "Regular Jun 18 16, 15:27";
paths = (
{
closed = 1;
nodes = (
"240 264 LINE",
"240 234 LINE",
"423 66 LINE",
"423 0 LINE",
"577 0 LINE",
"320 279 LINE"
);
},
{
closed = 1;
nodes = (
"401 480 LINE",
"401 415 LINE",
"240 264 LINE",
"320 279 LINE",
"545 480 LINE",
"465 480 LINE"
);
}
);
width = 581;
},
{
associatedMasterId = "0F8BB9BB-4444-4167-ACAA-B06A747D7052";
components = (
{
name = l;
}
);
guideLines = (
{
angle = 126.8699;
position = "{605, 30}";
}
);
layerId = "73844A69-16D5-44F7-9E56-5254C844F427";
name = "Regular Jun 18 16, 15:39";
paths = (
{
closed = 1;
nodes = (
"240 264 LINE",
"240 234 LINE",
"423 66 LINE",
"423 0 LINE",
"577 0 LINE",
"320 279 LINE"
);
},
{
closed = 1;
nodes = (
"401 480 LINE",
"401 415 LINE",
"240 264 LINE",
"320 279 LINE",
"545 480 LINE",
"465 480 LINE"
);
}
);
width = 581;
},
{
associatedMasterId = "0F8BB9BB-4444-4167-ACAA-B06A747D7052";
components = (
{
name = l;
},
{
name = szeryf;
transform = "{1.1, 0, 0, -1, 301, 480}";
}
);
guideLines = (
{
angle = 126.8699;
position = "{605, 30}";
}
);
layerId = "F9DC55C3-5477-45BF-BF56-5E4C829C66FA";
name = "Regular Jun 18 16, 20:26";
paths = (
{
closed = 1;
nodes = (
"240 264 LINE",
"240 234 LINE",
"425 60 LINE",
"425 0 LINE",
"595 0 LINE",
"330 269 LINE"
);
},
{
closed = 1;
nodes = (
"401 480 LINE",
"401 420 LINE",
"240 264 LINE",
"330 269 LINE",
"545 480 LINE",
"465 480 LINE"
);
}
);
width = 581;
},
{
anchors = (
{
name = bottom;
position = "{250, 0}";
},
{
name = top;
position = "{250, 450}";
}
);
components = (
{
name = l;
}
);
layerId = "D94A17C2-4593-4D11-9DD5-BACEC39F5EAE";
paths = (
{
closed = 1;
nodes = (
"199 249 LINE",
"344 26 OFFCURVE",
"393 -10 OFFCURVE",
"480 -5 CURVE",
"480 0 LINE",
"398 0 OFFCURVE",
"346 58 OFFCURVE",
"224 248 CURVE"
);
},
{
closed = 1;
nodes = (
"402 450 LINE",
"402 430 LINE",
"199 249 LINE",
"224 248 LINE",
"451 450 LINE"
);
},
{
closed = 1;
nodes = (
"297 450 LINE",
"402 430 LINE",
"402 450 LINE"
);
}
);
width = 520;
}
);
leftMetricsKey = "=l";
rightKerningGroup = k;
unicode = 006B;
},
{
glyphname = l;
lastChange = "2016-08-28 14:57:49 +0000";
layers = (
{
anchors = (
{
name = bottom;
position = "{150, 0}";
},
{
name = center;
position = "{148, 240}";
},
{
name = top;
position = "{148, 730}";
},
{
name = topright;
position = "{275, 480}";
}
);
components = (
{
name = szeryf;
transform = "{1, 0, 0, 1, 14, 0}";
},
{
name = szeryf;
transform = "{-1, 0, 0, 1, 286, 0}";
},
{
name = com_gora_i;
transform = "{1, 0, 0, 1, 5, 290}";
}
);
layerId = "0F8BB9BB-4444-4167-ACAA-B06A747D7052";
paths = (
{
closed = 1;
nodes = (
"105 0 LINE",
"195 0 LINE",
"195 780 LINE",
"105 659 LINE"
);
}
);
width = 295;
},
{
associatedMasterId = "0F8BB9BB-4444-4167-ACAA-B06A747D7052";
components = (
{
name = szeryf;
transform = "{1, 0, 0, 1, 14, 0}";
},
{
name = szeryf;
transform = "{-1, 0, 0, 1, 446, 0}";
}
);
layerId = "C724CEEA-0598-4A05-8309-64BC99A8996F";
name = "Regular May 13 16, 14:52";
paths = (
{
closed = 1;
nodes = (
"105 0 LINE",
"355 0 LINE",
"355 760 LINE",
"105 568 LINE"
);
},
{
closed = 1;
nodes = (
"35 620 LINE",
"105 568 LINE",
"355 760 LINE"
);
}
);
width = 450;
},
{
anchors = (
{
name = bottom;
position = "{178, 0}";
},
{
name = center;
position = "{178, 265}";
},
{
name = top;
position = "{178, 740}";
},
{
name = topright;
position = "{335, 530}";
}
);
components = (
{
name = szeryf;
transform = "{1, 0, 0, 1, -25, 0}";
},
{
name = szeryf;
transform = "{-1, 0, 0, 1, 385, 0}";
},
{
name = com_gora_i;
transform = "{1, 0, 0, 1, -45, 250}";
}
);
layerId = "F548E3CC-813E-497B-8EED-D24596D10F9A";
paths = (
{
closed = 1;
nodes = (
"55 0 LINE",
"305 0 LINE",
"305 800 LINE",
"55 615 LINE"
);
}
);
width = 355;
},
{
associatedMasterId = "0F8BB9BB-4444-4167-ACAA-B06A747D7052";
components = (
{
name = szeryf;
transform = "{1, 0, 0, 1, 14, 0}";
},
{
name = szeryf;
transform = "{-1, 0, 0, 1, 286, 0}";
},
{
name = com_gora_i;
transform = "{1, 0, 0, 1, 5, 290}";
}
);
layerId = "74F80F4E-6232-44F7-9304-8744899D63A6";
name = "Regular Jun 18 16, 20:59";
paths = (
{
closed = 1;
nodes = (
"105 0 LINE",
"195 0 LINE",
"195 780 LINE",
"105 659 LINE"
);
}
);
width = 290;
},
{
anchors = (
{
name = bottom;
position = "{113, 0}";
},
{
name = center;
position = "{113, 225}";
},
{
name = top;
position = "{115, 700}";
},
{
name = topright;
position = "{205, 450}";
}
);
components = (
{
name = szeryf;
transform = "{1, 0, 0, 1, -80, 0}";
},
{
name = szeryf;
transform = "{-1, 0, 0, 1, 310, 0}";
},
{
name = com_gora_i;
transform = "{1, 0, 0, 1, -80, 290}";
}
);
layerId = "D94A17C2-4593-4D11-9DD5-BACEC39F5EAE";
paths = (
{
closed = 1;
nodes = (
"105 0 LINE",
"125 0 LINE",
"125 740 LINE",
"105 720 LINE"
);
}
);
width = 225;
}
);
leftMetricsKey = "=i";
rightMetricsKey = "=i";
unicode = 006C;
},
{
glyphname = lslash;
lastChange = "2016-10-11 23:01:59 +0000";
layers = (
{
components = (
{
name = l;
transform = "{1, 0, 0, 1, 25, 0}";
}
);
layerId = "D94A17C2-4593-4D11-9DD5-BACEC39F5EAE";
paths = (
{
closed = 1;
nodes = (
"141 366 LINE",
"249 441 LINE",
"249 461 LINE",
"141 386 LINE"
);
},
{
closed = 1;
nodes = (
"141 386 LINE",
"35 311 LINE",
"35 291 LINE",
"141 366 LINE"
);
}
);
width = 279;
},
{
components = (
{
name = l;
transform = "{1, 0, 0, 1, 15, 0}";
}
);
layerId = "0F8BB9BB-4444-4167-ACAA-B06A747D7052";
paths = (
{
closed = 1;
nodes = (
"165 350 LINE",
"305 447 LINE",
"305 507 LINE",
"165 410 LINE"
);
},
{
closed = 1;
nodes = (
"165 410 LINE",
"25 311 LINE",
"25 251 LINE",
"165 350 LINE"
);
}
);
width = 335;
},
{
components = (
{
name = l;
transform = "{1, 0, 0, 1, 26, 0}";
}
);
layerId = "F548E3CC-813E-497B-8EED-D24596D10F9A";
paths = (
{
closed = 1;
nodes = (
"194 327 LINE",
"405 475 LINE",
"405 550 LINE",
"194 402 LINE"
);
},
{
closed = 1;
nodes = (
"194 422 LINE",
"5 290 LINE",
"5 215 LINE",
"194 347 LINE"
);
}
);
width = 405;
}
);
leftMetricsKey = "=|t";
unicode = 0142;
},
